<svg xmlns="http://www.w3.org/2000/svg" viewBox="0 0 99.5 23.39"><defs><style>.cls-1{fill:#e69e6c;}.cls-2{fill:#2e305c;}</style></defs><g id="Capa_2" data-name="Capa 2"><g id="Capa_1-2" data-name="Capa 1"><polygon class="cls-1" points="99.49 12.14 1.21 12.14 0.01 13.34 98.29 13.34 99.49 12.14"/><path class="cls-2" d="M0,.51V.41H2.73A3.44,3.44,0,0,1,3.93.6a2.33,2.33,0,0,1,.87.51,2.14,2.14,0,0,1,.52.72,2.22,2.22,0,0,1,.17.85,2.2,2.2,0,0,1-.16.84,2,2,0,0,1-.5.72,2.7,2.7,0,0,1-.91.5,4.17,4.17,0,0,1-1.28.18c-.16,0-.46,0-.9-.07V7.72a.83.83,0,0,0,.91.92v.09H0V8.64a1,1,0,0,0,.64-.23.84.84,0,0,0,.25-.69V1.43A1.14,1.14,0,0,0,.8,1,.67.67,0,0,0,.59.68,1.11,1.11,0,0,0,.32.56L.11.51Zm1.74.2V4.62a4.24,4.24,0,0,0,.86.08A2.27,2.27,0,0,0,4,4.29a1.82,1.82,0,0,0,.56-1.54A2.28,2.28,0,0,0,4,1.23a1.83,1.83,0,0,0-1.5-.6A4.43,4.43,0,0,0,1.74.71Z"/><path class="cls-2" d="M15.53,4.58A4.32,4.32,0,0,1,15,6.75a4.49,4.49,0,0,1-1.58,1.6,4.24,4.24,0,0,1-2.21.6A4.39,4.39,0,0,1,6.75,4.54a4.33,4.33,0,0,1,.34-1.72,4.4,4.4,0,0,1,1-1.4A4.33,4.33,0,0,1,9.49.5,4.28,4.28,0,0,1,11.15.17a4.35,4.35,0,0,1,1.64.31,4.43,4.43,0,0,1,1.41.91,4.26,4.26,0,0,1,1.33,3.19Zm-1,0A4.81,4.81,0,0,0,14,2,3,3,0,0,0,12.6.75,3.81,3.81,0,0,0,11.15.43,3.79,3.79,0,0,0,10.07.6,3.16,3.16,0,0,0,9,1.23a3.31,3.31,0,0,0-.88,1.29,5.33,5.33,0,0,0-.34,2.05A5.62,5.62,0,0,0,8,6.44a3.55,3.55,0,0,0,.78,1.3,3,3,0,0,0,1.11.73,3.5,3.5,0,0,0,1.25.22,3.74,3.74,0,0,0,1.17-.2,3.07,3.07,0,0,0,1.09-.68,3.29,3.29,0,0,0,.8-1.26A5.32,5.32,0,0,0,14.54,4.6Z"/><path class="cls-2" d="M17,.53h-.11V.41h2.88a2.75,2.75,0,0,1,1.17.22,2,2,0,0,1,.75.54,2.12,2.12,0,0,1,.39.7,2.57,2.57,0,0,1,.11.72,2,2,0,0,1-.19.87,1.86,1.86,0,0,1-.58.71,2.24,2.24,0,0,1-1,.41v0A3.46,3.46,0,0,1,21.8,6l.75,1.27a3.89,3.89,0,0,0,.82,1.08,1.21,1.21,0,0,0,.6.26v.09H22.46l-.18-.24-.18-.25L21.93,8a1,1,0,0,0-.13-.19l-1-1.64a4.07,4.07,0,0,0-.62-.82,2.17,2.17,0,0,0-.58-.45,1.91,1.91,0,0,0-.49-.17,3.68,3.68,0,0,0-.51,0v3a.82.82,0,0,0,.9.92v.09H16.87V8.64a1.23,1.23,0,0,0,.44-.1.71.71,0,0,0,.32-.28,1,1,0,0,0,.12-.54V1.43a.88.88,0,0,0-.24-.7A.83.83,0,0,0,17,.53Zm1.63,3.93h.48a2.89,2.89,0,0,0,1.22-.22A1.34,1.34,0,0,0,21,3.63a2,2,0,0,0,.21-1A2.39,2.39,0,0,0,21,1.72,1.66,1.66,0,0,0,20.37,1,2.17,2.17,0,0,0,19.13.63a2.47,2.47,0,0,0-.52.05Z"/><path class="cls-2" d="M35.6,0a1,1,0,0,1-.84.41H24.85a1.72,1.72,0,0,1-.34,0,.61.61,0,0,1-.25-.07.78.78,0,0,1-.18-.11L23.93,0h-.1V2h.1a1.25,1.25,0,0,1,.47-1,2,2,0,0,1,1-.24h1.66v7a.86.86,0,0,1-.26.7,1,1,0,0,1-.63.22v.09h2.65V8.64a.82.82,0,0,1-.9-.92v-7H31.6v7a.86.86,0,0,1-.26.7,1,1,0,0,1-.63.22v.09h2.65V8.64a.82.82,0,0,1-.9-.92v-7h1.65a2,2,0,0,1,1,.24,1.25,1.25,0,0,1,.47,1h.09V0Z"/><path class="cls-2" d="M45.31,4.58a4.23,4.23,0,0,1-.58,2.17,4.33,4.33,0,0,1-1.58,1.6,4.19,4.19,0,0,1-2.21.6,4.28,4.28,0,0,1-2.23-.6,4.34,4.34,0,0,1-1.6-1.61,4.29,4.29,0,0,1-.59-2.2,4.34,4.34,0,0,1,.35-1.72,4.24,4.24,0,0,1,1-1.4A4.39,4.39,0,0,1,39.26.5,4.33,4.33,0,0,1,40.93.17a4.38,4.38,0,0,1,1.64.31,4.28,4.28,0,0,1,1.4.91,4.07,4.07,0,0,1,1,1.4A4.4,4.4,0,0,1,45.31,4.58Zm-1,0A4.91,4.91,0,0,0,43.73,2,3,3,0,0,0,42.37.75,3.8,3.8,0,0,0,40.93.43,3.91,3.91,0,0,0,39.84.6a3.25,3.25,0,0,0-1.1.63,3.42,3.42,0,0,0-.88,1.29,5.52,5.52,0,0,0-.34,2.05,5.61,5.61,0,0,0,.29,1.87,3.55,3.55,0,0,0,.78,1.3,3,3,0,0,0,1.1.73,3.54,3.54,0,0,0,1.25.22,3.8,3.8,0,0,0,1.18-.2,3.16,3.16,0,0,0,1.09-.68A3.42,3.42,0,0,0,44,6.55,5.54,5.54,0,0,0,44.32,4.6Z"/><path class="cls-2" d="M53.94,8.73H50.83V8.64H51a.74.74,0,0,0,.54-.23,1,1,0,0,0,.23-.69V1.44a1.05,1.05,0,0,0-.21-.69.73.73,0,0,0-.58-.24h-.1V.41h2.72a2.9,2.9,0,0,1,1,.16A2.09,2.09,0,0,1,55.3,1a1.89,1.89,0,0,1,.48.62,1.59,1.59,0,0,1,.17.75,1.63,1.63,0,0,1-.48,1.22,3,3,0,0,1-1.31.69v0q.38,0,.72.12a2.66,2.66,0,0,1,.62.22A2.06,2.06,0,0,1,56,5a2,2,0,0,1,.6,1,1.89,1.89,0,0,1,.08.58,1.88,1.88,0,0,1-.33,1.12,2.53,2.53,0,0,1-.76.71A3.5,3.5,0,0,1,53.94,8.73Zm-1.36-4.5h.54a2.39,2.39,0,0,0,1-.14,1.85,1.85,0,0,0,.37-.25,1.43,1.43,0,0,0,.37-.49A1.74,1.74,0,0,0,55,2.53a2.08,2.08,0,0,0-.12-.71,1.79,1.79,0,0,0-.34-.6A1.65,1.65,0,0,0,54,.82a1.5,1.5,0,0,0-.67-.15,2.41,2.41,0,0,0-.74.13Zm.85.25h-.85v3a1.8,1.8,0,0,0,.06.5.58.58,0,0,0,.32.34,1.73,1.73,0,0,0,.82.15,1.78,1.78,0,0,0,1.63-.76,2.16,2.16,0,0,0,.33-1.18,2.16,2.16,0,0,0-.16-.86A1.87,1.87,0,0,0,55.12,5a2.13,2.13,0,0,0-.73-.4A2.93,2.93,0,0,0,53.43,4.48Z"/><path class="cls-2" d="M57.81,8.64h.11a.75.75,0,0,0,.54-.24,1,1,0,0,0,.23-.68V1.44a.89.89,0,0,0-.26-.72,1.1,1.1,0,0,0-.62-.21V.41h2.65v.1a1.13,1.13,0,0,0-.62.21.83.83,0,0,0-.27.72V7.51a.9.9,0,0,0,.27.75,1.47,1.47,0,0,0,.89.21h.72a2.1,2.1,0,0,0,.74-.11A1,1,0,0,0,62.64,8,3,3,0,0,0,63,7.36h.1l-.32,1.37H57.81Z"/><path class="cls-2" d="M67.68.31l2.49,7.12a3.15,3.15,0,0,0,.38.8.82.82,0,0,0,.33.32,1.8,1.8,0,0,0,.41.09v.09H68.58V8.64a2.13,2.13,0,0,0,.64-.08.41.41,0,0,0,.23-.43,1.86,1.86,0,0,0-.11-.52.1.1,0,0,1,0-.06l-.74-2.21H65.7l-.66,2a2.35,2.35,0,0,0-.14.67.52.52,0,0,0,.18.47.84.84,0,0,0,.49.12v.09H63.62V8.64a1,1,0,0,0,.67-.32,2.47,2.47,0,0,0,.44-.85L67.07.31ZM65.79,5h2.65L67.09,1.09h0Z"/><path class="cls-2" d="M80.78.41v.1a1.46,1.46,0,0,0-.5.12A.53.53,0,0,0,80,1a1.77,1.77,0,0,0-.11.69V8.93h0L73.45,1.81V6.93a6.89,6.89,0,0,0,0,.94,1.29,1.29,0,0,0,.15.45.92.92,0,0,0,.73.32v.09H72.3V8.64a1.24,1.24,0,0,0,.54-.15A.8.8,0,0,0,73.12,8a5.41,5.41,0,0,0,.08-1.06V1.51l-.28-.31a2.48,2.48,0,0,0-.58-.53,2.26,2.26,0,0,0-.55-.16V.41h1.56l6.29,7.05V2.09a6.32,6.32,0,0,0,0-.9.75.75,0,0,0-.25-.48,1,1,0,0,0-.65-.2V.41Z"/><path class="cls-2" d="M89.39,2.27H89.3a1.77,1.77,0,0,0-.57-1A3,3,0,0,0,87.66.62,3.71,3.71,0,0,0,86.53.43a3.1,3.1,0,0,0-1.35.3,3.32,3.32,0,0,0-1.09.85,4.17,4.17,0,0,0-.71,1.32,5.38,5.38,0,0,0-.25,1.68,5,5,0,0,0,.25,1.62,3.81,3.81,0,0,0,.71,1.3,3.11,3.11,0,0,0,2.47,1.11A4.36,4.36,0,0,0,88,8.36a3.77,3.77,0,0,0,1.37-.86v.32a6.38,6.38,0,0,1-1.38.85A3.7,3.7,0,0,1,86.39,9a4.38,4.38,0,0,1-1.8-.36,4,4,0,0,1-1.36-1,4.09,4.09,0,0,1-.85-1.37A4.51,4.51,0,0,1,84.31.78,4.22,4.22,0,0,1,86.53.17,6,6,0,0,1,88.1.39l.59.16a1.11,1.11,0,0,0,.29,0,.42.42,0,0,0,.29-.07.38.38,0,0,0,.11-.23h.09Z"/><path class="cls-2" d="M99.5,4.58a4.23,4.23,0,0,1-.58,2.17,4.33,4.33,0,0,1-1.58,1.6,4.19,4.19,0,0,1-2.21.6,4.28,4.28,0,0,1-2.23-.6,4.34,4.34,0,0,1-1.6-1.61,4.29,4.29,0,0,1-.59-2.2,4.34,4.34,0,0,1,.35-1.72,4.24,4.24,0,0,1,1-1.4A4.39,4.39,0,0,1,93.45.5,4.33,4.33,0,0,1,95.12.17a4.38,4.38,0,0,1,1.64.31,4.28,4.28,0,0,1,1.4.91,4.07,4.07,0,0,1,1,1.4A4.4,4.4,0,0,1,99.5,4.58Zm-1,0A4.91,4.91,0,0,0,97.92,2,3,3,0,0,0,96.56.75,3.8,3.8,0,0,0,95.12.43,3.91,3.91,0,0,0,94,.6a3.25,3.25,0,0,0-1.1.63,3.42,3.42,0,0,0-.88,1.29,5.52,5.52,0,0,0-.34,2.05A5.61,5.61,0,0,0,92,6.44a3.55,3.55,0,0,0,.78,1.3,3,3,0,0,0,1.1.73,3.54,3.54,0,0,0,1.25.22,3.8,3.8,0,0,0,1.18-.2,3.16,3.16,0,0,0,1.09-.68,3.42,3.42,0,0,0,.8-1.26A5.54,5.54,0,0,0,98.51,4.6Z"/><path class="cls-2" d="M1,17.11H2.4a1.53,1.53,0,0,1,1.74,1.53A1.48,1.48,0,0,1,3.4,20a1.47,1.47,0,0,1,1.31,1.53,1.75,1.75,0,0,1-2,1.72H1Zm.42,2.77h1a1.25,1.25,0,0,0,.87-.25,1.16,1.16,0,0,0,.41-.94,1.14,1.14,0,0,0-.42-1,1.71,1.71,0,0,0-1.06-.26h-.8Zm0,3H2.49a2,2,0,0,0,1.38-.37,1.15,1.15,0,0,0,.4-.93,1.11,1.11,0,0,0-.67-1.14,2.74,2.74,0,0,0-1.19-.18h-1Z"/><path class="cls-2" d="M22.93,17.48H20.32V19.7h2.56v.37H20.32v2.8h2.61v.37h-3V17.11h3Z"/><path class="cls-2" d="M40.78,23.24l-2.05-2.9h-.19v2.9h-.42V17.11H39a2.31,2.31,0,0,1,1.34.31A1.53,1.53,0,0,1,41,18.74,1.47,1.47,0,0,1,40,20.22a2.48,2.48,0,0,1-.78.12l2.07,2.9ZM38.54,20h.61c.9,0,1.44-.46,1.44-1.25A1.13,1.13,0,0,0,40,17.66a2.28,2.28,0,0,0-1-.18h-.52Z"/><path class="cls-2" d="M56.38,23.24V17.05l5.32,5.38V17.11h.41v6.28L56.8,18v5.23Z"/><path class="cls-2" d="M80.92,21.23h-2.7l-.84,2h-.46l2.67-6.31,2.63,6.31h-.46Zm-.15-.37L79.58,18l-1.21,2.9Z"/><path class="cls-2" d="M97.44,17.11v5.76h1.77v.37H97V17.11Z"/></g></g></svg>