<svg xmlns="http://www.w3.org/2000/svg" viewBox="0 0 99.05 23.13"><defs><style>.cls-1{fill:#002856;}.cls-2{fill:#00a6ce;}</style></defs><g id="Capa_2" data-name="Capa 2"><g id="Capa_1-2" data-name="Capa 1"><path class="cls-1" d="M0,.51V.41H2.71A3.36,3.36,0,0,1,3.91.6a2.46,2.46,0,0,1,.87.5,2.24,2.24,0,0,1,.52.72,2.22,2.22,0,0,1,.17.85,2.31,2.31,0,0,1-.16.83,2,2,0,0,1-.51.72,2.43,2.43,0,0,1-.89.49,3.93,3.93,0,0,1-1.29.19c-.15,0-.45,0-.88-.07V7.69a.82.82,0,0,0,.9.91v.09H0V8.6a1,1,0,0,0,.64-.23.87.87,0,0,0,.25-.68V1.43A1.14,1.14,0,0,0,.8,1,.61.61,0,0,0,.59.68.66.66,0,0,0,.32.56L.11.51ZM1.74.7V4.6a4.89,4.89,0,0,0,.85.08A2.24,2.24,0,0,0,4,4.27a1.79,1.79,0,0,0,.56-1.53A2.29,2.29,0,0,0,4,1.22,1.84,1.84,0,0,0,2.53.63,4.29,4.29,0,0,0,1.74.7Z"/><path class="cls-1" d="M15.46,4.56a4.31,4.31,0,0,1-.57,2.16,4.35,4.35,0,0,1-1.57,1.59,4.18,4.18,0,0,1-2.2.6,4.28,4.28,0,0,1-2.23-.6A4.36,4.36,0,0,1,7.3,6.71a4.27,4.27,0,0,1-.58-2.19,4.31,4.31,0,0,1,.34-1.71A4.1,4.1,0,0,1,8,1.42,4.44,4.44,0,0,1,9.44.49,4.5,4.5,0,0,1,11.1.17a4.3,4.3,0,0,1,1.63.31,4.58,4.58,0,0,1,1.41.9,4.45,4.45,0,0,1,1,1.4A4.32,4.32,0,0,1,15.46,4.56Zm-1,0A4.89,4.89,0,0,0,13.89,2,3.06,3.06,0,0,0,12.54.74,3.78,3.78,0,0,0,11.1.43,3.52,3.52,0,0,0,10,.6a3,3,0,0,0-1.09.62,3.38,3.38,0,0,0-.88,1.29,5.5,5.5,0,0,0-.34,2A5.78,5.78,0,0,0,8,6.41a3.44,3.44,0,0,0,.79,1.3,3,3,0,0,0,1.09.72,3.5,3.5,0,0,0,1.25.22,3.78,3.78,0,0,0,1.17-.2,3.09,3.09,0,0,0,1.08-.67,3.29,3.29,0,0,0,.8-1.26A5.52,5.52,0,0,0,14.48,4.58Z"/><path class="cls-1" d="M16.9.53h-.11V.41h2.87a2.91,2.91,0,0,1,1.17.21,2.09,2.09,0,0,1,.75.55,2.17,2.17,0,0,1,.49,1.41,2.11,2.11,0,0,1-.18.86,1.88,1.88,0,0,1-.58.71,2.24,2.24,0,0,1-1,.41v0A3.39,3.39,0,0,1,21.7,6l.75,1.26a4,4,0,0,0,.81,1.07,1.28,1.28,0,0,0,.61.26v.09H22.36a2.5,2.5,0,0,0-.18-.24L22,8.2,21.83,8a1.33,1.33,0,0,0-.13-.2l-1-1.63a3.64,3.64,0,0,0-.61-.81,2.17,2.17,0,0,0-.58-.45A1.64,1.64,0,0,0,19,4.69a3.89,3.89,0,0,0-.51,0v3a.82.82,0,0,0,.9.91v.09H16.79V8.6a1.19,1.19,0,0,0,.44-.1.66.66,0,0,0,.32-.28,1,1,0,0,0,.12-.53V1.43a.88.88,0,0,0-.24-.7A.81.81,0,0,0,16.9.53Zm1.63,3.91H19a3.07,3.07,0,0,0,1.22-.21,1.53,1.53,0,0,0,.69-.61,2.07,2.07,0,0,0,.21-1,2.59,2.59,0,0,0-.19-.94,1.83,1.83,0,0,0-.65-.77A2.16,2.16,0,0,0,19.05.63a2.4,2.4,0,0,0-.52.05Z"/><path class="cls-1" d="M35.44,0a1,1,0,0,1-.83.41H24.74l-.34,0a.82.82,0,0,1-.25-.07A.56.56,0,0,1,24,.21,1.41,1.41,0,0,1,23.82,0h-.09V2h.09a1.25,1.25,0,0,1,.47-1,2.07,2.07,0,0,1,1-.23H27v7a.85.85,0,0,1-.26.69,1,1,0,0,1-.62.22v.09H28.7V8.6a.82.82,0,0,1-.9-.91V.74h3.66v7a.85.85,0,0,1-.26.69,1,1,0,0,1-.63.22v.09h2.64V8.6a.82.82,0,0,1-.9-.91V.74H34A2.09,2.09,0,0,1,35,1,1.25,1.25,0,0,1,35.44,2h.09V0Z"/><path class="cls-1" d="M45.11,4.56a4.32,4.32,0,0,1-.58,2.16A4.28,4.28,0,0,1,43,8.31a4.18,4.18,0,0,1-2.2.6,4.31,4.31,0,0,1-2.23-.6,4.36,4.36,0,0,1-1.59-1.6,4.27,4.27,0,0,1-.58-2.19,4.31,4.31,0,0,1,.34-1.71,4.25,4.25,0,0,1,1-1.39A4.38,4.38,0,0,1,40.75.17a4.37,4.37,0,0,1,1.63.31,4.53,4.53,0,0,1,1.4.9,4.36,4.36,0,0,1,1.33,3.18Zm-1,0A4.89,4.89,0,0,0,43.53,2,3.06,3.06,0,0,0,42.18.74,3.69,3.69,0,0,0,40.75.43,3.58,3.58,0,0,0,39.66.6a3,3,0,0,0-1.09.62,3.37,3.37,0,0,0-.87,1.29,5.29,5.29,0,0,0-.35,2,5.5,5.5,0,0,0,.29,1.86,3.55,3.55,0,0,0,.78,1.3,3,3,0,0,0,1.09.72,3.54,3.54,0,0,0,1.25.22,3.78,3.78,0,0,0,1.17-.2A3,3,0,0,0,43,7.78a3.29,3.29,0,0,0,.8-1.26A5.3,5.3,0,0,0,44.12,4.58Z"/><path class="cls-1" d="M53.7,8.69H50.61V8.6h.11a.74.74,0,0,0,.54-.23.93.93,0,0,0,.23-.68V1.44a1,1,0,0,0-.21-.69.72.72,0,0,0-.57-.24h-.1V.41h2.7a3.1,3.1,0,0,1,1,.15,2.43,2.43,0,0,1,.76.43,1.89,1.89,0,0,1,.48.62,1.59,1.59,0,0,1,.17.75,1.6,1.6,0,0,1-.48,1.21,3,3,0,0,1-1.3.69v0a7,7,0,0,1,.71.12,2.27,2.27,0,0,1,.62.22,2,2,0,0,1,.52.36,2.21,2.21,0,0,1,.37.45,1.87,1.87,0,0,1,.23.52,2.32,2.32,0,0,1,.08.58,1.82,1.82,0,0,1-.34,1.12,2.35,2.35,0,0,1-.75.7A3.34,3.34,0,0,1,53.7,8.69ZM52.34,4.21h.54a2.3,2.3,0,0,0,.94-.14,2.36,2.36,0,0,0,.38-.24,1.62,1.62,0,0,0,.37-.5,1.67,1.67,0,0,0,.18-.81,2.08,2.08,0,0,0-.12-.71,1.82,1.82,0,0,0-.34-.59,1.68,1.68,0,0,0-.54-.41,1.64,1.64,0,0,0-.67-.14,2.7,2.7,0,0,0-.74.12Zm.85.25h-.85v3a1.75,1.75,0,0,0,.06.5.66.66,0,0,0,.32.35,1.89,1.89,0,0,0,.82.14,1.77,1.77,0,0,0,1.62-.75,2.16,2.16,0,0,0,.33-1.18,2.11,2.11,0,0,0-.16-.85A1.67,1.67,0,0,0,54.87,5a1.93,1.93,0,0,0-.72-.4A3,3,0,0,0,53.19,4.46Z"/><path class="cls-1" d="M57.55,8.6h.11a.75.75,0,0,0,.54-.24,1,1,0,0,0,.23-.67V1.44a.86.86,0,0,0-.26-.72,1,1,0,0,0-.62-.21V.41h2.64v.1a1,1,0,0,0-.62.2.86.86,0,0,0-.27.73v6a.9.9,0,0,0,.27.75,1.56,1.56,0,0,0,.89.2h.71a1.89,1.89,0,0,0,.74-.11A1,1,0,0,0,62.36,8a4.79,4.79,0,0,0,.33-.65h.09l-.31,1.36H57.55Z"/><path class="cls-1" d="M67.38.31,69.86,7.4a3.39,3.39,0,0,0,.37.8.92.92,0,0,0,.33.31A1.93,1.93,0,0,0,71,8.6v.09h-2.7V8.6a2.08,2.08,0,0,0,.64-.08c.15,0,.22-.2.22-.43a1.67,1.67,0,0,0-.1-.51.13.13,0,0,1,0-.07l-.73-2.19H65.4l-.65,2a2.35,2.35,0,0,0-.14.67.53.53,0,0,0,.17.46.9.9,0,0,0,.5.12v.09H63.34V8.6A1,1,0,0,0,64,8.28a2.47,2.47,0,0,0,.44-.85L66.77.31ZM65.5,5h2.63L66.79,1.09h0Z"/><path class="cls-1" d="M80.42.41v.1a1.46,1.46,0,0,0-.5.12.53.53,0,0,0-.28.32,1.8,1.8,0,0,0-.1.69V8.89h-.06L73.13,1.8V6.89a5.69,5.69,0,0,0,.05,1,1.13,1.13,0,0,0,.14.44.89.89,0,0,0,.73.32v.09H72V8.6a1,1,0,0,0,.55-.15A.79.79,0,0,0,72.79,8a4.62,4.62,0,0,0,.08-1V1.51L72.6,1.2A2.27,2.27,0,0,0,72,.67a1.82,1.82,0,0,0-.54-.16V.41H73l6.26,7V2.08a6.78,6.78,0,0,0,0-.9A.81.81,0,0,0,79,.7a1,1,0,0,0-.64-.19V.41Z"/><path class="cls-1" d="M89,2.26H88.9a1.75,1.75,0,0,0-.57-1A3,3,0,0,0,87.26.62,3.61,3.61,0,0,0,86.14.43a3.1,3.1,0,0,0-2.42,1.15A3.84,3.84,0,0,0,83,2.89a5.27,5.27,0,0,0-.25,1.67A5.18,5.18,0,0,0,83,6.17a3.54,3.54,0,0,0,.72,1.29,3,3,0,0,0,1.08.83,3.23,3.23,0,0,0,1.37.28,4.4,4.4,0,0,0,1.39-.25,3.7,3.7,0,0,0,1.36-.85v.32a7,7,0,0,1-1.37.85A3.91,3.91,0,0,1,86,8.91a4.29,4.29,0,0,1-1.78-.36,4,4,0,0,1-1.37-1A4.08,4.08,0,0,1,82,6.22a4.45,4.45,0,0,1,.31-3.81A4.52,4.52,0,0,1,83.93.77a4.29,4.29,0,0,1,2.21-.6,6,6,0,0,1,1.57.22l.58.16.29,0a.5.5,0,0,0,.29-.06A.38.38,0,0,0,89,.29h.09Z"/><path class="cls-1" d="M99.05,4.56a4.31,4.31,0,0,1-.57,2.16,4.35,4.35,0,0,1-1.57,1.59,4.21,4.21,0,0,1-2.21.6,4.39,4.39,0,0,1-3.81-2.2,4.27,4.27,0,0,1-.58-2.19,4.31,4.31,0,0,1,.34-1.71,4.1,4.1,0,0,1,1-1.39A4.44,4.44,0,0,1,93,.49,4.5,4.5,0,0,1,94.69.17a4.3,4.3,0,0,1,1.63.31,4.42,4.42,0,0,1,1.4.9,4.26,4.26,0,0,1,1.33,3.18Zm-1,0A4.9,4.9,0,0,0,97.48,2,3.06,3.06,0,0,0,96.13.74,3.78,3.78,0,0,0,94.69.43,3.47,3.47,0,0,0,93.61.6a2.94,2.94,0,0,0-1.09.62,3.38,3.38,0,0,0-.88,1.29,5.31,5.31,0,0,0-.34,2,5.51,5.51,0,0,0,.28,1.86,3.55,3.55,0,0,0,.78,1.3,3.17,3.17,0,0,0,1.1.72,3.49,3.49,0,0,0,1.24.22,3.8,3.8,0,0,0,1.18-.2A3.09,3.09,0,0,0,97,7.78a3.42,3.42,0,0,0,.8-1.26A5.53,5.53,0,0,0,98.06,4.58Z"/><path class="cls-1" d="M5.54,18a2.88,2.88,0,0,0-2.17-1,2.84,2.84,0,1,0,0,5.68,3,3,0,0,0,2.16-.95v.55A3.3,3.3,0,0,1,3.4,23a3.21,3.21,0,1,1,0-6.42,3.23,3.23,0,0,1,2.16.81Z"/><path class="cls-1" d="M14.11,16.67v6.24h-.43V16.67Z"/><path class="cls-1" d="M22.53,22.91l.74-6.45,2.79,5.77,2.79-5.77.73,6.45h-.43l-.57-5s-2.51,5.23-2.52,5.23L23.53,17.9l-.57,5Z"/><path class="cls-1" d="M41.24,20.86H38.5l-.86,2.05h-.47l2.72-6.42,2.67,6.42h-.47Zm-.16-.37-1.2-3-1.23,3Z"/><path class="cls-1" d="M51.18,17.05v5.86h-.43V17.05H49.08v-.38h3.77v.38Z"/><path class="cls-1" d="M63.43,20.86H60.69l-.86,2.05h-.46l2.71-6.42,2.67,6.42h-.46Zm-.15-.37-1.21-3-1.22,3Z"/><path class="cls-1" d="M75.21,22.91,73.13,20h-.19v2.95h-.43V16.67h.93A2.31,2.31,0,0,1,74.8,17a1.55,1.55,0,0,1,.67,1.34,1.49,1.49,0,0,1-1.09,1.51,2.53,2.53,0,0,1-.79.12l2.11,2.95Zm-2.27-3.32h.61c.92,0,1.47-.47,1.47-1.27a1.17,1.17,0,0,0-.57-1.09,2.49,2.49,0,0,0-1-.18h-.53Z"/><path class="cls-1" d="M84.21,16.67v6.24h-.43V16.67Z"/><path class="cls-1" d="M99,19.81a3.34,3.34,0,1,1-3.34-3.22A3.24,3.24,0,0,1,99,19.81Zm-.44,0a2.9,2.9,0,1,0-2.9,2.83A2.82,2.82,0,0,0,98.59,19.81Z"/><polygon class="cls-2" points="99.04 12.09 1.2 12.09 0.01 13.28 97.85 13.28 99.04 12.09"/></g></g></svg>