<svg xmlns="http://www.w3.org/2000/svg" viewBox="0 0 147.43 116.39"><defs><style>.cls-1{fill:#002856;}</style></defs><g id="Capa_2" data-name="Capa 2"><g id="Capa_1-2" data-name="Capa 1"><path class="cls-1" d="M97.58,36h-73a2.31,2.31,0,0,0-2.31,2.32v53.8a2.3,2.3,0,0,0,2.31,2.31H75a24.7,24.7,0,0,1-.47-2.88H69.86V82.67H75c.11-.52.24-1,.38-1.54H69.86V72.25h9.78c.38-.53.78-1,1.2-1.54h-11V61.83h12.8v6.91a27.16,27.16,0,0,1,2.27-2v-4.9h9.53a27.82,27.82,0,0,1,5.43-1V38.33A2.31,2.31,0,0,0,97.58,36ZM37.44,91.56H24.64V82.67h12.8Zm0-10.43H24.64V72.25h12.8Zm0-10.42H24.64V61.83h12.8Zm0-10.42H24.64V51.41h12.8ZM52.51,91.56H39.71V82.67h12.8Zm0-10.43H39.71V72.25h12.8Zm0-10.42H39.71V61.83h12.8Zm0-10.42H39.71V51.41h12.8ZM67.59,91.56H54.78V82.67H67.59Zm0-10.43H54.78V72.25H67.59Zm0-10.42H54.78V61.83H67.59Zm0-10.42H54.78V51.41H67.59Zm15.07,0H69.86V51.41h12.8ZM43.51,47.44v-7.7H96.05v7.7ZM97.73,60.29H84.93V51.41h12.8Z"/><rect class="cls-1" x="45.72" y="49.43" width="0.75" height="12.84" transform="translate(-26.07 61.87) rotate(-55.23)"/><rect class="cls-1" x="39.67" y="55.47" width="12.84" height="0.75" transform="translate(-23.61 36.23) rotate(-34.74)"/><rect class="cls-1" x="60.78" y="49.43" width="0.75" height="12.84" transform="translate(-19.6 74.24) rotate(-55.23)"/><rect class="cls-1" x="54.73" y="55.47" width="12.84" height="0.75" transform="translate(-20.92 44.81) rotate(-34.74)"/><rect class="cls-1" x="45.72" y="59.82" width="0.75" height="12.84" transform="translate(-34.61 66.34) rotate(-55.23)"/><rect class="cls-1" x="39.67" y="65.87" width="12.84" height="0.75" transform="translate(-29.54 38.08) rotate(-34.74)"/><rect class="cls-1" x="30.48" y="49.43" width="0.75" height="12.84" transform="matrix(0.57, -0.82, 0.82, 0.57, -32.62, 49.35)"/><rect class="cls-1" x="24.44" y="55.47" width="12.84" height="0.75" transform="translate(-26.33 27.54) rotate(-34.74)"/><rect class="cls-1" x="30.48" y="59.82" width="0.75" height="12.84" transform="matrix(0.57, -0.82, 0.82, 0.57, -41.16, 53.82)"/><rect class="cls-1" x="24.44" y="65.87" width="12.84" height="0.75" transform="translate(-32.25 29.4) rotate(-34.74)"/><rect class="cls-1" x="60.78" y="59.82" width="0.75" height="12.84" transform="translate(-28.14 78.71) rotate(-55.23)"/><rect class="cls-1" x="54.73" y="65.87" width="12.84" height="0.75" transform="translate(-26.85 46.66) rotate(-34.74)"/><rect class="cls-1" x="75.84" y="49.43" width="0.75" height="12.84" transform="translate(-13.12 86.61) rotate(-55.23)"/><rect class="cls-1" x="69.79" y="55.47" width="12.84" height="0.75" transform="translate(-18.24 53.39) rotate(-34.74)"/><rect class="cls-1" x="90.89" y="49.43" width="0.75" height="12.84" transform="translate(-6.65 98.98) rotate(-55.23)"/><rect class="cls-1" x="84.85" y="55.47" width="12.84" height="0.75" transform="translate(-15.55 61.97) rotate(-34.74)"/><path class="cls-1" d="M102.15,60.75c-.77,0-1.52,0-2.26.09a27.69,27.69,0,0,0-15,5.89,27.16,27.16,0,0,0-2.27,2,26,26,0,0,0-1.82,2c-.42.5-.82,1-1.2,1.54a27.56,27.56,0,0,0-4.27,8.88c-.14.51-.27,1-.38,1.54a28.25,28.25,0,0,0-.62,5.85,27.73,27.73,0,0,0,.17,3A24.7,24.7,0,0,0,75,94.44a27.77,27.77,0,1,0,27.14-33.69Zm0,50.23A22.39,22.39,0,0,1,79.9,91.56a23.39,23.39,0,0,1-.21-3,22.2,22.2,0,0,1,.78-5.85c.13-.52.29-1,.47-1.54a22.5,22.5,0,0,1,1.72-3.77,22.25,22.25,0,0,1,2.27-3.25,22,22,0,0,1,1.75-1.86c.57-.54,1.17-1.06,1.79-1.54a22.56,22.56,0,0,1,9.26-4.21c.71-.14,1.43-.24,2.16-.32s1.49-.11,2.26-.11a22.46,22.46,0,0,1,0,44.91Z"/><polygon class="cls-1" points="117.89 99.32 101.02 89.16 101.02 77.79 103.27 77.79 103.27 87.89 119.05 97.39 117.89 99.32"/><path class="cls-1" d="M20.5,116.39a68.22,68.22,0,1,1,106.44,0h6.87a73.72,73.72,0,1,0-120.19,0Z"/></g></g></svg>