<svg xmlns="http://www.w3.org/2000/svg" viewBox="0 0 147.31 116.29"><defs><style>.cls-1{fill:#002856;}</style></defs><g id="Capa_2" data-name="Capa 2"><g id="Capa_3" data-name="Capa 3"><path class="cls-1" d="M76,110.72A14.16,14.16,0,1,0,61.87,96.56,14.16,14.16,0,0,0,76,110.72Zm0-25.17a11,11,0,1,1-11,11A11,11,0,0,1,76,85.55Z"/><path class="cls-1" d="M72.88,99.71H69.73a4.72,4.72,0,0,0,4.72,4.71V106H77.6v-1.58a4.72,4.72,0,1,0,0-9.43V91.84a1.57,1.57,0,0,1,1.57,1.57h3.15A4.71,4.71,0,0,0,77.6,88.7V87.12H74.45V88.7a4.72,4.72,0,1,0,0,9.43v3.15A1.57,1.57,0,0,1,72.88,99.71Zm0-6.3a1.57,1.57,0,0,1,1.57-1.57V95A1.57,1.57,0,0,1,72.88,93.41Zm4.72,4.72a1.58,1.58,0,0,1,0,3.15Z"/><path class="cls-1" d="M115.35,68.25h-7.87V55.67L109.84,57a1.59,1.59,0,0,0,2.14-.56l4.72-7.86a1.58,1.58,0,0,0,.17-1.22,1.6,1.6,0,0,0-.76-1l-11.77-6.48v-11h1.57a1.57,1.57,0,0,0,1.57-1.58V22.64a1.57,1.57,0,0,0-1.57-1.58H90.18a1.57,1.57,0,0,0-1.57,1.58v4.71a1.57,1.57,0,0,0,1.57,1.58h1.57V33L70.49,21.26a1.58,1.58,0,0,0-1.52,0L23.36,46.42a1.6,1.6,0,0,0-.76,1,1.58,1.58,0,0,0,.17,1.22l4.72,7.86a1.57,1.57,0,0,0,2.14.56l3.93-2.27V99.71H30.41a1.57,1.57,0,0,0-1.57,1.57v7.86a1.57,1.57,0,0,0,1.57,1.58H44.57v3.14a1.57,1.57,0,0,0,1.57,1.57h59.77a1.57,1.57,0,0,0,1.57-1.57h3.15a1.57,1.57,0,0,0,1.57-1.57v-3.15h3.15a1.57,1.57,0,0,0,1.57-1.57V69.82A1.57,1.57,0,0,0,115.35,68.25Zm-23.6-44h12.59v1.57H91.75Zm3.15,4.72h6.29v9.26L94.9,34.72ZM29.39,53.53l-3.08-5.14,43.42-24,43.43,24-3.08,5.14L70.52,30.71a1.57,1.57,0,0,0-1.57,0Zm7.31-.59,33-19,34.61,20v14.4H50.86a1.57,1.57,0,0,0-1.57,1.57V73H47.71a1.57,1.57,0,0,0-1.57,1.57v3.15a1.57,1.57,0,0,0-1.57,1.57V99.71H36.7Zm67.64,32.41a6.32,6.32,0,0,1-4.52-4.52h4.52Zm-7.73-4.52a9.46,9.46,0,0,0,7.73,7.72v16a9.46,9.46,0,0,0-7.73,7.72H55.44a9.45,9.45,0,0,0-7.73-7.72v-16a9.45,9.45,0,0,0,7.73-7.72Zm-48.9,4.5v-4.5h4.5A6.31,6.31,0,0,1,47.71,85.33ZM32,107.57v-4.72H44.57v4.72Zm15.72.22a6.31,6.31,0,0,1,4.5,4.5h-4.5Zm56.63,4.5H99.82a6.29,6.29,0,0,1,4.52-4.52Zm4.72-1.57h-1.58V79.26a1.57,1.57,0,0,0-1.57-1.57H49.29V76.11h59.77Zm4.71-4.72H112.2V74.54A1.57,1.57,0,0,0,110.63,73H52.43V71.39h61.34Z"/><path class="cls-1" d="M61.87,62H77.6a1.57,1.57,0,0,0,1.57-1.58V44.66a1.57,1.57,0,0,0-1.57-1.58H61.87a1.57,1.57,0,0,0-1.57,1.58V60.38A1.57,1.57,0,0,0,61.87,62Zm1.57-7.87h4.72v4.72H63.44Zm7.87,4.72V54.09H76v4.72ZM76,51H71.31V46.23H76Zm-7.87-4.72V51H63.44V46.23Z"/><path class="cls-1" d="M20.48,116.29a68.18,68.18,0,1,1,106.35,0h6.87A73.65,73.65,0,1,0,0,73.66a73.28,73.28,0,0,0,13.61,42.63Z"/></g></g></svg>