<svg xmlns="http://www.w3.org/2000/svg" viewBox="0 0 147.31 116.29"><defs><style>.cls-1{fill:#002856;}</style></defs><g id="Capa_2" data-name="Capa 2"><g id="Capa_2-2" data-name="Capa 2"><path class="cls-1" d="M20.48,116.29a68.18,68.18,0,1,1,106.35,0h6.87A73.65,73.65,0,1,0,0,73.66a73.28,73.28,0,0,0,13.61,42.63Z"/><path class="cls-1" d="M27.09,115.87h46.2V113H28.51V32.66H66.92V44a1.42,1.42,0,0,0,1.42,1.43H79.72V81.6h2.84V44a.29.29,0,0,0,0-.09,1.15,1.15,0,0,0-.07-.36.78.78,0,0,0,0-.14,1.25,1.25,0,0,0-.28-.41L71.77,32.66H85.41V81.6h2.84V32.66H91.1V81.6h2.84V31.24a1.43,1.43,0,0,0-1.42-1.42H27.09a1.42,1.42,0,0,0-1.42,1.42v83.2A1.42,1.42,0,0,0,27.09,115.87ZM69.76,42.62V34.68l7.95,7.94Z"/><path class="cls-1" d="M71.22,92.77V77.87l2.18,1.35A1.48,1.48,0,0,0,75.66,78V72a1.5,1.5,0,0,0-.7-1.27l-5.22-3.21V60.19a1.48,1.48,0,0,0-1.48-1.48H62.33a1.48,1.48,0,0,0-1.48,1.48V62.1l-5.14-3.17a1.49,1.49,0,0,0-1.55,0L34.91,70.77A1.49,1.49,0,0,0,34.2,72V78a1.48,1.48,0,0,0,2.26,1.26l2.18-1.35v14.9a1.49,1.49,0,0,0,1.48,1.48H69.74A1.48,1.48,0,0,0,71.22,92.77Zm-7.4-31.1h3v4.07l-3-1.82ZM37.16,72.86,54.93,61.93,72.7,72.86v2.45l-17-10.46a1.49,1.49,0,0,0-1.55,0l-17,10.46ZM52,91.28V82.4h5.92v8.88Zm8.88,0V80.92a1.48,1.48,0,0,0-1.48-1.48H50.49A1.48,1.48,0,0,0,49,80.92V91.28h-7.4V76.05l13.32-8.2,13.33,8.2V91.28Z"/><path class="cls-1" d="M34.2,36.93H52.69v2.85H34.2Z"/><path class="cls-1" d="M34.2,42.62H64.07v2.85H34.2Z"/><path class="cls-1" d="M34.2,49.19H75.44V52H34.2Z"/><path class="cls-1" d="M34.2,98.8H76l-.57,2.84H34.2Z"/><path class="cls-1" d="M34.2,104.49h8.54v2.84H34.2Z"/><path class="cls-1" d="M45.58,104.49H74.86l-.51,2.84H45.58Z"/><path class="cls-1" d="M55.54,36.93h8.53v2.85H55.54Z"/><path class="cls-1" d="M82,89.4h3.09l5.82,13.92L97,89.4h3.09l3.68,21.91H99.43l-2-13.5-5.88,13.5H90.14l-5.62-13.5-2.23,13.5H78Z"/><path class="cls-1" d="M115.39,94.39a4.27,4.27,0,0,0-3.58-1.87c-2.3,0-3,1.44-3,2.56a1.86,1.86,0,0,0,.69,1.48,7.7,7.7,0,0,0,2.63,1.25,12.6,12.6,0,0,1,4.43,2.2,5.93,5.93,0,0,1,1.88,4.6c0,4.27-3.09,7.19-7.62,7.19a9,9,0,0,1-7.56-4.14L106,105a5.15,5.15,0,0,0,4.6,2.92,3.07,3.07,0,0,0,3.38-3,2.54,2.54,0,0,0-.85-2,9.74,9.74,0,0,0-3.38-1.61,10.59,10.59,0,0,1-3.65-1.9,5.12,5.12,0,0,1-1.74-4.08c0-3.22,2.17-6.43,7-6.43a8.43,8.43,0,0,1,6.21,2.56Z"/><path class="cls-1" d="M123.41,89.4v21.91h-4.27V89.4Z"/><rect class="cls-1" x="77.79" y="113.03" width="45.55" height="2.97"/><rect class="cls-1" x="77.79" y="84.78" width="45.55" height="2.97"/></g></g></svg>