<svg xmlns="http://www.w3.org/2000/svg" viewBox="0 0 147.43 116.39"><defs><style>.cls-1{fill:#002856;}</style></defs><g id="Capa_2" data-name="Capa 2"><g id="Capa_4" data-name="Capa 4"><path class="cls-1" d="M72.56,60.61A20.13,20.13,0,1,0,92.68,80.73,20.12,20.12,0,0,0,72.56,60.61Zm0,35.77A15.65,15.65,0,1,1,88.21,80.73,15.65,15.65,0,0,1,72.56,96.38Z"/><path class="cls-1" d="M77.44,76.42h4.47a6.7,6.7,0,0,0-6.71-6.7V67.48H70.73v2.24a6.71,6.71,0,1,0,0,13.41v4.48a2.25,2.25,0,0,1-2.24-2.24H64a6.72,6.72,0,0,0,6.71,6.71v2.23H75.2V92.08a6.71,6.71,0,0,0,0-13.42V74.19A2.23,2.23,0,0,1,77.44,76.42Zm-6.71,2.24a2.24,2.24,0,1,1,0-4.47Zm6.71,6.71a2.24,2.24,0,0,1-2.24,2.24V83.13A2.24,2.24,0,0,1,77.44,85.37Z"/><path class="cls-1" d="M125.27,40.47H33.61a2.25,2.25,0,0,0-2.25,2.25v4.47H29.13a2.25,2.25,0,0,0-2.25,2.23V53.9a2.23,2.23,0,0,0-2.22,2.22v49.21a2.22,2.22,0,0,0,2.22,2.23h85a2.21,2.21,0,0,0,2.22-2.23h4.48a2.25,2.25,0,0,0,2.25-2.23V98.63h4.45a2.25,2.25,0,0,0,2.25-2.25V42.72A2.25,2.25,0,0,0,125.27,40.47ZM29.13,58.37h6.39a8.88,8.88,0,0,1-6.39,6.39Zm0,44.73V96.69a9,9,0,0,1,6.39,6.41Zm80.49,0h-6.43a9,9,0,0,1,6.43-6.43Zm0-11a13.39,13.39,0,0,0-11,11H40.11a13.42,13.42,0,0,0-11-11V69.35a13.43,13.43,0,0,0,11-11H98.66a13.4,13.4,0,0,0,11,11Zm0-27.34a9,9,0,0,1-6.43-6.41h6.43Zm6.72,36.07h-2.25V56.12a2.21,2.21,0,0,0-2.22-2.22H31.36V51.67h85Zm6.7-6.7h-2.22V49.42a2.25,2.25,0,0,0-2.25-2.23H35.83V45H123Z"/><path class="cls-1" d="M20.5,116.39a68.22,68.22,0,1,1,106.44,0h6.87a73.72,73.72,0,1,0-120.19,0Z"/></g></g></svg>