<svg xmlns="http://www.w3.org/2000/svg" viewBox="0 0 1921.74 476.04"><defs><style>.cls-1{fill:#fae0d0;}.cls-2{fill:none;stroke:#e69e6c;stroke-miterlimit:10;stroke-width:4px;}</style></defs><g id="Capa_2" data-name="Capa 2"><g id="Capa_1-2" data-name="Capa 1"><path class="cls-1" d="M1921.38,6.1V476H1.38V48.28a552.48,552.48,0,0,0,383.76,154A552.43,552.43,0,0,0,736.57,77c.49-.4,6.81-5.65,9.44-7.91a300.67,300.67,0,0,1,380.21,1.34c3.46,3.27,11.52,10.19,17.36,15.87a486.38,486.38,0,0,0,315.53,116A483.69,483.69,0,0,0,1777.74,83.33c4.17-4.39,15.81-14.22,23.35-21.71A261.3,261.3,0,0,1,1921.38,6.1Z"/><path class="cls-2" d="M1.38,48.28a552.48,552.48,0,0,0,383.76,154A552.43,552.43,0,0,0,736.57,77c.49-.4,6.81-5.65,9.44-7.91a300.67,300.67,0,0,1,380.21,1.34c3.46,3.27,11.52,10.19,17.36,15.87a486.38,486.38,0,0,0,315.53,116A483.69,483.69,0,0,0,1777.74,83.33c4.17-4.39,15.81-14.22,23.35-21.71A261.3,261.3,0,0,1,1921.38,6.1"/></g></g></svg>