<?xml version="1.0" encoding="utf-8"?>
<!-- Generator: Adobe Illustrator 24.3.0, SVG Export Plug-In . SVG Version: 6.00 Build 0)  -->
<svg version="1.1" id="Capa_1" xmlns="http://www.w3.org/2000/svg" xmlns:xlink="http://www.w3.org/1999/xlink" x="0px" y="0px"
	 viewBox="0 0 295.4 62.7" style="enable-background:new 0 0 295.4 62.7;" xml:space="preserve">
<style type="text/css">
	.st0{fill:#002856;}
	.st1{enable-background:new    ;}
</style>
<g id="Capa_2_1_">
	<g id="Capa_1-2">
		<path class="st0" d="M40.3,50.3c-1.9,0-3.7,0-5.6,0c-0.7,0.1-1.3-0.3-1.6-0.9c-1.6-2.8-3.2-5.6-4.9-8.4c-0.4-0.5-0.4-1.3,0-1.8
			c2.7-4.5,8.5-5.9,13-3.2c0.4,0.3,0.8,0.6,1.2,0.9c0.6,0.6,1.4,0.8,2.2,0.8c1.3,0,2.7,0,4,0c1.5,0,2.3,0.7,2.3,2s-0.7,1.8-2.2,1.8
			c-2.2,0-4.4,0-6.6,0c-1,0-2,0.2-2.1,1.5s1,1.5,2,1.5c2.5,0,5,0,7.4,0c0.6,0,1.2-0.3,1.7-0.7l9-6.4c1.3-0.9,2.4-0.9,3.1,0.1
			s0.5,2-0.9,3c-3.7,2.7-7.4,5.4-11.1,8c-1.8,1.2-3.9,1.9-6.1,1.8L40.3,50.3L40.3,50.3z"/>
		<path class="st0" d="M23.5,57.7c-0.7,0.1-1.3-0.4-1.6-1c-2.1-3.7-4.3-7.4-6.4-11.1c-0.5-0.7-0.4-1.6,0.2-2.2
			c0.1-0.1,0.2-0.2,0.4-0.2c2-1.2,4.1-2.3,6.1-3.5c0.7-0.5,1.6-0.4,2.1,0.3c0.1,0.1,0.1,0.2,0.2,0.3c2.2,3.8,4.4,7.6,6.6,11.4
			c0.5,0.6,0.4,1.5-0.3,2c-0.1,0.1-0.1,0.1-0.2,0.1c-2.2,1.3-4.4,2.6-6.6,3.8C23.8,57.6,23.7,57.6,23.5,57.7z"/>
		<path class="st0" d="M56.8,21.9c1.7-2.7,1-6.3-1.7-8c-1.9-1.2-4.3-1.2-6.3,0c-2.4,1.5-3.3,4.6-2.2,7.2c0.1,0.2,0.1,0.4-0.1,0.5
			c-1.2,1.2-2.4,2.5-3.6,3.7L39.4,29c-0.5,0.5-0.6,1.3-0.1,1.8c0,0,0,0,0,0c0.3,0.4,0.6,0.7,1,1c0.7,0.5,1.3,0.6,2.5-0.8
			c0.2-0.2,0.2-0.2-0.5-0.9c-0.2-0.2-0.2-0.3,0-0.4s0.6-0.6,0.9-0.9s0.4-0.7,0.7-0.6s0.5,0.4,0.7,0.6s0.2,0.2,0.4,0s0.6-0.6,0.9-0.9
			s0.6-0.5,0.6-0.7s-0.4-0.5-0.6-0.7l0,0c0,0-0.2-0.2,0-0.4c0.5-0.5,1-1,1.5-1.5c0.1-0.1,0.2-0.1,0.3,0s0.5,0.7,0.8,0.6
			s0.5-0.5,0.8-0.7l0.1-0.1c0.2-0.2,0.3-0.3,0.6-0.1C52.4,25.2,55.3,24.2,56.8,21.9z M51.5,19.2c-0.8-0.8-0.7-2,0-2.7
			c0.8-0.8,2-0.7,2.7,0c0.7,0.8,0.7,2,0,2.7C53.5,19.9,52.3,19.9,51.5,19.2C51.5,19.2,51.5,19.2,51.5,19.2z"/>
		<path class="st0" d="M36.5,0C16.4,0,0,16.3,0,36.5c0,7.6,2.4,15,6.7,21.2h3.4c-11.7-14.6-9.4-35.8,5.2-47.5s35.8-9.4,47.5,5.2
			c9.9,12.4,9.9,30,0,42.3h3.4C78,41.2,74.1,18.4,57.7,6.7C51.5,2.4,44.1,0,36.5,0z"/>
		<g class="st1">
			<path class="st0" d="M102.4,23.2h-7.5l-2.1,5h-2.2l8.1-18.5l7.9,18.5h-2.2L102.4,23.2z M101.6,21.3l-3-7.1l-3,7.1H101.6z"/>
			<path class="st0" d="M118.1,8.9h1.9v19.3h-1.9v-1.5c-0.6,0.8-1.8,1.8-3.8,1.8c-2.8,0-5.3-2-5.3-5.8c0-3.8,2.5-5.7,5.3-5.7
				c2.1,0,3.2,1.2,3.8,1.8V8.9z M111,22.7c0,2.4,1.3,4.1,3.6,4.1c2.3,0,3.6-1.9,3.6-4.1c0-2.8-2-4.1-3.6-4.1
				C112.7,18.6,111,20,111,22.7z"/>
			<path class="st0" d="M124.6,17.2h1.9v1.2c0.6-0.9,1.6-1.4,2.7-1.4c2,0,2.8,1.4,3,1.8c1.1-1.7,2.6-1.8,3.3-1.8
				c3.2,0,3.6,2.7,3.6,4.3v6.9h-1.9v-6.7c0-1.2-0.2-2.9-2-2.9c-2.2,0-2.4,2.1-2.4,3.4v6.1h-1.9v-6.5c0-0.8,0-3-2-3
				c-2.2,0-2.4,2.2-2.4,3.6v6h-1.9V17.2z"/>
			<path class="st0" d="M144.8,11.7c0.7,0,1.3,0.6,1.3,1.3s-0.6,1.3-1.3,1.3c-0.7,0-1.3-0.6-1.3-1.3S144,11.7,144.8,11.7z
				 M145.7,17.2v11h-1.9v-11H145.7z"/>
			<path class="st0" d="M150.4,17.2h1.9v1.3c0.3-0.4,1.3-1.5,3.1-1.5c1.3,0,2.5,0.5,3.1,1.5c0.6,0.8,0.6,1.7,0.6,2.9v6.8h-1.9v-6.7
				c0-0.7-0.1-1.4-0.5-2c-0.4-0.5-1-0.8-1.8-0.8c-0.7,0-1.4,0.2-1.9,0.8c-0.7,0.9-0.8,2.2-0.8,3v5.7h-1.9V17.2z"/>
			<path class="st0" d="M164.8,11.7c0.7,0,1.3,0.6,1.3,1.3s-0.6,1.3-1.3,1.3s-1.3-0.6-1.3-1.3S164,11.7,164.8,11.7z M165.7,17.2v11
				h-1.9v-11H165.7z"/>
			<path class="st0" d="M174.9,19.7c-0.3-0.6-0.8-1.1-1.5-1.1c-0.7,0-1.3,0.4-1.3,1.2c0,0.8,0.5,1,1.8,1.6c1.6,0.7,2.3,1.2,2.7,1.7
				c0.5,0.6,0.6,1.2,0.6,1.8c0,2.3-1.7,3.6-3.8,3.6c-0.4,0-2.9-0.1-3.8-2.8l1.6-0.7c0.2,0.6,0.8,1.8,2.2,1.8c1.2,0,1.8-0.9,1.8-1.7
				c0-1-0.7-1.4-1.8-1.8c-1.3-0.6-2.2-1-2.7-1.6c-0.4-0.5-0.5-1.1-0.5-1.6c0-1.9,1.3-3.1,3.2-3.1c0.6,0,2.1,0.1,3,2L174.9,19.7z"/>
			<path class="st0" d="M182.7,18.9v9.2h-1.9v-9.2h-1.2v-1.7h1.2v-4h1.9v4h1.9v1.7H182.7z"/>
		</g>
		<g class="st1">
			<path class="st0" d="M187.7,17.2h1.9v1.2c0.2-0.3,1-1.5,2.5-1.5c0.6,0,1.2,0.2,1.7,0.4l-0.9,1.7c-0.4-0.3-0.8-0.4-1.1-0.4
				c-0.8,0-1.2,0.3-1.5,0.7c-0.3,0.4-0.6,1.2-0.6,3v5.8h-1.9V17.2z"/>
		</g>
		<g class="st1">
			<path class="st0" d="M204.4,17.2h1.9v11h-1.9v-1.5c-0.6,0.8-1.8,1.8-3.8,1.8c-2.8,0-5.3-2-5.3-5.8c0-3.8,2.5-5.7,5.3-5.7
				c2.1,0,3.2,1.2,3.8,1.8V17.2z M197.3,22.7c0,2.4,1.3,4.1,3.6,4.1c2.3,0,3.6-1.9,3.6-4.1c0-2.8-2-4.1-3.6-4.1
				C199,18.6,197.3,20,197.3,22.7z"/>
			<path class="st0" d="M219.5,20.3c-1-1.3-2.5-1.6-3.4-1.6c-2,0-3.9,1.4-3.9,4.1c0,2.7,1.9,4.1,3.9,4.1c1.1,0,2.5-0.5,3.5-1.7v2.3
				c-1.2,0.9-2.5,1.1-3.5,1.1c-3.4,0-5.9-2.4-5.9-5.7c0-3.4,2.5-5.8,5.9-5.8c1.7,0,2.9,0.7,3.4,1.1V20.3z"/>
			<path class="st0" d="M224.5,11.7c0.7,0,1.3,0.6,1.3,1.3s-0.6,1.3-1.3,1.3c-0.7,0-1.3-0.6-1.3-1.3S223.8,11.7,224.5,11.7z
				 M225.5,17.2v11h-1.9v-11H225.5z"/>
			<path class="st0" d="M229.5,22.7c0-3.3,2.5-5.8,5.8-5.8c3.4,0,5.8,2.5,5.8,5.8s-2.5,5.8-5.8,5.8C231.9,28.5,229.5,26,229.5,22.7z
				 M231.4,22.7c0,2.7,1.9,4.1,3.9,4.1c2,0,3.9-1.4,3.9-4.1c0-2.7-1.8-4.1-3.9-4.1C233.3,18.6,231.4,20,231.4,22.7z M238.9,11.5
				l-3.5,3.6l-1.2-0.6l2.8-3.8L238.9,11.5z"/>
			<path class="st0" d="M245,17.2h1.9v1.3c0.3-0.4,1.3-1.5,3.1-1.5c1.3,0,2.5,0.5,3.1,1.5c0.6,0.8,0.6,1.7,0.6,2.9v6.8H252v-6.7
				c0-0.7-0.1-1.4-0.5-2c-0.4-0.5-1-0.8-1.8-0.8c-0.7,0-1.4,0.2-1.9,0.8c-0.7,0.9-0.8,2.2-0.8,3v5.7H245V17.2z"/>
		</g>
		<g class="st1">
			<path class="st0" d="M100.6,36.9h1.9v19.3h-1.9v-1.5c-0.6,0.8-1.8,1.8-3.8,1.8c-2.8,0-5.3-2-5.3-5.8c0-3.8,2.5-5.7,5.3-5.7
				c2.1,0,3.2,1.2,3.8,1.8V36.9z M93.5,50.6c0,2.4,1.3,4.1,3.6,4.1c2.3,0,3.6-1.9,3.6-4.1c0-2.8-2-4.1-3.6-4.1
				C95.2,46.6,93.5,48,93.5,50.6z"/>
			<path class="st0" d="M116.9,53.3c-0.3,0.6-0.8,1.3-1.3,1.8c-1,0.9-2.2,1.3-3.6,1.3c-2.6,0-5.4-1.7-5.4-5.7c0-3.3,2-5.8,5.3-5.8
				c2.1,0,3.5,1.1,4.1,2c0.7,1,1.1,2.7,1,4.1h-8.5c0,2.3,1.6,3.7,3.5,3.7c0.9,0,1.6-0.3,2.2-0.8c0.5-0.4,0.9-1,1.1-1.5L116.9,53.3z
				 M115,49.4c-0.3-1.7-1.6-2.9-3.2-2.9c-1.6,0-2.9,1.2-3.2,2.9H115z"/>
			<path class="st0" d="M122.8,36.9v19.3h-1.9V36.9H122.8z"/>
			<path class="st0" d="M148.6,42.4c-0.6-0.6-1.4-1.2-2.3-1.6c-0.9-0.4-2-0.7-3-0.7c-4.1,0-7.1,3.3-7.1,7.3c0,4.8,3.9,7.2,7.1,7.2
				c1.2,0,2.4-0.3,3.3-0.8c1-0.5,1.7-1.2,2-1.5v2.4c-2,1.4-4,1.7-5.3,1.7c-5.2,0-9.1-4-9.1-9.1c0-5.3,3.9-9.2,9.2-9.2
				c1.1,0,3.1,0.1,5.2,1.7V42.4z"/>
			<path class="st0" d="M152.1,50.7c0-3.3,2.5-5.8,5.8-5.8c3.4,0,5.8,2.5,5.8,5.8s-2.5,5.8-5.8,5.8C154.6,56.4,152.1,54,152.1,50.7z
				 M154.1,50.7c0,2.7,1.9,4.1,3.9,4.1c2,0,3.9-1.4,3.9-4.1c0-2.7-1.8-4.1-3.9-4.1C155.9,46.6,154.1,48,154.1,50.7z"/>
			<path class="st0" d="M167.7,45.2h1.9v1.3c0.3-0.4,1.3-1.5,3.1-1.5c1.3,0,2.5,0.5,3.1,1.5c0.6,0.8,0.6,1.7,0.6,2.9v6.8h-1.9v-6.7
				c0-0.7-0.1-1.4-0.5-2c-0.4-0.5-1-0.8-1.8-0.8c-0.7,0-1.4,0.2-1.9,0.8c-0.7,0.9-0.8,2.2-0.8,3v5.7h-1.9V45.2z"/>
			<path class="st0" d="M189.6,36.9h1.9v19.3h-1.9v-1.5c-0.6,0.8-1.8,1.8-3.8,1.8c-2.8,0-5.3-2-5.3-5.8c0-3.8,2.5-5.7,5.3-5.7
				c2.1,0,3.2,1.2,3.8,1.8V36.9z M182.5,50.6c0,2.4,1.3,4.1,3.6,4.1c2.3,0,3.6-1.9,3.6-4.1c0-2.8-2-4.1-3.6-4.1
				C184.2,46.6,182.5,48,182.5,50.6z"/>
			<path class="st0" d="M195.5,50.7c0-3.3,2.5-5.8,5.8-5.8s5.8,2.5,5.8,5.8s-2.5,5.8-5.8,5.8S195.5,54,195.5,50.7z M197.4,50.7
				c0,2.7,1.9,4.1,3.9,4.1c2,0,3.9-1.4,3.9-4.1c0-2.7-1.8-4.1-3.9-4.1S197.4,48,197.4,50.7z"/>
			<path class="st0" d="M211,45.2h1.9v1.2c0.6-0.9,1.6-1.4,2.7-1.4c2,0,2.8,1.4,3,1.8c1.1-1.7,2.6-1.8,3.3-1.8
				c3.2,0,3.6,2.7,3.6,4.3v6.9h-1.9v-6.7c0-1.2-0.2-2.9-2-2.9c-2.2,0-2.4,2.1-2.4,3.4v6.1h-1.9v-6.5c0-0.8,0-3-2-3
				c-2.2,0-2.4,2.2-2.4,3.6v6H211V45.2z"/>
			<path class="st0" d="M231.1,39.7c0.7,0,1.3,0.6,1.3,1.3s-0.6,1.3-1.3,1.3s-1.3-0.6-1.3-1.3S230.4,39.7,231.1,39.7z M232.1,45.2
				v11h-1.9v-11H232.1z"/>
			<path class="st0" d="M236.7,45.2h1.9v1.3c0.3-0.4,1.3-1.5,3.1-1.5c1.3,0,2.5,0.5,3.1,1.5c0.6,0.8,0.6,1.7,0.6,2.9v6.8h-1.9v-6.7
				c0-0.7-0.1-1.4-0.5-2c-0.4-0.5-1-0.8-1.8-0.8c-0.7,0-1.4,0.2-1.9,0.8c-0.7,0.9-0.8,2.2-0.8,3v5.7h-1.9V45.2z"/>
			<path class="st0" d="M251.2,39.7c0.7,0,1.3,0.6,1.3,1.3s-0.6,1.3-1.3,1.3c-0.7,0-1.3-0.6-1.3-1.3S250.4,39.7,251.2,39.7z
				 M252.1,45.2v11h-1.9v-11H252.1z"/>
			<path class="st0" d="M256.1,50.7c0-3.3,2.5-5.8,5.8-5.8s5.8,2.5,5.8,5.8s-2.5,5.8-5.8,5.8S256.1,54,256.1,50.7z M258,50.7
				c0,2.7,1.9,4.1,3.9,4.1c2,0,3.9-1.4,3.9-4.1c0-2.7-1.8-4.1-3.9-4.1S258,48,258,50.7z"/>
		</g>
	</g>
</g>
</svg>
