<svg xmlns="http://www.w3.org/2000/svg" viewBox="0 0 303.93 62.25"><defs><style>.cls-1{font-size:26.42px;font-family:FuturaPT-Book, Futura PT;letter-spacing:0.04em;}.cls-1,.cls-2{fill:#002856;}</style></defs><g id="Capa_2" data-name="Capa 2"><g id="Capa_1-2" data-name="Capa 1"><text class="cls-1" transform="translate(94.96 55.64)">de Agua</text><text class="cls-1" transform="translate(94.96 33.08)">Auto Abasto</text><path class="cls-2" d="M36.53,0A36.52,36.52,0,0,0,6.75,57.67h3.41a33.81,33.81,0,1,1,52.74,0h3.41A36.52,36.52,0,0,0,36.53,0Z"/><path class="cls-2" d="M36.61,13.48c-1.94,0-16.54,19.08-16.54,28.21a16.54,16.54,0,0,0,33.08,0C53.15,32.56,38.65,13.48,36.61,13.48Zm-4,12.43A30.46,30.46,0,0,0,30,31.22,64.15,64.15,0,0,0,28,38.15c-.38,1.48-.72,3-1.17,4.42a2.37,2.37,0,0,1-2.24,1.84.93.93,0,0,1-1-.75,13.93,13.93,0,0,1-.27-3,21.69,21.69,0,0,1,1.17-5.07,20.25,20.25,0,0,1,2.32-4.74,44.73,44.73,0,0,1,4.32-5.11,9.9,9.9,0,0,1,1.26-1.16c.3-.23.44-.16.48.22A1.65,1.65,0,0,1,32.58,25.91Z"/></g></g></svg>