<?xml version="1.0" encoding="utf-8"?>
<!-- Generator: Adobe Illustrator 24.3.0, SVG Export Plug-In . SVG Version: 6.00 Build 0)  -->
<svg version="1.1" id="Capa_1" xmlns="http://www.w3.org/2000/svg" xmlns:xlink="http://www.w3.org/1999/xlink" x="0px" y="0px"
	 viewBox="0 0 291 304" style="enable-background:new 0 0 291 304;" xml:space="preserve">
<style type="text/css">
	.st0{fill:#E69E6C;}
	.st1{fill:#FFFFFF;}
	.st2{fill:#002856;}
	.st3{fill:#09A2CA;}
</style>
<g>
	<g>
		<image style="overflow:visible;" width="291" height="313" xlink:href="A4CD85C2.png"  transform="matrix(1 0 0 1 0 -3)">
		</image>
	</g>
</g>
<g id="Capa_2_1_">
	<g id="Capa_1-2">
		<g id="Capa_2-2">
			<g id="diseño">
				<polygon class="st0" points="245.1,235.8 145.6,262.2 46.2,235.8 46.2,43.7 245.1,43.7 				"/>
				<polygon class="st1" points="254.6,218.9 145.6,247.8 36.7,218.9 36.7,8.4 254.6,8.4 				"/>
			</g>
		</g>
		<path class="st2" d="M144.9,60.6l58.6,58.6l-41.3,41.3l-15.8-15.8l2.4-2.4l12.9,12.9l0.5,0.5l0.5-0.5l35.5-35.5l0.5-0.5l-0.5-0.5
			l-52.8-52.8l-0.5-0.5l-0.5,0.5L110,100.2l-2.4-2.4L144.9,60.6"/>
		<path class="st2" d="M102.1,103.3l2.4,2.4l-13,13l-0.5,0.5l0.5,0.5l35.5,35.4l0.5,0.5l0.5-0.5l51.8-51.8l2.4,2.4l-54.7,54.7
			l-41.3-41.3L102.1,103.3z"/>
		<path class="st2" d="M144.9,43.3l49.9,49.9l-7.1,7.1l-2.4-2.4l4.2-4.2l0.5-0.5l-0.5-0.5l-44.1-44.1l-0.5-0.5l-0.5,0.5l-44.1,44.1
			l-0.5,0.5l0.5,0.5l43,43l-2.4,2.4L95.1,93.2L144.9,43.3"/>
		<path class="st2" d="M144.9,78l6.6,6.6l-6.6,6.7l-6.6-6.6L144.9,78"/>
		<polygon class="st3" points="239.2,192.2 52.9,192.2 50.7,194.5 237,194.5 		"/>
		<path class="st2" d="M50.6,170.2V170h5.2c0.8,0,1.5,0.1,2.3,0.4c0.6,0.2,1.2,0.6,1.7,1c0.4,0.4,0.8,0.9,1,1.4
			c0.2,0.5,0.3,1,0.3,1.6c0,0.5-0.1,1.1-0.3,1.6c-0.2,0.5-0.6,1-1,1.4c-0.5,0.4-1.1,0.8-1.7,0.9c-0.8,0.2-1.6,0.4-2.4,0.4
			c-0.3,0-0.9,0-1.7-0.1v5.4c-0.1,0.8,0.5,1.6,1.3,1.7c0.1,0,0.2,0,0.4,0v0.2h-5v-0.2c0.4,0,0.9-0.1,1.2-0.4
			c0.3-0.3,0.5-0.8,0.5-1.3v-11.9c0-0.3-0.1-0.6-0.2-0.9c-0.1-0.2-0.2-0.4-0.4-0.5c-0.2-0.1-0.3-0.2-0.5-0.2l-0.4-0.1H50.6z
			 M53.9,170.5v7.5c0.5,0.1,1.1,0.1,1.6,0.1c0.9,0,1.8-0.3,2.6-0.8c0.8-0.7,1.2-1.8,1.1-2.9c0-1-0.3-2.1-0.9-2.9
			c-0.7-0.8-1.8-1.2-2.8-1.1C54.9,170.4,54.4,170.5,53.9,170.5L53.9,170.5z"/>
		<path class="st2" d="M80.1,177.9c0,1.4-0.4,2.9-1.1,4.1c-0.7,1.2-1.8,2.3-3,3c-1.3,0.8-2.7,1.1-4.2,1.1c-4.6,0-8.4-3.7-8.4-8.3
			c0-1.1,0.2-2.2,0.7-3.3c0.4-1,1.1-1.9,1.8-2.7c0.8-0.8,1.7-1.3,2.7-1.8c1-0.4,2.1-0.6,3.2-0.6c2.2,0,4.2,0.8,5.8,2.3
			c0.8,0.8,1.4,1.7,1.9,2.7C79.9,175.6,80.1,176.7,80.1,177.9z M78.2,177.9c0.1-1.7-0.3-3.4-1.1-4.9c-0.6-1-1.5-1.9-2.6-2.4
			c-0.9-0.4-1.8-0.6-2.7-0.6c-0.7,0-1.4,0.1-2.1,0.3c-0.8,0.3-1.5,0.7-2.1,1.2c-0.7,0.7-1.3,1.5-1.6,2.5c-0.5,1.2-0.7,2.6-0.7,3.9
			c0,1.2,0.2,2.4,0.6,3.6c0.3,0.9,0.8,1.8,1.5,2.5c0.6,0.6,1.3,1.1,2.1,1.4c1.5,0.5,3.1,0.5,4.6,0c0.8-0.3,1.5-0.7,2-1.3
			c0.7-0.7,1.2-1.5,1.5-2.4C78,180.4,78.2,179.2,78.2,177.9L78.2,177.9z"/>
		<path class="st2" d="M82.8,170.2h-0.2V170h5.4c0.8,0,1.5,0.1,2.2,0.4c0.5,0.2,1,0.6,1.4,1c0.3,0.4,0.6,0.8,0.7,1.3
			c0.1,0.4,0.2,0.9,0.2,1.4c0,0.6-0.1,1.1-0.4,1.6c-0.3,0.5-0.6,1-1.1,1.4c-0.5,0.4-1.2,0.7-1.8,0.8l0,0c1.1,0.6,2.1,1.6,2.7,2.8
			l1.4,2.4c0.4,0.8,0.9,1.4,1.6,2c0.3,0.3,0.7,0.4,1.2,0.5v0.2h-2.9l-0.3-0.5l-0.3-0.5l-0.3-0.5c-0.1-0.1-0.1-0.2-0.2-0.3l-1.9-3.1
			c-0.3-0.6-0.7-1.1-1.2-1.6c-0.3-0.3-0.7-0.6-1.1-0.9c-0.3-0.2-0.6-0.3-0.9-0.3c-0.3,0-0.7-0.1-1-0.1v5.8c-0.1,0.8,0.5,1.6,1.3,1.7
			c0.1,0,0.2,0,0.4,0v0.2h-5v-0.2c0.3,0,0.6-0.1,0.8-0.2c0.3-0.1,0.5-0.3,0.6-0.5c0.2-0.3,0.3-0.7,0.2-1v-12c0.1-0.5-0.1-1-0.5-1.3
			C83.6,170.4,83.2,170.2,82.8,170.2z M85.9,177.7h0.9c0.8,0,1.6-0.1,2.3-0.4c0.6-0.2,1-0.6,1.3-1.2c0.3-0.6,0.4-1.2,0.4-1.9
			c0-0.6-0.1-1.2-0.4-1.8c-0.3-0.6-0.7-1.1-1.2-1.5c-0.7-0.4-1.5-0.6-2.3-0.6c-0.3,0-0.7,0-1,0.1L85.9,177.7z"/>
		<path class="st2" d="M118.1,169.2c-0.4,0.5-1,0.8-1.6,0.8H97.7c-0.2,0-0.4,0-0.7,0c-0.2,0-0.3-0.1-0.5-0.1c-0.1,0-0.2-0.1-0.3-0.2
			c-0.1-0.1-0.2-0.3-0.3-0.4h-0.2v3.9H96c0-0.8,0.3-1.5,0.9-2c0.6-0.3,1.3-0.5,1.9-0.4h3.2v13.2c0,0.5-0.1,1-0.5,1.3
			c-0.3,0.3-0.8,0.4-1.2,0.4v0.2h5v-0.2c-0.9,0.1-1.6-0.5-1.7-1.4c0-0.1,0-0.2,0-0.4v-13.3h7v13.2c0.1,0.5-0.1,1-0.5,1.3
			c-0.3,0.3-0.8,0.4-1.2,0.4v0.2h5v-0.2c-0.9,0.1-1.6-0.5-1.7-1.4c0-0.1,0-0.2,0-0.4v-13.2h3.1c0.7,0,1.3,0.1,1.9,0.4
			c0.6,0.5,0.9,1.2,0.9,2h0.2v-3.9L118.1,169.2z"/>
		<path class="st2" d="M136.5,177.9c0,1.4-0.4,2.9-1.1,4.1c-0.7,1.2-1.8,2.3-3,3c-1.3,0.8-2.7,1.1-4.2,1.1c-1.5,0-3-0.4-4.2-1.1
			c-4-2.3-5.3-7.3-3.1-11.3c0.4-0.7,0.9-1.3,1.4-1.8c0.8-0.8,1.7-1.3,2.7-1.8c4.2-1.7,9,0.2,10.8,4.4
			C136.3,175.5,136.5,176.7,136.5,177.9z M134.6,177.9c0.1-1.7-0.3-3.4-1.1-4.9c-0.6-1-1.5-1.9-2.6-2.4c-0.9-0.4-1.8-0.6-2.7-0.6
			c-0.7,0-1.4,0.1-2.1,0.3c-0.8,0.2-1.5,0.7-2.1,1.2c-0.7,0.7-1.3,1.5-1.7,2.4c-0.5,1.2-0.7,2.6-0.7,3.9c0,1.2,0.2,2.4,0.5,3.6
			c0.3,0.9,0.8,1.8,1.5,2.5c0.6,0.6,1.3,1.1,2.1,1.4c1.5,0.5,3.1,0.5,4.6,0c0.8-0.3,1.5-0.7,2.1-1.3c0.7-0.7,1.2-1.5,1.5-2.4
			C134.5,180.4,134.7,179.2,134.6,177.9L134.6,177.9z"/>
		<path class="st2" d="M152.9,185.8H147v-0.2h0.2c0.4,0,0.7-0.2,1-0.4c0.3-0.4,0.5-0.8,0.4-1.3V172c0-0.5-0.1-0.9-0.4-1.3
			c-0.3-0.3-0.7-0.5-1.1-0.5H147V170h5.1c0.6,0,1.3,0.1,1.9,0.3c0.5,0.2,1,0.4,1.4,0.8c0.4,0.3,0.7,0.7,0.9,1.2
			c0.2,0.4,0.3,0.9,0.3,1.4c0,0.9-0.3,1.7-0.9,2.3c-0.7,0.6-1.5,1.1-2.5,1.3v0.1c0.5,0,0.9,0.1,1.4,0.2c0.4,0.1,0.8,0.2,1.2,0.4
			c0.4,0.2,0.7,0.4,1,0.7c0.3,0.2,0.5,0.5,0.7,0.9c0.2,0.3,0.3,0.6,0.4,1c0.1,0.4,0.2,0.7,0.1,1.1c0,0.8-0.2,1.5-0.6,2.1
			c-0.4,0.5-0.9,1-1.4,1.3C155.1,185.6,154,185.8,152.9,185.8z M150.3,177.2h1c0.6,0,1.2-0.1,1.8-0.3c0.3-0.1,0.5-0.3,0.7-0.5
			c0.3-0.3,0.5-0.6,0.7-0.9c0.2-0.5,0.4-1,0.3-1.6c0-0.5-0.1-0.9-0.2-1.4c-0.1-0.4-0.4-0.8-0.7-1.1c-0.6-0.7-1.4-1-2.3-1
			c-0.5,0-0.9,0.1-1.4,0.2L150.3,177.2z M151.9,177.7h-1.6v5.7c0,0.3,0,0.7,0.1,1c0.1,0.3,0.3,0.5,0.6,0.7c1.6,0.6,3.5,0.2,4.6-1.2
			c0.4-0.7,0.6-1.4,0.6-2.2c0-0.6-0.1-1.1-0.3-1.6c-0.2-0.5-0.5-0.9-0.9-1.2c-0.4-0.3-0.9-0.6-1.4-0.8
			C153.2,177.8,152.5,177.7,151.9,177.7L151.9,177.7z"/>
		<path class="st2" d="M160.2,185.6h0.2c0.4,0,0.7-0.2,1-0.4c0.3-0.4,0.5-0.8,0.4-1.3V172c0.1-0.5-0.1-1-0.5-1.4
			c-0.3-0.3-0.8-0.4-1.2-0.4V170h5v0.2c-0.4,0-0.8,0.1-1.2,0.4c-0.4,0.3-0.6,0.9-0.5,1.4v11.5c-0.1,0.5,0.1,1.1,0.5,1.4
			c0.5,0.3,1.1,0.4,1.7,0.4h1.4c0.5,0,1-0.1,1.4-0.2c0.3-0.1,0.6-0.4,0.8-0.6c0.3-0.4,0.5-0.8,0.6-1.2h0.2l-0.6,2.6h-9.4
			L160.2,185.6z"/>
		<path class="st2" d="M178.9,169.8l4.7,13.5c0.2,0.5,0.4,1,0.7,1.5c0.2,0.3,0.4,0.5,0.6,0.6c0.2,0.1,0.5,0.1,0.8,0.2v0.2h-5.1v-0.2
			c0.4,0,0.8,0,1.2-0.1c0.3-0.1,0.4-0.4,0.4-0.8c0-0.3-0.1-0.7-0.2-1c0,0,0-0.1,0-0.1l-1.4-4.2h-5.5l-1.2,3.9
			c-0.1,0.4-0.2,0.8-0.2,1.3c0,0.3,0.1,0.7,0.3,0.9c0.3,0.2,0.6,0.2,0.9,0.2v0.2h-3.7v-0.2c0.5,0,0.9-0.2,1.3-0.6
			c0.4-0.5,0.7-1,0.8-1.6l4.4-13.6L178.9,169.8z M175.4,178.8h5l-2.6-7.5h-0.1L175.4,178.8z"/>
		<path class="st2" d="M203.8,170v0.2c-0.3,0-0.7,0.1-1,0.2c-0.3,0.1-0.4,0.3-0.5,0.6c-0.1,0.4-0.2,0.9-0.2,1.3v13.8h0l-12.1-13.5
			v9.7c0,0.6,0,1.2,0.1,1.8c0,0.3,0.1,0.6,0.3,0.8c0.3,0.4,0.8,0.6,1.4,0.6v0.2h-3.9v-0.2c0.4,0,0.7-0.1,1-0.3
			c0.3-0.2,0.5-0.6,0.5-0.9c0.1-0.7,0.2-1.3,0.2-2v-10.3l-0.5-0.6c-0.3-0.4-0.7-0.7-1.1-1c-0.3-0.2-0.7-0.3-1-0.3V170h3l11.9,13.4
			v-10.2c0-0.6,0-1.1-0.1-1.7c0-0.4-0.2-0.7-0.5-0.9c-0.4-0.3-0.8-0.4-1.2-0.4V170H203.8z"/>
		<path class="st2" d="M220.1,173.5h-0.2c-0.1-0.8-0.5-1.5-1.1-2c-0.6-0.5-1.3-0.9-2-1.2c-0.7-0.2-1.4-0.4-2.1-0.4
			c-0.9,0-1.8,0.2-2.6,0.6c-0.8,0.4-1.5,0.9-2.1,1.6c-0.6,0.7-1.1,1.6-1.4,2.5c-0.3,1-0.5,2.1-0.5,3.2c0,1,0.2,2.1,0.5,3.1
			c0.3,0.9,0.7,1.7,1.4,2.5c0.6,0.7,1.3,1.2,2.1,1.6c0.8,0.4,1.7,0.5,2.6,0.5c0.9,0,1.8-0.2,2.6-0.5c1-0.3,1.9-0.9,2.6-1.6v0.6
			c-0.8,0.6-1.7,1.2-2.6,1.6c-1,0.4-2,0.5-3,0.5c-1.2,0-2.3-0.2-3.4-0.7c-1-0.4-1.9-1-2.6-1.8c-0.7-0.8-1.2-1.6-1.6-2.6
			c-0.4-1-0.6-2-0.6-3c0-3,1.6-5.8,4.2-7.4c1.3-0.8,2.7-1.2,4.2-1.1c1,0,2,0.1,3,0.4l1.1,0.3c0.2,0,0.4,0.1,0.5,0.1
			c0.2,0,0.4,0,0.6-0.1c0.1-0.1,0.2-0.3,0.2-0.4h0.2L220.1,173.5z"/>
		<path class="st2" d="M239.2,177.9c0,1.4-0.4,2.9-1.1,4.1c-0.7,1.2-1.8,2.3-3,3c-1.3,0.8-2.7,1.1-4.2,1.1c-4.6,0-8.4-3.7-8.4-8.3
			c0-1.1,0.2-2.2,0.7-3.3c0.4-1,1.1-1.9,1.8-2.7c0.8-0.8,1.7-1.3,2.7-1.8c2-0.8,4.3-0.8,6.3,0c1,0.4,1.9,1,2.7,1.7
			c0.8,0.8,1.4,1.7,1.9,2.7C239,175.6,239.3,176.7,239.2,177.9z M237.4,177.9c0.1-1.7-0.3-3.4-1.1-4.9c-0.6-1-1.5-1.9-2.6-2.4
			c-0.9-0.4-1.8-0.6-2.7-0.6c-0.7,0-1.4,0.1-2.1,0.3c-0.8,0.3-1.5,0.7-2.1,1.2c-0.7,0.7-1.3,1.5-1.7,2.4c-0.5,1.2-0.7,2.6-0.6,3.9
			c0,1.2,0.2,2.4,0.5,3.6c0.3,0.9,0.8,1.8,1.5,2.5c0.6,0.6,1.3,1.1,2.1,1.4c1.5,0.5,3.1,0.5,4.6,0c0.8-0.3,1.5-0.7,2.1-1.3
			c0.7-0.7,1.2-1.5,1.5-2.4C237.2,180.4,237.4,179.2,237.4,177.9L237.4,177.9z"/>
		<path class="st2" d="M52.5,201.6h2.6c2.1,0,3.3,1.2,3.3,2.9c0,1-0.5,2-1.4,2.5c1.5,0.2,2.5,1.4,2.5,2.9c0,2-1.5,3.3-3.7,3.3h-3.3
			V201.6z M53.3,206.9h1.9c0.6,0,1.2-0.1,1.6-0.5c0.5-0.4,0.8-1.1,0.8-1.8c0-0.7-0.3-1.4-0.8-1.8c-0.6-0.4-1.3-0.5-2-0.5h-1.5V206.9
			z M53.3,212.6h2c0.9,0.1,1.9-0.1,2.6-0.7c0.5-0.4,0.8-1.1,0.8-1.8c0.1-0.9-0.4-1.8-1.3-2.2c-0.7-0.3-1.5-0.4-2.2-0.3h-1.9V212.6z"
			/>
		<path class="st2" d="M94.1,202.4h-5v4.2H94v0.7h-4.9v5.3h5v0.7h-5.8v-11.6h5.8V202.4z"/>
		<path class="st2" d="M127.9,213.3l-3.9-5.5h-0.4v5.5h-0.8v-11.6h1.7c0.9-0.1,1.8,0.1,2.5,0.6c0.8,0.6,1.3,1.5,1.2,2.5
			c0.1,1.3-0.8,2.5-2,2.8c-0.5,0.2-1,0.2-1.5,0.2l3.9,5.5H127.9z M123.7,207.1h1.2c1.7,0,2.7-0.9,2.7-2.4c0-0.8-0.4-1.6-1.1-2
			c-0.6-0.2-1.2-0.4-1.8-0.3h-1L123.7,207.1z"/>
		<path class="st2" d="M157.5,213.3v-11.7l10.1,10.2v-10.1h0.8v11.9l-10.1-10.2v9.9H157.5z"/>
		<path class="st2" d="M204,209.4h-5.1l-1.6,3.8h-0.9l5.1-12l5,12h-0.9L204,209.4z M203.7,208.8l-2.2-5.5l-2.3,5.5H203.7z"/>
		<path class="st2" d="M235.4,201.6v10.9h3.4v0.7h-4.1v-11.6H235.4z"/>
	</g>
</g>
</svg>
