<svg xmlns="http://www.w3.org/2000/svg" viewBox="0 0 197.8 230.38"><defs><style>.cls-1{fill:#e69e6c;}.cls-2{fill:#fff;}.cls-3{fill:#002856;}.cls-4{fill:#09a3cb;}</style></defs><g id="Capa_2" data-name="Capa 2"><g id="Capa_1-2" data-name="Capa 1"><g id="Capa_2-2" data-name="Capa 2"><g id="diseño"><polygon class="cls-1" points="189.15 206.45 98.87 230.38 8.65 206.45 8.65 32.06 189.15 32.06 189.15 206.45"/><polygon class="cls-2" points="197.8 191.1 98.87 217.32 0 191.1 0 0 197.8 0 197.8 191.1"/></g></g><path class="cls-3" d="M98.21,47.43l53.16,53.15L113.91,138,99.57,123.7l2.18-2.18,11.71,11.71.45.45.45-.45L146.55,101l.45-.45-.45-.45L98.66,52.24l-.45-.45-.45.45L66.53,83.38,64.35,81.2,98.21,47.43"/><path class="cls-3" d="M59.34,86.2l2.18,2.17L49.76,100.13l-.45.45.45.45L82,133.23l.45.45.45-.45,47-47L132,88.42,82.4,138,44.94,100.58Z"/><path class="cls-3" d="M98.21,31.73,143.46,77,137,83.41l-2.19-2.19,3.8-3.79.45-.45-.45-.45-40-40-.45-.45-.45.45-40,40-.45.45.45.45,39,39.07-2.18,2.17L53,77,98.21,31.73"/><path class="cls-3" d="M98.21,63.23l6,6-6,6-6-6,6-6"/><polygon class="cls-4" points="183.82 166.88 14.72 166.88 12.65 168.95 181.76 168.95 183.82 166.88"/><path class="cls-3" d="M12.64,146.87v-.17h4.69a6.25,6.25,0,0,1,2.07.32,4.41,4.41,0,0,1,1.5.88,3.73,3.73,0,0,1,.89,1.25,3.63,3.63,0,0,1,.3,1.46,3.93,3.93,0,0,1-.28,1.44,3.46,3.46,0,0,1-.87,1.23,4.26,4.26,0,0,1-1.55.86,6.88,6.88,0,0,1-2.22.32c-.26,0-.78,0-1.53-.11v4.93a1.4,1.4,0,0,0,1.55,1.57V161H12.64v-.16a1.74,1.74,0,0,0,1.1-.38,1.47,1.47,0,0,0,.43-1.19V148.46a2,2,0,0,0-.15-.82,1.15,1.15,0,0,0-.37-.47,1.28,1.28,0,0,0-.46-.21l-.36-.09Zm3,.34V154a8.3,8.3,0,0,0,1.47.14,3.85,3.85,0,0,0,2.36-.72,3.11,3.11,0,0,0,1-2.65,4,4,0,0,0-.85-2.61,3.15,3.15,0,0,0-2.58-1A8,8,0,0,0,15.64,147.21Z"/><path class="cls-3" d="M39.37,153.87a7.4,7.4,0,0,1-1,3.74,7.52,7.52,0,0,1-2.71,2.75,7.26,7.26,0,0,1-3.81,1,7.43,7.43,0,0,1-3.85-1,7.52,7.52,0,0,1-3.75-6.55,7.3,7.3,0,0,1,.59-2.95,7.43,7.43,0,0,1,1.67-2.42A8,8,0,0,1,29,146.85a7.41,7.41,0,0,1,2.87-.56,7.52,7.52,0,0,1,2.82.54,7.43,7.43,0,0,1,4.1,4A7.55,7.55,0,0,1,39.37,153.87Zm-1.71,0a8.46,8.46,0,0,0-1-4.47,5.27,5.27,0,0,0-2.33-2.16,6.61,6.61,0,0,0-2.49-.55A6.29,6.29,0,0,0,30,147a5.35,5.35,0,0,0-1.89,1.08,5.62,5.62,0,0,0-1.51,2.22,9.08,9.08,0,0,0-.6,3.52,9.73,9.73,0,0,0,.49,3.22,6,6,0,0,0,1.35,2.24,5.35,5.35,0,0,0,1.9,1.26,6.14,6.14,0,0,0,4.17,0,5.17,5.17,0,0,0,1.88-1.16,5.83,5.83,0,0,0,1.38-2.17A9.48,9.48,0,0,0,37.66,153.91Z"/><path class="cls-3" d="M41.86,146.91h-.2v-.21h5a5.08,5.08,0,0,1,2,.37,3.48,3.48,0,0,1,1.29.94,3.56,3.56,0,0,1,.66,1.2,4.17,4.17,0,0,1,.2,1.24,3.48,3.48,0,0,1-.33,1.49,3.1,3.1,0,0,1-1,1.23,3.77,3.77,0,0,1-1.68.7v0a6,6,0,0,1,2.37,2.47l1.29,2.18a6.92,6.92,0,0,0,1.4,1.86,2.08,2.08,0,0,0,1,.43V161h-2.6c-.12-.14-.22-.28-.32-.41s-.2-.28-.31-.43-.16-.24-.28-.44a3.6,3.6,0,0,0-.23-.33l-1.71-2.83a6.89,6.89,0,0,0-1-1.4,3.92,3.92,0,0,0-1-.77,2.86,2.86,0,0,0-.84-.3,7.35,7.35,0,0,0-.88,0v5.23a1.41,1.41,0,0,0,1.56,1.57V161H41.66v-.16a2,2,0,0,0,.76-.16,1.2,1.2,0,0,0,.55-.48,1.78,1.78,0,0,0,.22-.93V148.46a1.48,1.48,0,0,0-.42-1.2A1.35,1.35,0,0,0,41.86,146.91Zm2.8,6.76h.82a5.27,5.27,0,0,0,2.1-.37,2.44,2.44,0,0,0,1.19-1.06,3.41,3.41,0,0,0,.37-1.67,4.19,4.19,0,0,0-.33-1.62,3,3,0,0,0-1.12-1.33,3.73,3.73,0,0,0-2.13-.54,3.67,3.67,0,0,0-.9.09Z"/><path class="cls-3" d="M73.89,146a1.66,1.66,0,0,1-1.43.7H55.4a4.91,4.91,0,0,1-.59,0,1.28,1.28,0,0,1-.43-.12.75.75,0,0,1-.3-.2,2,2,0,0,1-.28-.35h-.15v3.49h.15a2.18,2.18,0,0,1,.82-1.81,3.48,3.48,0,0,1,1.75-.41h2.84v12a1.45,1.45,0,0,1-.44,1.2,1.7,1.7,0,0,1-1.08.37V161h4.55v-.16a1.4,1.4,0,0,1-1.55-1.57v-12H67v12a1.48,1.48,0,0,1-.44,1.2,1.75,1.75,0,0,1-1.09.37V161H70v-.16a1.41,1.41,0,0,1-1.56-1.57v-12h2.85a3.51,3.51,0,0,1,1.75.41,2.15,2.15,0,0,1,.81,1.81h.16V146Z"/><path class="cls-3" d="M90.6,153.87a7.3,7.3,0,0,1-1,3.74,7.45,7.45,0,0,1-2.71,2.75,7.26,7.26,0,0,1-3.81,1,7.37,7.37,0,0,1-3.84-1,7.5,7.5,0,0,1-3.76-6.55,7.31,7.31,0,0,1,.6-2.95,7.14,7.14,0,0,1,1.67-2.42,7.91,7.91,0,0,1,2.44-1.59,7.63,7.63,0,0,1,5.69,0,7.31,7.31,0,0,1,2.42,1.55A7.38,7.38,0,0,1,90,150.8,7.55,7.55,0,0,1,90.6,153.87Zm-1.71,0a8.46,8.46,0,0,0-1-4.47,5.22,5.22,0,0,0-2.33-2.16,6.61,6.61,0,0,0-2.49-.55,6.34,6.34,0,0,0-1.87.3,5.35,5.35,0,0,0-1.89,1.08,5.84,5.84,0,0,0-1.51,2.22,9.28,9.28,0,0,0-.59,3.52,9.48,9.48,0,0,0,.49,3.22A6,6,0,0,0,79,159.31a5.23,5.23,0,0,0,1.89,1.26,6.28,6.28,0,0,0,2.15.38,6.37,6.37,0,0,0,2-.35A5.13,5.13,0,0,0,87,159.44a5.71,5.71,0,0,0,1.38-2.17A9.48,9.48,0,0,0,88.89,153.91Z"/><path class="cls-3" d="M105.46,161H100.1v-.16h.2a1.31,1.31,0,0,0,.94-.39,1.61,1.61,0,0,0,.39-1.18v-10.8a1.78,1.78,0,0,0-.36-1.19,1.26,1.26,0,0,0-1-.42h-.18v-.17h4.68a5.18,5.18,0,0,1,1.7.27,4.07,4.07,0,0,1,1.31.74,3.26,3.26,0,0,1,.83,1.07,2.84,2.84,0,0,1,.29,1.29,2.8,2.8,0,0,1-.83,2.1,5.14,5.14,0,0,1-2.25,1.19v0a9.72,9.72,0,0,1,1.24.2,4.82,4.82,0,0,1,1.07.38,4,4,0,0,1,.89.63,3.59,3.59,0,0,1,.64.77,3.17,3.17,0,0,1,.4.9,3.83,3.83,0,0,1,.13,1,3.23,3.23,0,0,1-.57,1.92,4.21,4.21,0,0,1-1.31,1.23A6,6,0,0,1,105.46,161Zm-2.35-7.74H104a4.19,4.19,0,0,0,1.63-.23,4.27,4.27,0,0,0,.65-.43,2.86,2.86,0,0,0,.64-.86,3,3,0,0,0,.3-1.4,3.76,3.76,0,0,0-.2-1.22,3.38,3.38,0,0,0-.59-1,2.92,2.92,0,0,0-.93-.7,2.77,2.77,0,0,0-1.16-.25,4.53,4.53,0,0,0-1.27.21Zm1.46.44h-1.46v5.15a3,3,0,0,0,.1.86,1.07,1.07,0,0,0,.56.6,3,3,0,0,0,1.4.25,3.08,3.08,0,0,0,2.81-1.31,3.72,3.72,0,0,0,.57-2,3.67,3.67,0,0,0-.28-1.47,3.11,3.11,0,0,0-.79-1.11,3.61,3.61,0,0,0-1.26-.69A5.1,5.1,0,0,0,104.57,153.71Z"/><path class="cls-3" d="M112.1,160.85h.2a1.23,1.23,0,0,0,.92-.41,1.58,1.58,0,0,0,.41-1.16v-10.8a1.46,1.46,0,0,0-.46-1.24,1.77,1.77,0,0,0-1.07-.37v-.17h4.58v.17a1.81,1.81,0,0,0-1.07.36,1.46,1.46,0,0,0-.47,1.25v10.44a1.55,1.55,0,0,0,.47,1.29,2.52,2.52,0,0,0,1.52.36h1.24a3.49,3.49,0,0,0,1.28-.19,1.67,1.67,0,0,0,.76-.59,6.12,6.12,0,0,0,.58-1.13h.16l-.54,2.35H112.1Z"/><path class="cls-3" d="M129.1,146.53l4.28,12.26a6.16,6.16,0,0,0,.64,1.37,1.41,1.41,0,0,0,.58.54,2.21,2.21,0,0,0,.71.15V161h-4.68v-.16a3.57,3.57,0,0,0,1.11-.13c.26-.09.39-.34.39-.74a3,3,0,0,0-.18-.88.27.27,0,0,1,0-.12l-1.28-3.8h-4.95l-1.13,3.52a3.85,3.85,0,0,0-.24,1.15.9.9,0,0,0,.3.8,1.5,1.5,0,0,0,.86.2V161h-3.36v-.16a1.67,1.67,0,0,0,1.15-.54,4.09,4.09,0,0,0,.75-1.47l4-12.31Zm-3.25,8.14h4.55l-2.33-6.79h0Z"/><path class="cls-3" d="M151.63,146.7v.17a2.77,2.77,0,0,0-.86.21,1,1,0,0,0-.49.55,3.34,3.34,0,0,0-.17,1.19v12.55H150l-11-12.26v8.8a10.67,10.67,0,0,0,.09,1.63,1.82,1.82,0,0,0,.25.77,1.5,1.5,0,0,0,1.25.54V161H137v-.16a1.88,1.88,0,0,0,.94-.25,1.34,1.34,0,0,0,.47-.84,9,9,0,0,0,.14-1.83V148.6l-.47-.54a4,4,0,0,0-1-.9,3.23,3.23,0,0,0-1-.29v-.17h2.69l10.82,12.12v-9.23a11.77,11.77,0,0,0-.08-1.56,1.35,1.35,0,0,0-.44-.82,1.72,1.72,0,0,0-1.11-.34v-.17Z"/><path class="cls-3" d="M166.46,149.91h-.17a3.08,3.08,0,0,0-1-1.78,5.06,5.06,0,0,0-1.84-1.06,6.21,6.21,0,0,0-1.95-.34,5.35,5.35,0,0,0-2.31.52,5.55,5.55,0,0,0-1.87,1.47,7,7,0,0,0-1.23,2.27,9.24,9.24,0,0,0-.43,2.88,8.87,8.87,0,0,0,.42,2.79,6.49,6.49,0,0,0,1.23,2.24,5.38,5.38,0,0,0,1.88,1.43,5.71,5.71,0,0,0,2.37.49,7.36,7.36,0,0,0,2.39-.45,6,6,0,0,0,2.35-1.47v.56a11.69,11.69,0,0,1-2.36,1.46,6.77,6.77,0,0,1-2.68.47,7.53,7.53,0,0,1-3.08-.62,7.08,7.08,0,0,1-2.36-1.66,7.31,7.31,0,0,1-1.45-2.36,7.79,7.79,0,0,1,3.32-9.42,7.28,7.28,0,0,1,3.81-1,10.34,10.34,0,0,1,2.71.38l1,.28a2.58,2.58,0,0,0,.5.06.57.57,0,0,0,.7-.52h.15Z"/><path class="cls-3" d="M183.84,153.87a7.39,7.39,0,0,1-1,3.74,7.55,7.55,0,0,1-2.72,2.75,7.2,7.2,0,0,1-3.8,1,7.43,7.43,0,0,1-3.85-1,7.56,7.56,0,0,1-3.76-6.55,7.31,7.31,0,0,1,.6-2.95,7.43,7.43,0,0,1,1.67-2.42,8,8,0,0,1,2.45-1.59,7.38,7.38,0,0,1,2.87-.56,7.47,7.47,0,0,1,7.53,7.58Zm-1.71,0a8.36,8.36,0,0,0-1-4.47,5.22,5.22,0,0,0-2.33-2.16,6.61,6.61,0,0,0-2.48-.55,6.4,6.4,0,0,0-1.88.3,5.53,5.53,0,0,0-1.89,1.08,5.84,5.84,0,0,0-1.51,2.22,9.28,9.28,0,0,0-.59,3.52,9.73,9.73,0,0,0,.49,3.22,6,6,0,0,0,1.35,2.24,5.35,5.35,0,0,0,1.9,1.26,6.24,6.24,0,0,0,2.15.38,6.32,6.32,0,0,0,2-.35,5.17,5.17,0,0,0,1.88-1.16,6,6,0,0,0,1.38-2.17A9.49,9.49,0,0,0,182.13,153.91Z"/><path class="cls-3" d="M14.37,175.44h2.39c1.89,0,3,1.06,3,2.64a2.53,2.53,0,0,1-1.27,2.3A2.55,2.55,0,0,1,20.74,183c0,1.85-1.4,3-3.38,3h-3Zm.72,4.77h1.73a2.14,2.14,0,0,0,1.49-.44,2,2,0,0,0,.72-1.61,2,2,0,0,0-.74-1.65,2.93,2.93,0,0,0-1.81-.44H15.09Zm0,5.14h1.83a3.36,3.36,0,0,0,2.37-.64,2,2,0,0,0,.7-1.61,1.92,1.92,0,0,0-1.16-2,5.08,5.08,0,0,0-2-.3h-1.7Z"/><path class="cls-3" d="M52.1,176.07H47.59v3.82H52v.64H47.59v4.82H52.1V186H46.88V175.44H52.1Z"/><path class="cls-3" d="M82.8,186l-3.52-5H79v5h-.72V175.44H79.8a3.94,3.94,0,0,1,2.3.53,2.6,2.6,0,0,1,1.13,2.26,2.54,2.54,0,0,1-1.83,2.57,4.22,4.22,0,0,1-1.34.2l3.56,5ZM79,180.37h1c1.55,0,2.48-.79,2.48-2.15a1.93,1.93,0,0,0-1-1.83,3.86,3.86,0,0,0-1.66-.32H79Z"/><path class="cls-3" d="M109.66,186V175.33l9.14,9.26v-9.15h.72v10.81L110.37,177v9Z"/><path class="cls-3" d="M151.87,182.52h-4.64L145.78,186H145l4.58-10.86L154.11,186h-.79Zm-.26-.63-2-5-2.08,5Z"/><path class="cls-3" d="M180.31,175.44v9.91h3V186h-3.75V175.44Z"/></g></g></svg>