<svg xmlns="http://www.w3.org/2000/svg" viewBox="0 0 364.12 57.67"><defs><style>.cls-1{font-size:26.42px;font-family:FuturaPT-Book, Futura PT;letter-spacing:0.04em;}.cls-1,.cls-6{fill:#002856;}.cls-2{letter-spacing:0.02em;}.cls-3{letter-spacing:0.02em;}.cls-4{letter-spacing:-0.01em;}.cls-5{letter-spacing:-0.02em;}</style></defs><g id="Capa_2" data-name="Capa 2"><g id="Capa_1-2" data-name="Capa 1"><text class="cls-1" transform="translate(94.96 36.21)">Ci<tspan class="cls-2" x="24.73" y="0">r</tspan><tspan x="33" y="0">cuito cer</tspan><tspan class="cls-3" x="129.87" y="0">r</tspan><tspan x="138.22" y="0">ado de </tspan><tspan class="cls-4" x="226.35" y="0">T</tspan><tspan x="237.32" y="0">.</tspan><tspan class="cls-5" x="244.42" y="0">V</tspan><tspan x="258.56" y="0">.</tspan></text><path class="cls-6" d="M36.53,0A36.52,36.52,0,0,0,6.75,57.67h3.41a33.81,33.81,0,1,1,52.74,0h3.41A36.52,36.52,0,0,0,36.53,0Z"/><path class="cls-6" d="M26.68,33.52s-.05,0-.06,0l-.21.4a4.22,4.22,0,0,0,2,5.76,4.31,4.31,0,0,0,5.56-2l.15-.29a0,0,0,0,0,0-.06Z"/><path class="cls-6" d="M51.51,31.27,25.77,18.12A2.07,2.07,0,0,0,23,19l-3.85,7.53a2.06,2.06,0,0,0,.9,2.78L45.78,42.48a2,2,0,0,0,.94.23,2.06,2.06,0,0,0,1.84-1.13l3.85-7.53A2.07,2.07,0,0,0,51.51,31.27Zm.18,2.42-3.84,7.53a1.28,1.28,0,0,1-1.71.55L20.4,28.62a1.27,1.27,0,0,1-.55-1.7l3.85-7.53a1.28,1.28,0,0,1,1.7-.56L51.14,32A1.27,1.27,0,0,1,51.69,33.69Z"/><rect class="cls-6" x="48.85" y="37.67" width="6.12" height="1.58" transform="translate(-5.96 67.18) rotate(-62.94)"/><path class="cls-6" d="M54.14,36.77l-2.33,4.56a1,1,0,0,0,1.35-.44l1.42-2.76A1,1,0,0,0,54.14,36.77Z"/><circle class="cls-6" cx="48.67" cy="23.14" r="1.65"/><path class="cls-6" d="M56.37,19.28a8.61,8.61,0,0,0-15.39,0,.9.9,0,1,0,1.6.81,6.81,6.81,0,0,1,12.19,0,.89.89,0,0,0,.8.49.93.93,0,0,0,.4-.09A.89.89,0,0,0,56.37,19.28Z"/><path class="cls-6" d="M51.7,21.62a.9.9,0,0,0,1.61-.81,5.19,5.19,0,0,0-9.27,0,.91.91,0,0,0,.4,1.21.85.85,0,0,0,.4.1.92.92,0,0,0,.81-.5,3.38,3.38,0,0,1,6.05,0Z"/><path class="cls-6" d="M27.65,41a4.18,4.18,0,0,1-2.34-2.8L19,42V35.91H16.59V57.67H19V51.22l10.57-9.86A4,4,0,0,1,27.65,41Z"/></g></g></svg>