<svg xmlns="http://www.w3.org/2000/svg" viewBox="0 0 156.67 203.61"><defs><style>.cls-1{font-size:26px;font-family:FuturaPT-Book, Futura PT;}.cls-1,.cls-5{fill:#002856;}.cls-2{letter-spacing:-0.03em;}.cls-3{letter-spacing:0em;}.cls-4{letter-spacing:-0.06em;}</style></defs><g id="Capa_2" data-name="Capa 2"><g id="Capa_1-2" data-name="Capa 1"><text class="cls-1" transform="translate(0 165.91)">SÓ<tspan class="cls-2" x="34.11" y="0">L</tspan><tspan class="cls-3" x="42.54" y="0">O </tspan><tspan class="cls-4" x="69.24" y="0">1</tspan><tspan class="cls-3" x="82.37" y="0">0% DE </tspan><tspan x="7.92" y="31.2">ENGANCHE </tspan></text><path class="cls-5" d="M80.64,107.7A13.77,13.77,0,1,0,66.87,93.93,13.76,13.76,0,0,0,80.64,107.7Zm0-24.48A10.71,10.71,0,1,1,69.93,93.93,10.71,10.71,0,0,1,80.64,83.22Z"/><path class="cls-5" d="M77.58,97H74.52a4.59,4.59,0,0,0,4.59,4.59v1.53h3.06v-1.53a4.59,4.59,0,1,0,0-9.18V89.34a1.53,1.53,0,0,1,1.53,1.53h3.06a4.59,4.59,0,0,0-4.59-4.59V84.75H79.11v1.53a4.59,4.59,0,0,0,0,9.18v3.06A1.53,1.53,0,0,1,77.58,97Zm0-6.12a1.54,1.54,0,0,1,1.53-1.53V92.4A1.53,1.53,0,0,1,77.58,90.87Zm4.59,4.59a1.53,1.53,0,0,1,0,3.06Z"/><path class="cls-5" d="M118.89,66.39h-7.65V54.15l2.3,1.32a1.52,1.52,0,0,0,2.07-.53l4.59-7.65a1.52,1.52,0,0,0-.57-2.13l-11.45-6.31V28.14h1.53a1.53,1.53,0,0,0,1.53-1.53V22a1.52,1.52,0,0,0-1.53-1.53H94.41A1.53,1.53,0,0,0,92.88,22v4.59a1.54,1.54,0,0,0,1.53,1.53h1.53v4L75.26,20.68a1.55,1.55,0,0,0-1.48,0L29.41,45.16a1.55,1.55,0,0,0-.74.94,1.51,1.51,0,0,0,.17,1.19l4.59,7.65a1.54,1.54,0,0,0,2.07.54l3.83-2.21V97H36.27a1.53,1.53,0,0,0-1.53,1.53v7.65a1.52,1.52,0,0,0,1.53,1.53H50v3.06a1.52,1.52,0,0,0,1.53,1.53h58.14a1.52,1.52,0,0,0,1.53-1.53h3.06a1.52,1.52,0,0,0,1.53-1.53v-3.06h3.06a1.52,1.52,0,0,0,1.53-1.53V67.92A1.53,1.53,0,0,0,118.89,66.39Zm-23-42.84h12.24v1.53H95.94ZM99,28.14h6.12v9L99,33.78ZM35.28,52.07l-3-5,42.24-23.3,42.24,23.3-3,5L75.28,29.87a1.55,1.55,0,0,0-1.53,0Zm7.11-.57L74.52,33l33.66,19.42v14h-52a1.53,1.53,0,0,0-1.53,1.53V71H53.1a1.53,1.53,0,0,0-1.53,1.53v3.06A1.53,1.53,0,0,0,50,77.1V97H42.39ZM108.18,83a6.17,6.17,0,0,1-4.4-4.39h4.4Zm-7.51-4.39a9.18,9.18,0,0,0,7.51,7.51v15.58a9.2,9.2,0,0,0-7.51,7.51H60.61a9.19,9.19,0,0,0-7.51-7.51V86.14a9.17,9.17,0,0,0,7.51-7.51ZM53.1,83V78.63h4.37A6.1,6.1,0,0,1,53.1,83ZM37.8,104.64v-4.59H50v4.59Zm15.3.22a6.12,6.12,0,0,1,4.37,4.37H53.1Zm55.08,4.37h-4.4a6.17,6.17,0,0,1,4.4-4.39Zm4.59-1.53h-1.53V77.1a1.53,1.53,0,0,0-1.53-1.53H54.63V74h58.14Zm4.59-4.59h-1.53V72.51A1.53,1.53,0,0,0,114.3,71H57.69V69.45h59.67Z"/><path class="cls-5" d="M66.87,60.27h15.3a1.52,1.52,0,0,0,1.53-1.53V43.44a1.53,1.53,0,0,0-1.53-1.53H66.87a1.53,1.53,0,0,0-1.53,1.53v15.3A1.52,1.52,0,0,0,66.87,60.27Zm1.53-7.65H73v4.59H68.4Zm7.65,4.59V52.62h4.59v4.59Zm4.59-7.65H76.05V45h4.59ZM73,45v4.59H68.4V45Z"/><path class="cls-5" d="M26.61,113.13a66.31,66.31,0,1,1,103.46,0h6.68a71.66,71.66,0,1,0-116.83,0Z"/></g></g></svg>