<?xml version="1.0" encoding="utf-8"?>
<!-- Generator: Adobe Illustrator 24.3.0, SVG Export Plug-In . SVG Version: 6.00 Build 0)  -->
<svg version="1.1" id="Layer_1" xmlns="http://www.w3.org/2000/svg" xmlns:xlink="http://www.w3.org/1999/xlink" x="0px" y="0px"
	 viewBox="0 0 14.9 15" style="enable-background:new 0 0 14.9 15;" xml:space="preserve">
<style type="text/css">
	.st0{fill:#FFFFFF;}
</style>
<g id="Capa_2_1_">
	<g id="Capa_1-2">
		<path class="st0" d="M14.2,0H0.8C0.4,0,0,0.3,0,0.8l0,0v13.3c0,0.4,0.3,0.8,0.8,0.8l0,0H8V9.1H6V6.9h2V5.3c-0.1-1.5,1-2.9,2.5-3
			c0.1,0,0.3,0,0.4,0c0.8,0,1.5,0.1,1.7,0.1v2h-1.2c-0.9,0-1.1,0.4-1.1,1.1v1.4h2.2l-0.3,2.3h-1.9V15h3.8c0.4,0,0.8-0.3,0.8-0.8l0,0
			V0.8C14.9,0.4,14.7,0.1,14.2,0C14.3,0,14.2,0,14.2,0z"/>
	</g>
</g>
</svg>
