<svg xmlns="http://www.w3.org/2000/svg" viewBox="0 0 205.14 204.96"><defs><style>.cls-1{font-size:26px;font-family:FuturaPT-Book, Futura PT;}.cls-1,.cls-5{fill:#002856;}.cls-2{letter-spacing:-0.13em;}.cls-3{letter-spacing:0em;}.cls-4{letter-spacing:-0.03em;}</style></defs><g id="Capa_2" data-name="Capa 2"><g id="Capa_1-2" data-name="Capa 1"><text class="cls-1" transform="translate(30.76 167.26)"><tspan class="cls-2">1<tspan class="cls-3" x="11.52" y="0">5 AÑOS DE </tspan></tspan><tspan x="-30.76" y="31.2">FINANCIAMIEN</tspan><tspan class="cls-4" x="143.57" y="31.2">T</tspan><tspan x="153.74" y="31.2">O</tspan></text><path class="cls-5" d="M125.76,35h-71a2.24,2.24,0,0,0-2.25,2.24v52.3a2.25,2.25,0,0,0,2.25,2.25h49a26.33,26.33,0,0,1-.45-2.8H98.82V80.36h5c.1-.51.23-1,.36-1.5H98.82V70.23h9.5c.37-.52.76-1,1.17-1.5H98.82V60.1h12.44v6.71a25.66,25.66,0,0,1,2.21-2V60.1h9.26a27,27,0,0,1,5.28-1V37.25A2.24,2.24,0,0,0,125.76,35ZM67.31,89H54.86V80.36H67.31Zm0-10.14H54.86V70.23H67.31Zm0-10.13H54.86V60.1H67.31Zm0-10.13H54.86V50H67.31ZM82,89H69.51V80.36H82Zm0-10.14H69.51V70.23H82Zm0-10.13H69.51V60.1H82ZM82,58.6H69.51V50H82ZM96.61,89H84.16V80.36H96.61Zm0-10.14H84.16V70.23H96.61Zm0-10.13H84.16V60.1H96.61Zm0-10.13H84.16V50H96.61Zm14.65,0H98.82V50h12.44ZM73.2,46.11V38.63h51.07v7.48ZM125.91,58.6H113.47V50h12.44Z"/><rect class="cls-5" x="75.35" y="48.04" width="0.73" height="12.48" transform="translate(-12.05 85.53) rotate(-55.23)"/><rect class="cls-5" x="69.48" y="53.92" width="12.48" height="0.73" transform="translate(-17.44 52.83) rotate(-34.74)"/><rect class="cls-5" x="89.99" y="48.04" width="0.73" height="12.48" transform="translate(-5.76 97.56) rotate(-55.23)"/><rect class="cls-5" x="84.11" y="53.92" width="12.48" height="0.73" transform="translate(-14.83 61.17) rotate(-34.74)"/><rect class="cls-5" x="75.35" y="58.15" width="0.73" height="12.48" transform="translate(-20.35 89.88) rotate(-55.23)"/><rect class="cls-5" x="69.48" y="64.03" width="12.48" height="0.73" transform="translate(-23.2 54.63) rotate(-34.74)"/><rect class="cls-5" x="60.54" y="48.04" width="0.73" height="12.48" transform="translate(-18.42 73.36) rotate(-55.23)"/><rect class="cls-5" x="54.67" y="53.92" width="12.48" height="0.73" transform="translate(-20.08 44.39) rotate(-34.74)"/><rect class="cls-5" x="60.54" y="58.15" width="0.73" height="12.48" transform="translate(-26.72 77.71) rotate(-55.23)"/><rect class="cls-5" x="54.67" y="64.03" width="12.48" height="0.73" transform="translate(-25.84 46.19) rotate(-34.74)"/><rect class="cls-5" x="89.99" y="58.15" width="0.73" height="12.48" transform="translate(-14.06 101.9) rotate(-55.23)"/><rect class="cls-5" x="84.11" y="64.03" width="12.48" height="0.73" transform="translate(-20.59 62.98) rotate(-34.74)"/><rect class="cls-5" x="104.63" y="48.04" width="0.73" height="12.48" transform="translate(0.53 109.58) rotate(-55.23)"/><rect class="cls-5" x="98.75" y="53.92" width="12.48" height="0.73" transform="translate(-12.22 69.52) rotate(-34.74)"/><rect class="cls-5" x="119.26" y="48.04" width="0.73" height="12.48" transform="translate(6.82 121.6) rotate(-55.23)"/><rect class="cls-5" x="113.39" y="53.92" width="12.48" height="0.73" transform="translate(-9.61 77.86) rotate(-34.74)"/><path class="cls-5" d="M130.2,59.05q-1.11,0-2.19.09a26.87,26.87,0,0,0-14.54,5.72,25.66,25.66,0,0,0-2.21,2c-.62.61-1.21,1.26-1.77,1.92-.41.49-.8,1-1.17,1.5a27,27,0,0,0-4.15,8.63c-.13.49-.26,1-.36,1.5a26.6,26.6,0,0,0-.6,5.69,27.54,27.54,0,0,0,.61,5.75A27,27,0,1,0,130.2,59.05Zm0,48.82A21.84,21.84,0,0,1,109.14,91.8a23.51,23.51,0,0,1-.56-2.8,22.26,22.26,0,0,1-.2-3,21.76,21.76,0,0,1,.75-5.69c.13-.51.29-1,.46-1.5A21.65,21.65,0,0,1,113.47,72a19.45,19.45,0,0,1,1.7-1.81,20.8,20.8,0,0,1,1.74-1.5,21.76,21.76,0,0,1,9-4.09,20.83,20.83,0,0,1,2.1-.31c.72-.07,1.45-.11,2.19-.11a21.83,21.83,0,0,1,0,43.65Z"/><polygon class="cls-5" points="145.5 96.54 129.1 86.66 129.1 75.61 131.3 75.61 131.3 85.42 146.63 94.66 145.5 96.54"/><path class="cls-5" d="M50.84,113.13a66.31,66.31,0,1,1,103.46,0H161a71.66,71.66,0,1,0-116.82,0Z"/></g></g></svg>