<svg xmlns="http://www.w3.org/2000/svg" viewBox="0 0 18.13 29.32"><defs><style>.cls-1{fill:#e69e6c;}</style></defs><g id="Capa_2" data-name="Capa 2"><g id="Capa_1-2" data-name="Capa 1"><path class="cls-1" d="M9.07,5.33A3.74,3.74,0,1,0,12.8,9.07,3.73,3.73,0,0,0,9.07,5.33Zm0,6.59a2.86,2.86,0,1,1,2.85-2.85A2.86,2.86,0,0,1,9.07,11.92Zm0-6.59A3.74,3.74,0,1,0,12.8,9.07,3.73,3.73,0,0,0,9.07,5.33Zm0,6.59a2.86,2.86,0,1,1,2.85-2.85A2.86,2.86,0,0,1,9.07,11.92Zm0-6.59A3.74,3.74,0,1,0,12.8,9.07,3.73,3.73,0,0,0,9.07,5.33Zm0,6.59a2.86,2.86,0,1,1,2.85-2.85A2.86,2.86,0,0,1,9.07,11.92Z"/><path class="cls-1" d="M11.16,23.73c2.55-3.88,7-11.14,7-14.66A9.07,9.07,0,1,0,0,9.07c0,3.52,4.42,10.78,7,14.66-3.34.26-7,1.12-7,2.74,0,1.87,4.56,2.85,9.07,2.85s9.06-1,9.06-2.85S12.89,23.88,11.16,23.73ZM.89,9.07a8.18,8.18,0,1,1,16.35,0c0,4-6.55,13.82-8.17,16.2C7.44,22.89.89,13.08.89,9.07ZM9.07,28.43c-5,0-8.18-1.16-8.18-2,0-.54,2.21-1.61,6.63-1.9.65,1,1.1,1.62,1.18,1.73l.37.52.36-.52c.07-.11.53-.76,1.19-1.76v0c4.41.3,6.62,1.38,6.62,1.9C17.24,27.27,14.05,28.43,9.07,28.43Z"/></g></g></svg>