<?xml version="1.0" encoding="utf-8"?>
<!-- Generator: Adobe Illustrator 24.3.0, SVG Export Plug-In . SVG Version: 6.00 Build 0)  -->
<svg version="1.1" id="Layer_1" xmlns="http://www.w3.org/2000/svg" xmlns:xlink="http://www.w3.org/1999/xlink" x="0px" y="0px"
	 viewBox="0 0 41.2 41.1" style="enable-background:new 0 0 41.2 41.1;" xml:space="preserve">
<style type="text/css">
	.st0{fill:#FFFFFF;}
</style>
<g id="Capa_2_1_">
	<g id="Capa_1-2">
		<path class="st0" d="M20.5,3.7c5.5,0,6.1,0,8.3,0.1c1.3,0,2.6,0.2,3.8,0.7C33.5,4.8,34.3,5.4,35,6c0.7,0.7,1.2,1.5,1.5,2.4
			c0.5,1.2,0.7,2.5,0.7,3.8c0.1,2.2,0.1,2.8,0.1,8.3s0,6.1-0.1,8.3c0,1.3-0.2,2.6-0.7,3.8c-0.7,1.8-2.1,3.2-3.9,3.9
			c-1.2,0.5-2.5,0.7-3.8,0.7c-2.2,0.1-2.8,0.1-8.3,0.1s-6.1,0-8.3-0.1c-1.3,0-2.6-0.2-3.8-0.7C7.5,36.2,6.7,35.6,6,35
			c-0.7-0.7-1.2-1.5-1.5-2.4c-0.5-1.2-0.7-2.5-0.7-3.8c-0.1-2.2-0.1-2.8-0.1-8.3s0-6.1,0.1-8.3c0-1.3,0.2-2.6,0.7-3.8
			C4.8,7.5,5.4,6.7,6,6c0.7-0.7,1.5-1.2,2.4-1.5c1.2-0.5,2.5-0.7,3.8-0.7C14.4,3.7,15.1,3.7,20.5,3.7 M20.5,0c-5.6,0-6.3,0-8.5,0.1
			c-1.7,0-3.4,0.3-5,1C5.7,1.6,4.5,2.4,3.5,3.4S1.6,5.7,1.1,7c-0.6,1.6-1,3.3-1,5C0,14.2,0,14.9,0,20.5s0,6.3,0.1,8.5
			c0,1.7,0.3,3.4,1,5c0.5,1.4,1.3,2.6,2.4,3.6c1,1,2.3,1.9,3.6,2.4c1.6,0.6,3.3,1,5,1c2.2,0.1,2.9,0.1,8.5,0.1s6.3,0,8.5-0.1
			c1.7,0,3.4-0.3,5-1c2.8-1.1,4.9-3.2,6-6c0.6-1.6,1-3.3,1-5c0.1-2.2,0.1-2.9,0.1-8.5s0-6.3-0.1-8.5c0-1.7-0.3-3.4-1-5
			c-0.5-1.4-1.3-2.6-2.4-3.6c-1-1-2.3-1.9-3.6-2.4c-1.6-0.6-3.3-1-5-1H20.5z"/>
		<path class="st0" d="M20.5,10C14.7,10,10,14.7,10,20.5S14.7,31,20.5,31S31,26.3,31,20.5l0,0c0.1-5.7-4.5-10.4-10.2-10.5
			C20.7,10,20.6,10,20.5,10z M20.5,27.4c-3.8,0-6.8-3-6.8-6.8s3-6.8,6.8-6.8s6.8,3,6.8,6.8S24.3,27.4,20.5,27.4z"/>
		<circle class="st0" cx="31.5" cy="9.6" r="2.5"/>
	</g>
</g>
</svg>
