<?xml version="1.0" encoding="utf-8"?>
<!-- Generator: Adobe Illustrator 24.3.0, SVG Export Plug-In . SVG Version: 6.00 Build 0)  -->
<svg version="1.1" id="Layer_1" xmlns="http://www.w3.org/2000/svg" xmlns:xlink="http://www.w3.org/1999/xlink" x="0px" y="0px"
	 viewBox="0 0 411.8 412" style="enable-background:new 0 0 411.8 412;" xml:space="preserve">
<style type="text/css">
	.st0{fill:#FFFFFF;}
</style>
<g id="Capa_2_1_">
	<g id="Capa_1-2">
		<path class="st0" d="M100.6,50.7c-0.2,27.8-22.9,50.1-50.7,49.9C22.1,100.3-0.2,77.6,0,49.9C0.2,22.3,22.7,0,50.3,0
			C78.1,0.1,100.7,22.8,100.6,50.7L100.6,50.7z M93.2,137.3h-85V412h85V137.3z M229.1,137.3h-81.5V412h81.5V267.8
			c0-38.6,17.8-61.6,51.8-61.6c31.3,0,46.3,22.1,46.3,61.6V412h84.6V238.1c0-73.6-41.7-109.1-99.9-109.1s-82.8,45.4-82.8,45.4
			L229.1,137.3L229.1,137.3z"/>
	</g>
</g>
</svg>
