<?xml version="1.0" encoding="utf-8"?>
<!-- Generator: Adobe Illustrator 24.3.0, SVG Export Plug-In . SVG Version: 6.00 Build 0)  -->
<svg version="1.1" id="Capa_1" xmlns="http://www.w3.org/2000/svg" xmlns:xlink="http://www.w3.org/1999/xlink" x="0px" y="0px"
	 viewBox="0 0 173.3 421.6" style="enable-background:new 0 0 173.3 421.6;" xml:space="preserve">
<style type="text/css">
	.st0{enable-background:new    ;}
	.st1{fill:#002856;}
	.st2{fill:none;stroke:#002856;stroke-width:2.07;stroke-miterlimit:10;}
</style>
<g id="Capa_2_1_">
	<g id="Capa_1-2">
		<g class="st0">
			<path class="st1" d="M58.8,145.8h1.8v17.1h7v1.8h-8.8V145.8z"/>
		</g>
		<g class="st0">
			<path class="st1" d="M78.4,145.3c2.8,0,5.1,1,6.9,2.9c1.9,1.9,2.8,4.3,2.8,7.1c0,2.8-0.9,5.1-2.8,7.1c-1.9,1.9-4.1,2.9-6.8,2.9
				c-2.7,0-5-1-6.8-2.9s-2.8-4.2-2.8-7c0-1.8,0.4-3.5,1.3-5.1s2-2.8,3.5-3.6C75.1,145.8,76.7,145.3,78.4,145.3z M78.5,147.2
				c-1.3,0-2.6,0.4-3.8,1.1c-1.2,0.7-2.1,1.7-2.8,3s-1,2.6-1,4.1c0,2.3,0.8,4.2,2.2,5.7s3.3,2.3,5.4,2.3c1.4,0,2.7-0.4,3.9-1.1
				c1.2-0.7,2.1-1.7,2.8-2.9c0.7-1.2,1-2.6,1-4.1c0-1.5-0.3-2.9-1-4.1c-0.7-1.2-1.6-2.2-2.8-2.9C81.1,147.6,79.8,147.2,78.5,147.2z"
				/>
		</g>
		<g class="st0">
			<path class="st1" d="M89.1,147.7v-1.9h10v1.9H95v17.1h-1.9v-17.1H89.1z"/>
			<path class="st1" d="M101.7,145.8h10.4v1.9h-8.6v5.9h8.5v1.9h-8.5v7.4h8.5v1.9h-10.4V145.8z"/>
		</g>
		<g class="st0">
			<path class="st1" d="M44.6,176.9v19.4h-1.7v-2.4c-0.7,0.9-1.5,1.6-2.4,2.1c-0.9,0.5-1.9,0.7-3,0.7c-1.9,0-3.5-0.7-4.9-2.2
				c-1.3-1.4-2-3.2-2-5.2c0-2,0.7-3.7,2-5.2c1.4-1.4,3-2.1,4.9-2.1c1.1,0,2.1,0.2,3,0.7c0.9,0.5,1.7,1.2,2.4,2.2v-8H44.6z
				 M37.6,183.7c-1,0-1.9,0.2-2.7,0.7c-0.8,0.5-1.5,1.2-1.9,2.1c-0.5,0.9-0.7,1.8-0.7,2.8c0,1,0.2,1.9,0.7,2.8
				c0.5,0.9,1.1,1.6,2,2.1c0.8,0.5,1.7,0.8,2.6,0.8c0.9,0,1.8-0.2,2.7-0.7c0.8-0.5,1.5-1.2,2-2s0.7-1.8,0.7-2.9c0-1.6-0.5-3-1.5-4.1
				C40.4,184.3,39.1,183.7,37.6,183.7z"/>
			<path class="st1" d="M59.8,191.7l1.5,0.8c-0.5,1-1,1.8-1.7,2.4c-0.6,0.6-1.3,1.1-2.1,1.4c-0.8,0.3-1.7,0.5-2.7,0.5
				c-2.2,0-3.9-0.7-5.2-2.2s-1.9-3.2-1.9-5.1c0-1.8,0.5-3.4,1.6-4.8c1.3-1.8,3.1-2.7,5.3-2.7c2.3,0,4.1,0.9,5.5,2.7
				c1,1.3,1.5,2.9,1.5,4.8H49.6c0,1.6,0.5,3,1.5,4c1,1,2.2,1.6,3.6,1.6c0.7,0,1.4-0.1,2-0.4c0.6-0.2,1.2-0.6,1.7-1
				C58.8,193.3,59.3,192.6,59.8,191.7z M59.8,187.9c-0.2-1-0.6-1.7-1-2.3c-0.4-0.6-1-1-1.8-1.4c-0.7-0.4-1.5-0.5-2.3-0.5
				c-1.3,0-2.5,0.4-3.4,1.3c-0.7,0.6-1.2,1.6-1.6,2.9H59.8z"/>
			<path class="st1" d="M74.7,177.4h3.6v18.9h-1.8v-17.1h-2.9L74.7,177.4z"/>
			<path class="st1" d="M93.4,176.9l1.5,1l-4.9,7.7c0.7-0.2,1.3-0.3,1.9-0.3c1.4,0,2.7,0.5,3.7,1.6c1,1.1,1.5,2.4,1.5,4
				c0,1.1-0.2,2.1-0.7,3c-0.5,0.9-1.2,1.6-2.1,2.1c-0.9,0.5-1.9,0.8-2.9,0.8c-1,0-1.9-0.3-2.8-0.8c-0.9-0.5-1.5-1.2-2-2.1
				c-0.5-0.9-0.7-1.9-0.7-2.9c0-0.8,0.2-1.6,0.5-2.4s0.8-1.9,1.6-3.1L93.4,176.9z M91.4,187c-1.1,0-2,0.4-2.7,1.2
				c-0.7,0.8-1.1,1.7-1.1,2.8c0,1.1,0.4,2,1.1,2.8c0.7,0.8,1.7,1.2,2.7,1.2c1.1,0,2-0.4,2.7-1.2c0.7-0.8,1.1-1.7,1.1-2.8
				c0-1.1-0.4-2-1.1-2.8C93.4,187.4,92.5,187,91.4,187z"/>
			<path class="st1" d="M98.9,186.9c0-2.5,0.3-4.4,0.8-5.8c0.5-1.4,1.2-2.4,2.2-3.1c0.9-0.7,2-1.1,3.2-1.1c1.2,0,2.2,0.4,3.2,1.1
				c1,0.7,1.7,1.8,2.3,3.2s0.8,3.3,0.8,5.7c0,2.4-0.3,4.3-0.8,5.7c-0.5,1.4-1.3,2.5-2.3,3.2c-1,0.7-2,1.1-3.2,1.1
				c-1.2,0-2.2-0.3-3.1-1s-1.7-1.7-2.2-3.1C99.2,191.3,98.9,189.4,98.9,186.9z M100.7,186.9c0,2.1,0.2,3.8,0.6,4.9
				c0.4,1.1,0.9,1.9,1.6,2.5c0.7,0.6,1.5,0.9,2.3,0.9c0.8,0,1.6-0.3,2.3-0.8c0.7-0.6,1.2-1.4,1.6-2.5c0.5-1.3,0.7-3,0.7-4.9
				c0-1.9-0.2-3.5-0.6-4.7s-1-2.1-1.7-2.7s-1.5-0.8-2.3-0.8c-0.8,0-1.6,0.3-2.3,0.8c-0.7,0.6-1.2,1.4-1.6,2.5
				C100.8,183.2,100.7,184.8,100.7,186.9z"/>
			<path class="st1" d="M121.1,182.3h1.7v2.4c0.6-0.9,1.2-1.5,1.9-2c0.9-0.5,1.8-0.8,2.8-0.8c0.7,0,1.3,0.1,1.9,0.4
				c0.6,0.3,1.1,0.6,1.4,1.1c0.4,0.4,0.7,1.1,1,1.9c0.6-1.1,1.3-1.9,2.2-2.5c0.9-0.6,1.8-0.9,2.8-0.9c0.9,0,1.8,0.2,2.5,0.7
				c0.7,0.5,1.2,1.2,1.6,2c0.3,0.9,0.5,2.2,0.5,3.9v7.6h-1.8v-7.6c0-1.5-0.1-2.5-0.3-3.1c-0.2-0.6-0.6-1-1.1-1.4s-1.1-0.5-1.8-0.5
				c-0.8,0-1.6,0.3-2.3,0.8c-0.7,0.5-1.2,1.2-1.5,2.1c-0.3,0.9-0.5,2.3-0.5,4.3v5.5h-1.7v-7.2c0-1.7-0.1-2.8-0.3-3.4
				s-0.6-1.1-1.1-1.5s-1.1-0.5-1.8-0.5c-0.8,0-1.5,0.3-2.2,0.8c-0.7,0.5-1.2,1.2-1.5,2s-0.5,2.1-0.5,3.9v5.9h-1.7V182.3z"/>
		</g>
		<g class="st0">
			<path class="st1" d="M144.7,180.1h-1c0-1.1,0.4-2,1-2.7c0.7-0.7,1.5-1,2.5-1c1,0,1.8,0.3,2.4,1s0.9,1.4,0.9,2.3
				c0,0.6-0.1,1.2-0.4,1.7c-0.3,0.5-0.8,1.3-1.7,2.2l-2.6,2.9h4.9v1.1h-7.2l4-4.5c0.8-0.9,1.4-1.6,1.6-2c0.2-0.4,0.4-0.9,0.4-1.4
				c0-0.6-0.2-1.1-0.7-1.6c-0.4-0.4-1-0.7-1.6-0.7c-0.7,0-1.2,0.2-1.7,0.7C145,178.6,144.8,179.2,144.7,180.1z"/>
		</g>
		<g class="st0">
			<path class="st1" d="M87.4,228.5l21.5,46.1h-5l-7.3-15.2H76.8l-7.2,15.2h-5.1l21.8-46.1H87.4z M86.8,238.3L78.9,255h15.8
				L86.8,238.3z"/>
		</g>
		<rect x="1" y="1" class="st2" width="171.2" height="419.5"/>
		<g class="st0">
			<path class="st1" d="M49.8,207.3v14h-1.7v-2.4c-0.7,0.9-1.5,1.6-2.4,2.1c-0.9,0.5-1.9,0.7-3,0.7c-1.9,0-3.5-0.7-4.9-2.2
				s-2-3.2-2-5.2c0-2,0.7-3.7,2-5.2c1.4-1.4,3-2.1,4.9-2.1c1.1,0,2.1,0.2,3,0.7c0.9,0.5,1.7,1.2,2.4,2.2v-2.6H49.8z M42.9,208.6
				c-1,0-1.9,0.2-2.7,0.7c-0.8,0.5-1.5,1.2-1.9,2.1c-0.5,0.9-0.7,1.8-0.7,2.8c0,1,0.2,1.9,0.7,2.8c0.5,0.9,1.1,1.6,2,2.1
				c0.8,0.5,1.7,0.8,2.6,0.8c0.9,0,1.8-0.2,2.7-0.7c0.8-0.5,1.5-1.2,2-2c0.5-0.8,0.7-1.8,0.7-2.9c0-1.6-0.5-3-1.5-4.1
				C45.6,209.2,44.4,208.6,42.9,208.6z"/>
			<path class="st1" d="M61.7,208.3H60c0-1.9,0.6-3.4,1.8-4.6s2.6-1.8,4.3-1.8c1.7,0,3,0.6,4.1,1.7c1,1.1,1.6,2.5,1.6,4
				c0,1.1-0.2,2.1-0.7,3c-0.5,0.9-1.5,2.2-2.9,3.8l-4.5,5.1h8.4v1.8H59.5l7-7.8c1.4-1.6,2.3-2.7,2.8-3.5c0.4-0.8,0.6-1.6,0.6-2.4
				c0-1.1-0.4-2-1.1-2.8c-0.8-0.8-1.7-1.2-2.8-1.2c-1.2,0-2.1,0.4-2.9,1.2C62.3,205.7,61.8,206.8,61.7,208.3z"/>
			<path class="st1" d="M73.6,211.8c0-2.5,0.3-4.4,0.8-5.8c0.5-1.4,1.2-2.4,2.2-3.1c0.9-0.7,2-1.1,3.2-1.1c1.2,0,2.2,0.4,3.2,1.1
				c1,0.7,1.7,1.8,2.3,3.2s0.8,3.3,0.8,5.7c0,2.4-0.3,4.3-0.8,5.7c-0.5,1.4-1.3,2.5-2.3,3.2c-1,0.7-2,1.1-3.2,1.1
				c-1.2,0-2.2-0.3-3.1-1c-0.9-0.7-1.7-1.7-2.2-3.1C73.9,216.2,73.6,214.3,73.6,211.8z M75.3,211.8c0,2.1,0.2,3.8,0.6,4.9
				c0.4,1.1,0.9,1.9,1.6,2.5s1.5,0.9,2.3,0.9c0.8,0,1.6-0.3,2.3-0.8c0.7-0.6,1.2-1.4,1.6-2.5c0.5-1.3,0.7-3,0.7-4.9
				c0-1.9-0.2-3.5-0.6-4.7c-0.4-1.2-1-2.1-1.7-2.7c-0.7-0.6-1.5-0.8-2.3-0.8c-0.8,0-1.6,0.3-2.3,0.8c-0.7,0.6-1.2,1.4-1.6,2.5
				C75.5,208.1,75.3,209.7,75.3,211.8z"/>
			<path class="st1" d="M87.7,211.8c0-2.5,0.3-4.4,0.8-5.8c0.5-1.4,1.2-2.4,2.2-3.1s2-1.1,3.2-1.1c1.2,0,2.2,0.4,3.2,1.1
				s1.7,1.8,2.3,3.2s0.8,3.3,0.8,5.7c0,2.4-0.3,4.3-0.8,5.7c-0.5,1.4-1.3,2.5-2.3,3.2s-2,1.1-3.2,1.1c-1.2,0-2.2-0.3-3.1-1
				c-0.9-0.7-1.7-1.7-2.2-3.1C87.9,216.2,87.7,214.3,87.7,211.8z M89.4,211.8c0,2.1,0.2,3.8,0.6,4.9c0.4,1.1,0.9,1.9,1.6,2.5
				c0.7,0.6,1.5,0.9,2.3,0.9c0.8,0,1.6-0.3,2.3-0.8c0.7-0.6,1.2-1.4,1.6-2.5c0.5-1.3,0.7-3,0.7-4.9c0-1.9-0.2-3.5-0.6-4.7
				c-0.4-1.2-1-2.1-1.7-2.7c-0.7-0.6-1.5-0.8-2.3-0.8c-0.8,0-1.6,0.3-2.3,0.8c-0.7,0.6-1.2,1.4-1.6,2.5
				C89.6,208.1,89.4,209.7,89.4,211.8z"/>
			<path class="st1" d="M109.9,207.3h1.7v2.4c0.6-0.9,1.2-1.5,1.9-2c0.9-0.5,1.8-0.8,2.8-0.8c0.7,0,1.3,0.1,1.9,0.4
				c0.6,0.3,1.1,0.6,1.4,1.1c0.4,0.4,0.7,1.1,1,1.9c0.6-1.1,1.3-1.9,2.2-2.5s1.8-0.9,2.8-0.9c0.9,0,1.8,0.2,2.5,0.7
				c0.7,0.5,1.2,1.2,1.6,2c0.3,0.9,0.5,2.2,0.5,3.9v7.6h-1.8v-7.6c0-1.5-0.1-2.5-0.3-3.1c-0.2-0.6-0.6-1-1.1-1.4
				c-0.5-0.3-1.1-0.5-1.8-0.5c-0.8,0-1.6,0.3-2.3,0.8c-0.7,0.5-1.2,1.2-1.5,2.1c-0.3,0.9-0.5,2.3-0.5,4.3v5.5H119v-7.2
				c0-1.7-0.1-2.8-0.3-3.4c-0.2-0.6-0.6-1.1-1.1-1.5c-0.5-0.4-1.1-0.5-1.8-0.5c-0.8,0-1.5,0.3-2.2,0.8c-0.7,0.5-1.2,1.2-1.5,2
				c-0.3,0.8-0.5,2.2-0.5,3.9v5.9h-1.7V207.3z"/>
		</g>
		<g class="st0">
			<path class="st1" d="M133.4,205h-1c0-1.1,0.4-2,1-2.7c0.7-0.7,1.5-1,2.5-1c1,0,1.8,0.3,2.4,1c0.6,0.6,0.9,1.4,0.9,2.3
				c0,0.6-0.1,1.2-0.4,1.7s-0.8,1.3-1.7,2.2l-2.6,2.9h4.9v1.1h-7.2l4-4.5c0.8-0.9,1.3-1.6,1.6-2s0.4-0.9,0.4-1.4
				c0-0.6-0.2-1.1-0.7-1.6c-0.4-0.4-1-0.7-1.6-0.7c-0.7,0-1.2,0.2-1.7,0.7C133.8,203.5,133.5,204.2,133.4,205z"/>
		</g>
	</g>
</g>
</svg>
