<?xml version="1.0" encoding="utf-8"?>
<!-- Generator: Adobe Illustrator 24.3.0, SVG Export Plug-In . SVG Version: 6.00 Build 0)  -->
<svg version="1.1" id="Capa_1" xmlns="http://www.w3.org/2000/svg" xmlns:xlink="http://www.w3.org/1999/xlink" x="0px" y="0px"
	 viewBox="0 0 173.1 441.8" style="enable-background:new 0 0 173.1 441.8;" xml:space="preserve">
<style type="text/css">
	.st0{enable-background:new    ;}
	.st1{fill:#002856;}
	.st2{fill:none;stroke:#002856;stroke-width:2.07;stroke-miterlimit:10;}
</style>
<g id="Capa_2_1_">
	<g id="Capa_1-2">
		<g class="st0">
			<path class="st1" d="M60.1,166.1h1.8v17.1h7v1.8h-8.8V166.1z"/>
		</g>
		<g class="st0">
			<path class="st1" d="M79.6,165.6c2.8,0,5.1,1,6.9,2.9c1.9,1.9,2.8,4.3,2.8,7.1c0,2.8-0.9,5.1-2.8,7.1c-1.9,1.9-4.1,2.9-6.8,2.9
				c-2.7,0-5-1-6.8-2.9s-2.8-4.2-2.8-7c0-1.8,0.4-3.5,1.3-5.1s2-2.8,3.5-3.6C76.4,166.1,77.9,165.6,79.6,165.6z M79.7,167.5
				c-1.3,0-2.6,0.4-3.8,1.1c-1.2,0.7-2.1,1.7-2.8,3s-1,2.6-1,4.1c0,2.3,0.8,4.2,2.2,5.7s3.3,2.3,5.4,2.3c1.4,0,2.7-0.4,3.9-1.1
				c1.2-0.7,2.1-1.7,2.8-2.9c0.7-1.2,1-2.6,1-4.1c0-1.5-0.3-2.9-1-4.1c-0.7-1.2-1.6-2.2-2.8-2.9C82.4,167.9,81.1,167.5,79.7,167.5z"
				/>
		</g>
		<g class="st0">
			<path class="st1" d="M90.3,168v-1.9h10v1.9h-4.1v17.1h-1.9V168H90.3z"/>
			<path class="st1" d="M102.9,166.1h10.4v1.9h-8.6v5.9h8.5v1.9h-8.5v7.4h8.5v1.9h-10.4V166.1z"/>
		</g>
		<g class="st0">
			<path class="st1" d="M63.5,248.8L85,294.9h-5l-7.3-15.2H52.9l-7.2,15.2h-5.1l21.8-46.1H63.5z M62.9,258.6L55,275.3h15.8
				L62.9,258.6z"/>
			<path class="st1" d="M111,248.8l21.5,46.1h-5l-7.3-15.2h-19.9l-7.2,15.2h-5.1l21.8-46.1H111z M110.4,258.6l-7.9,16.7h15.8
				L110.4,258.6z"/>
		</g>
		<rect x="1" y="1" class="st2" width="171" height="439.7"/>
		<g class="st0">
			<path class="st1" d="M41.5,195.1v19.4h-1.7v-2.4c-0.7,0.9-1.5,1.6-2.4,2.1c-0.9,0.5-1.9,0.7-3,0.7c-1.9,0-3.5-0.7-4.9-2.2
				c-1.3-1.4-2-3.2-2-5.2c0-2,0.7-3.7,2-5.2c1.4-1.4,3-2.1,4.9-2.1c1.1,0,2.1,0.2,3,0.7c0.9,0.5,1.7,1.2,2.4,2.2v-8H41.5z
				 M34.6,201.9c-1,0-1.9,0.2-2.7,0.7c-0.8,0.5-1.5,1.2-1.9,2.1c-0.5,0.9-0.7,1.8-0.7,2.8c0,1,0.2,1.9,0.7,2.8
				c0.5,0.9,1.1,1.6,2,2.1c0.8,0.5,1.7,0.8,2.6,0.8c0.9,0,1.8-0.2,2.7-0.7c0.8-0.5,1.5-1.2,2-2s0.7-1.8,0.7-2.9c0-1.6-0.5-3-1.5-4.1
				C37.4,202.5,36.1,201.9,34.6,201.9z"/>
			<path class="st1" d="M56.8,209.9l1.5,0.8c-0.5,1-1,1.8-1.7,2.4c-0.6,0.6-1.3,1.1-2.1,1.4c-0.8,0.3-1.7,0.5-2.7,0.5
				c-2.2,0-3.9-0.7-5.2-2.2s-1.9-3.2-1.9-5.1c0-1.8,0.5-3.4,1.6-4.8c1.3-1.8,3.1-2.7,5.3-2.7c2.3,0,4.1,0.9,5.5,2.7
				c1,1.3,1.5,2.9,1.5,4.8H46.6c0,1.6,0.5,3,1.5,4c1,1,2.2,1.6,3.6,1.6c0.7,0,1.4-0.1,2-0.4c0.6-0.2,1.2-0.6,1.7-1
				C55.8,211.5,56.2,210.8,56.8,209.9z M56.8,206.1c-0.2-1-0.6-1.7-1-2.3c-0.4-0.6-1-1-1.8-1.4c-0.7-0.4-1.5-0.5-2.3-0.5
				c-1.3,0-2.5,0.4-3.4,1.3c-0.7,0.6-1.2,1.6-1.6,2.9H56.8z"/>
			<path class="st1" d="M69.9,201.5h-1.7c0-1.9,0.6-3.4,1.8-4.6s2.6-1.8,4.3-1.8c1.7,0,3,0.6,4.1,1.7c1,1.1,1.6,2.5,1.6,4
				c0,1.1-0.2,2.1-0.7,3c-0.5,0.9-1.5,2.2-2.9,3.8l-4.5,5.1h8.4v1.8H67.8l7-7.8c1.4-1.6,2.3-2.7,2.8-3.5c0.4-0.8,0.6-1.6,0.6-2.4
				c0-1.1-0.4-2-1.1-2.8c-0.8-0.8-1.7-1.2-2.8-1.2c-1.2,0-2.1,0.4-2.9,1.2C70.5,198.9,70,200.1,69.9,201.5z"/>
			<path class="st1" d="M81.9,205.1c0-2.5,0.3-4.4,0.8-5.8c0.5-1.4,1.2-2.4,2.2-3.1c0.9-0.7,2-1.1,3.2-1.1c1.2,0,2.2,0.4,3.2,1.1
				s1.7,1.8,2.3,3.2s0.8,3.3,0.8,5.7c0,2.4-0.3,4.3-0.8,5.7c-0.5,1.4-1.3,2.5-2.3,3.2s-2,1.1-3.2,1.1c-1.2,0-2.2-0.3-3.1-1
				c-0.9-0.7-1.7-1.7-2.2-3.1S81.9,207.6,81.9,205.1z M83.6,205.1c0,2.1,0.2,3.8,0.6,4.9c0.4,1.1,0.9,1.9,1.6,2.5s1.5,0.9,2.3,0.9
				c0.8,0,1.6-0.3,2.3-0.8c0.7-0.6,1.2-1.4,1.6-2.5c0.5-1.3,0.7-3,0.7-4.9c0-1.9-0.2-3.5-0.6-4.7c-0.4-1.2-1-2.1-1.7-2.7
				c-0.7-0.6-1.5-0.8-2.3-0.8c-0.8,0-1.6,0.3-2.3,0.8c-0.7,0.6-1.2,1.4-1.6,2.5C83.8,201.3,83.6,203,83.6,205.1z"/>
			<path class="st1" d="M105.9,195.1h0.4v13.2h2.2v1.8h-2.2v4.4h-1.8v-4.4h-8.7L105.9,195.1z M104.5,208.3v-8l-5.4,8H104.5z"/>
			<path class="st1" d="M118.1,200.5h1.7v2.4c0.6-0.9,1.2-1.5,1.9-2c0.9-0.5,1.8-0.8,2.8-0.8c0.7,0,1.3,0.1,1.9,0.4
				c0.6,0.3,1.1,0.6,1.4,1.1c0.4,0.4,0.7,1.1,1,1.9c0.6-1.1,1.3-1.9,2.2-2.5c0.9-0.6,1.8-0.9,2.8-0.9c0.9,0,1.8,0.2,2.5,0.7
				c0.7,0.5,1.2,1.2,1.6,2c0.3,0.9,0.5,2.2,0.5,3.9v7.6h-1.8v-7.6c0-1.5-0.1-2.5-0.3-3.1c-0.2-0.6-0.6-1-1.1-1.4
				c-0.5-0.3-1.1-0.5-1.8-0.5c-0.8,0-1.6,0.3-2.3,0.8c-0.7,0.5-1.2,1.2-1.5,2.1c-0.3,0.9-0.5,2.3-0.5,4.3v5.5h-1.7v-7.2
				c0-1.7-0.1-2.8-0.3-3.4s-0.6-1.1-1.1-1.5s-1.1-0.5-1.8-0.5c-0.8,0-1.5,0.3-2.2,0.8c-0.7,0.5-1.2,1.2-1.5,2
				c-0.3,0.8-0.5,2.1-0.5,3.9v5.9h-1.7V200.5z"/>
		</g>
		<g class="st0">
			<path class="st1" d="M141.7,198.3h-1c0-1.1,0.4-2,1-2.7c0.7-0.7,1.5-1,2.5-1c1,0,1.8,0.3,2.4,1s0.9,1.4,0.9,2.3
				c0,0.6-0.1,1.2-0.4,1.7c-0.3,0.5-0.8,1.3-1.7,2.2l-2.6,2.9h4.9v1.1h-7.2l4-4.5c0.8-0.9,1.4-1.6,1.6-2c0.2-0.4,0.4-0.9,0.4-1.4
				c0-0.6-0.2-1.1-0.7-1.6c-0.4-0.4-1-0.7-1.6-0.7c-0.7,0-1.2,0.2-1.7,0.7S141.7,197.4,141.7,198.3z"/>
		</g>
		<g class="st0">
			<path class="st1" d="M46.7,225.5v14H45v-2.4c-0.7,0.9-1.5,1.6-2.4,2.1c-0.9,0.5-1.9,0.7-3,0.7c-1.9,0-3.5-0.7-4.9-2.2
				c-1.3-1.4-2-3.2-2-5.2c0-2,0.7-3.7,2-5.2c1.4-1.4,3-2.2,4.9-2.2c1.1,0,2.1,0.2,3,0.7c0.9,0.5,1.7,1.2,2.4,2.2v-2.6H46.7z
				 M39.8,226.8c-1,0-1.9,0.2-2.7,0.7c-0.8,0.5-1.5,1.2-1.9,2.1c-0.5,0.9-0.7,1.8-0.7,2.8c0,1,0.2,1.9,0.7,2.8s1.1,1.6,2,2.1
				s1.7,0.8,2.6,0.8c0.9,0,1.8-0.2,2.7-0.7c0.8-0.5,1.5-1.2,2-2c0.5-0.8,0.7-1.8,0.7-2.9c0-1.6-0.5-3-1.5-4.1
				C42.6,227.4,41.3,226.8,39.8,226.8z"/>
			<path class="st1" d="M59.1,224.9h-1.9c0.3-1.6,1-2.8,1.9-3.6c1-0.8,2.1-1.3,3.4-1.3c0.9,0,1.8,0.2,2.7,0.7
				c0.8,0.5,1.5,1.1,1.9,1.8c0.4,0.8,0.7,1.6,0.7,2.4c0,1.6-0.8,2.9-2.3,3.9c0.9,0.4,1.6,0.9,2.2,1.6c0.8,1,1.2,2.1,1.2,3.4
				c0,1.1-0.3,2.1-0.8,3.1c-0.5,1-1.3,1.7-2.2,2.3c-0.9,0.5-2,0.8-3.2,0.8c-1.6,0-2.9-0.5-3.9-1.4s-1.7-2.3-2.1-4.1h1.8
				c0.3,1.2,0.8,2.1,1.3,2.7c0.8,0.7,1.7,1,2.9,1c1.3,0,2.4-0.4,3.2-1.2c0.8-0.8,1.2-1.8,1.2-2.9c0-0.7-0.2-1.4-0.6-2.1
				c-0.4-0.6-0.9-1.1-1.6-1.5c-0.7-0.3-1.7-0.5-3.1-0.6v-1.7c0.8,0,1.6-0.2,2.3-0.5s1.2-0.7,1.5-1.2s0.5-1,0.5-1.5
				c0-0.8-0.3-1.5-0.9-2.1c-0.6-0.6-1.4-0.9-2.4-0.9c-0.8,0-1.5,0.2-2,0.7S59.5,223.8,59.1,224.9z"/>
			<path class="st1" d="M70.6,230c0-2.5,0.3-4.4,0.8-5.8s1.2-2.4,2.2-3.1c0.9-0.7,2-1.1,3.2-1.1c1.2,0,2.2,0.4,3.2,1.1
				c1,0.7,1.7,1.8,2.3,3.2s0.8,3.3,0.8,5.7c0,2.4-0.3,4.3-0.8,5.7c-0.5,1.4-1.3,2.5-2.3,3.2c-1,0.7-2,1.1-3.2,1.1
				c-1.2,0-2.2-0.3-3.1-1c-0.9-0.7-1.7-1.7-2.2-3.1S70.6,232.5,70.6,230z M72.3,230c0,2.1,0.2,3.8,0.6,4.8c0.4,1.1,0.9,1.9,1.6,2.5
				c0.7,0.6,1.5,0.8,2.3,0.8c0.8,0,1.6-0.3,2.3-0.8c0.7-0.6,1.2-1.4,1.6-2.5c0.5-1.3,0.7-3,0.7-4.9c0-1.9-0.2-3.5-0.6-4.7
				c-0.4-1.2-1-2.1-1.7-2.7c-0.7-0.6-1.5-0.8-2.3-0.8c-0.8,0-1.6,0.3-2.3,0.8c-0.7,0.6-1.2,1.4-1.6,2.5
				C72.5,226.3,72.3,227.9,72.3,230z"/>
			<path class="st1" d="M84.6,230c0-2.5,0.3-4.4,0.8-5.8s1.2-2.4,2.2-3.1c0.9-0.7,2-1.1,3.2-1.1c1.2,0,2.2,0.4,3.2,1.1
				c1,0.7,1.7,1.8,2.3,3.2s0.8,3.3,0.8,5.7c0,2.4-0.3,4.3-0.8,5.7c-0.5,1.4-1.3,2.5-2.3,3.2c-1,0.7-2,1.1-3.2,1.1
				c-1.2,0-2.2-0.3-3.1-1s-1.7-1.7-2.2-3.1S84.6,232.5,84.6,230z M86.4,230c0,2.1,0.2,3.8,0.6,4.8c0.4,1.1,0.9,1.9,1.6,2.5
				c0.7,0.6,1.5,0.8,2.3,0.8c0.8,0,1.6-0.3,2.3-0.8c0.7-0.6,1.2-1.4,1.6-2.5c0.5-1.3,0.7-3,0.7-4.9c0-1.9-0.2-3.5-0.6-4.7
				c-0.4-1.2-1-2.1-1.7-2.7s-1.5-0.8-2.3-0.8c-0.8,0-1.6,0.3-2.3,0.8c-0.7,0.6-1.3,1.4-1.6,2.5C86.5,226.3,86.4,227.9,86.4,230z"/>
			<path class="st1" d="M106.8,225.5h1.7v2.4c0.6-0.9,1.2-1.5,1.9-2c0.9-0.5,1.8-0.8,2.8-0.8c0.7,0,1.3,0.1,1.9,0.4s1.1,0.6,1.4,1.1
				c0.4,0.4,0.7,1.1,1,1.9c0.6-1.1,1.3-1.9,2.2-2.5c0.9-0.6,1.8-0.9,2.8-0.9c0.9,0,1.8,0.2,2.5,0.7c0.7,0.5,1.2,1.2,1.6,2
				c0.3,0.9,0.5,2.2,0.5,3.9v7.6h-1.8v-7.6c0-1.5-0.1-2.5-0.3-3.1c-0.2-0.6-0.6-1-1.1-1.4c-0.5-0.3-1.1-0.5-1.8-0.5
				c-0.8,0-1.6,0.3-2.3,0.8c-0.7,0.5-1.2,1.2-1.5,2.1s-0.5,2.3-0.5,4.3v5.5H116v-7.2c0-1.7-0.1-2.8-0.3-3.4
				c-0.2-0.6-0.6-1.1-1.1-1.5c-0.5-0.4-1.1-0.5-1.8-0.5c-0.8,0-1.5,0.3-2.2,0.8s-1.2,1.2-1.5,2s-0.5,2.2-0.5,3.9v5.9h-1.7V225.5z"/>
		</g>
		<g class="st0">
			<path class="st1" d="M130.4,223.2h-1c0-1.1,0.4-2,1-2.7c0.7-0.7,1.5-1,2.5-1c1,0,1.8,0.3,2.4,1c0.6,0.6,0.9,1.4,0.9,2.3
				c0,0.6-0.1,1.2-0.4,1.7c-0.3,0.5-0.8,1.3-1.7,2.2l-2.6,2.9h4.9v1.1h-7.2l4-4.5c0.8-0.9,1.4-1.6,1.6-2c0.2-0.4,0.4-0.9,0.4-1.4
				c0-0.6-0.2-1.1-0.7-1.6s-1-0.7-1.6-0.7c-0.7,0-1.2,0.2-1.7,0.7S130.5,222.4,130.4,223.2z"/>
		</g>
	</g>
</g>
</svg>
