<svg xmlns="http://www.w3.org/2000/svg" viewBox="0 0 300.91 57.67"><defs><style>.cls-1{font-size:26.42px;font-family:FuturaPT-Book, Futura PT;letter-spacing:0.04em;}.cls-1,.cls-2{fill:#002856;}</style></defs><g id="Capa_2" data-name="Capa 2"><g id="Capa_1-2" data-name="Capa 1"><text class="cls-1" transform="translate(94.96 37.53)">Mantenimiento</text><path class="cls-2" d="M36.53,0A36.52,36.52,0,0,0,6.75,57.67h3.41a33.81,33.81,0,1,1,52.74,0h3.41A36.52,36.52,0,0,0,36.53,0Z"/><path class="cls-2" d="M49.06,57.67a7.89,7.89,0,0,1-7.29-4.44,8.58,8.58,0,0,1-.53-5,1.09,1.09,0,0,0-.33-1c-1.36-1.34-2.7-2.71-4.08-4-.37-.36-.38-.6,0-1,1.35-1.32,2.69-2.65,4-4,.36-.37.59-.33.92,0,1.35,1.37,2.71,2.71,4.06,4.08a1.21,1.21,0,0,0,1,.35,13.62,13.62,0,0,1,3.72,0,7.19,7.19,0,0,1,4.81,3.73,6.88,6.88,0,0,1,1,4.05,15.27,15.27,0,0,1-.69,2.82c-.14.44-.66.43-1.09,0-.84-.82-1.65-1.65-2.48-2.47s-1.35-1.37-2-2A1.92,1.92,0,0,0,48,48.23a1.82,1.82,0,0,0-1.15,2,2.52,2.52,0,0,0,.68,1.22c1.4,1.45,2.84,2.87,4.27,4.3.5.5.55,1,.11,1.2a4.24,4.24,0,0,1-.91.37C50.25,57.48,49.52,57.59,49.06,57.67Z"/><path class="cls-2" d="M16.73,25.34c.17-.64.42-1.68.73-2.7.15-.48.63-.52,1.06-.12s.95.93,1.42,1.4C21,25,22,26,23,27a1.88,1.88,0,1,0,2.66-2.66c-1.4-1.42-2.83-2.83-4.23-4.25-.16-.16-.4-.34-.42-.52s.07-.71.23-.77A7.61,7.61,0,0,1,31.07,22a7.21,7.21,0,0,1,1,4.28c0,.53-.18,1.07-.18,1.6a1.22,1.22,0,0,0,.35.74Q34,30.4,35.83,32.19c.36.35.41.56,0,.94-1.38,1.32-2.73,2.69-4.06,4.06-.33.34-.53.33-.85,0-1.19-1.23-2.41-2.42-3.61-3.64a1.16,1.16,0,0,0-1-.34,14,14,0,0,1-3.72,0,7.2,7.2,0,0,1-4.78-3.67A8.86,8.86,0,0,1,16.73,25.34Z"/><path class="cls-2" d="M43.47,27.9a1.63,1.63,0,0,1-.26-2.15A2.47,2.47,0,0,0,43,23.09,6.53,6.53,0,0,0,39,20c-.86-.28-1.75-.46-2.63-.7a5.32,5.32,0,0,1-.77-.42,4.43,4.43,0,0,1,1.23-.43,19.52,19.52,0,0,1,3.59.1,13.56,13.56,0,0,1,5.81,2.77,20.43,20.43,0,0,1,5.6,5.52A6.68,6.68,0,0,1,53,29.62a4.47,4.47,0,0,0,.86,1.62.89.89,0,0,0,.59-.17,1.2,1.2,0,0,1,2.11.51,1.61,1.61,0,0,1-.35,1.27c-.89,1-1.87,2-2.86,2.88a1.22,1.22,0,0,1-2-.24A1.14,1.14,0,0,1,51.53,34c.22-.24.27-.43,0-.62-.84-.64-1.68-1.27-2.56-1.87a1.26,1.26,0,0,0-.81-.17,1.77,1.77,0,0,1-1.61-.47c-.33-.36-.54-.22-.82.06l-6.83,6.83C37.61,39,36.3,40.31,35,41.62c-.36.38-.57.38-.93,0-.66-.77-1.39-1.48-2.11-2.24Z"/><path class="cls-2" d="M33.75,43.4a3.89,3.89,0,0,1-.44.84c-3.73,4.19-7.49,8.35-11.21,12.56a1.27,1.27,0,0,1-2.05.06c-.95-1-2-2-3-3-.74-.75-.75-1.22,0-1.92l9-8.12c1.18-1,2.34-2.12,3.52-3.17a1.21,1.21,0,0,1,1.88,0c.6.57,1.2,1.15,1.75,1.77A4,4,0,0,1,33.75,43.4Z"/></g></g></svg>