<svg xmlns="http://www.w3.org/2000/svg" viewBox="0 0 1921.74 475.97"><defs><style>.cls-1{fill:#fdf4ee;}.cls-2{fill:none;stroke:#e69e6c;stroke-miterlimit:10;stroke-width:4px;}</style></defs><g id="Capa_2" data-name="Capa 2"><g id="Capa_1-2" data-name="Capa 1"><path class="cls-1" d="M1921.39,6.07V476H1.39V48.25a552.47,552.47,0,0,0,383.76,154A552.46,552.46,0,0,0,736.58,77c.49-.4,6.81-5.65,9.44-7.91a300.68,300.68,0,0,1,380.21,1.34c3.46,3.27,11.52,10.19,17.36,15.87a486.34,486.34,0,0,0,315.53,116,483.73,483.73,0,0,0,318.63-119c4.17-4.39,15.81-14.22,23.35-21.71A261.22,261.22,0,0,1,1921.39,6.07Z"/><path class="cls-2" d="M1.39,48.25a552.47,552.47,0,0,0,383.76,154A552.46,552.46,0,0,0,736.58,77c.49-.4,6.81-5.65,9.44-7.91a300.68,300.68,0,0,1,380.21,1.34c3.46,3.27,11.52,10.19,17.36,15.87a486.34,486.34,0,0,0,315.53,116,483.73,483.73,0,0,0,318.63-119c4.17-4.39,15.81-14.22,23.35-21.71A261.22,261.22,0,0,1,1921.39,6.07"/></g></g></svg>