<svg xmlns="http://www.w3.org/2000/svg" viewBox="0 0 1920 474.04"><defs><style>.cls-1{fill:#fdf4ee;}</style></defs><g id="Capa_2" data-name="Capa 2"><g id="Capa_1-2" data-name="Capa 1"><path class="cls-1" d="M1920,4.1V474H0V46.28a552.47,552.47,0,0,0,383.76,154A552.45,552.45,0,0,0,735.19,75c.49-.4,6.81-5.65,9.43-7.91a300.67,300.67,0,0,1,380.21,1.34c3.47,3.27,11.53,10.19,17.37,15.87a486.38,486.38,0,0,0,315.53,116A483.69,483.69,0,0,0,1776.36,81.33c4.17-4.39,15.81-14.22,23.35-21.71A261.3,261.3,0,0,1,1920,4.1Z"/></g></g></svg>