<svg xmlns="http://www.w3.org/2000/svg" xmlns:xlink="http://www.w3.org/1999/xlink" viewBox="0 0 1126.74 705.29"><defs><style>.cls-1{fill:url(#Degradado_sin_nombre_11);}</style><linearGradient id="Degradado_sin_nombre_11" x1="563.37" y1="-975.99" x2="563.37" y2="-1681.28" gradientTransform="matrix(1, 0, 0, -1, 0, -975.99)" gradientUnits="userSpaceOnUse"><stop offset="0.01" stop-color="#7dc0dd"/><stop offset="1" stop-color="#1d1538"/></linearGradient></defs><g id="Capa_2" data-name="Capa 2"><g id="Capa_1-2" data-name="Capa 1"><path class="cls-1" d="M1126.74,705.29V115.1a153.23,153.23,0,0,1-70.59-32.58c-4.42-4.39-11.26-10.16-13.7-12.74a285.68,285.68,0,0,0-372.16-1.72c-3.42,3.33-8.15,7.39-10.19,9.31a175.46,175.46,0,0,1-112,40.14A175.46,175.46,0,0,1,437,78.16c-1.54-1.33-5.25-4.41-5.54-4.65A325.94,325.94,0,0,0,0,90.35V705.29Z"/></g></g></svg>