<svg xmlns="http://www.w3.org/2000/svg" xmlns:xlink="http://www.w3.org/1999/xlink" viewBox="0 0 1920 538.59"><defs><style>.cls-1{fill:url(#Degradado_sin_nombre_11);}</style><linearGradient id="Degradado_sin_nombre_11" x1="960" y1="6786.17" x2="960" y2="6247.59" gradientTransform="matrix(1, 0, 0, -1, 0, 6786.17)" gradientUnits="userSpaceOnUse"><stop offset="0.01" stop-color="#7dc0dd"/><stop offset="1" stop-color="#1d1538"/></linearGradient></defs><g id="Capa_2" data-name="Capa 2"><g id="Capa_1-2" data-name="Capa 1"><path class="cls-1" d="M1920,538.59V196.14a261.27,261.27,0,0,1-120.28-55.52c-7.54-7.49-19.18-17.32-23.35-21.71A486.8,486.8,0,0,0,1142.2,116c-5.84,5.68-13.9,12.6-17.36,15.87a299,299,0,0,1-190.93,68.4,299,299,0,0,1-189.29-67.06c-2.62-2.26-8.94-7.51-9.43-7.91A555.41,555.41,0,0,0,0,154V538.59Z"/></g></g></svg>