<svg xmlns="http://www.w3.org/2000/svg" viewBox="0 0 252.71 211.39"><defs><style>.cls-1{font-size:26px;font-family:FuturaPT-Book, Futura PT;}.cls-1,.cls-6{fill:#002856;}.cls-2{letter-spacing:-0.05em;}.cls-3{letter-spacing:-0.07em;}.cls-4{letter-spacing:-0.05em;}.cls-5{letter-spacing:-0.02em;}</style></defs><g id="Capa_2" data-name="Capa 2"><g id="Capa_1-2" data-name="Capa 1"><text class="cls-1" transform="translate(0.51 160.42)"><tspan class="cls-2">SIN PENALIZ</tspan><tspan class="cls-3" x="121.65" y="0">A</tspan><tspan class="cls-2" x="135.98" y="0">CIÓN</tspan><tspan x="194.53" y="0" xml:space="preserve"> POR </tspan><tspan class="cls-4" x="3.07" y="31.2">P</tspan><tspan class="cls-5" x="13.57" y="31.2">A</tspan><tspan x="29.22" y="31.2">GOS ANTICI</tspan><tspan class="cls-4" x="165.85" y="31.2">P</tspan><tspan x="176.35" y="31.2">ADOS</tspan></text><path class="cls-6" d="M133.17,90.87a1.52,1.52,0,0,0,1.53,1.53V89.34A1.53,1.53,0,0,0,133.17,90.87Z"/><path class="cls-6" d="M122.46,58.91A19.56,19.56,0,1,0,142,78.47,19.57,19.57,0,0,0,122.46,58.91Zm0,34.78a15.22,15.22,0,1,1,15.21-15.22A15.22,15.22,0,0,1,122.46,93.69Z"/><path class="cls-6" d="M127.2,74.28h4.35A6.52,6.52,0,0,0,125,67.76V65.59h-4.35v2.17a6.53,6.53,0,0,0,0,13v4.34A2.18,2.18,0,0,1,118.5,83h-4.34a6.52,6.52,0,0,0,6.52,6.52v2.17H125V89.5a6.52,6.52,0,1,0,0-13V72.11A2.17,2.17,0,0,1,127.2,74.28Zm-6.52,2.18a2.18,2.18,0,1,1,0-4.35ZM127.2,83A2.17,2.17,0,0,1,125,85.15V80.81A2.17,2.17,0,0,1,127.2,83Z"/><path class="cls-6" d="M173.69,39.34H84.59a2.19,2.19,0,0,0-2.18,2.18v4.35H80.24A2.18,2.18,0,0,0,78.06,48v4.35a2.17,2.17,0,0,0-2.16,2.16v47.83a2.15,2.15,0,0,0,2.16,2.16h82.6a2.15,2.15,0,0,0,2.17-2.16h4.35a2.18,2.18,0,0,0,2.18-2.17V95.86h4.33a2.18,2.18,0,0,0,2.19-2.18V41.52A2.19,2.19,0,0,0,173.69,39.34ZM80.24,56.74h6.21A8.64,8.64,0,0,1,80.24,63Zm0,43.47V94a8.67,8.67,0,0,1,6.21,6.22Zm78.24,0h-6.25A8.73,8.73,0,0,1,158.48,94Zm0-10.67a13,13,0,0,0-10.65,10.67H90.92A13,13,0,0,0,80.24,89.54V67.41A13.07,13.07,0,0,0,90.92,56.74h56.91a13,13,0,0,0,10.65,10.67Zm0-26.58a8.74,8.74,0,0,1-6.25-6.22h6.25ZM165,98h-2.18V54.55a2.17,2.17,0,0,0-2.17-2.16H82.41V50.22H165Zm6.52-6.52h-2.17V48a2.18,2.18,0,0,0-2.18-2.17H86.76V43.69h84.77Z"/><path class="cls-6" d="M71.85,113.13a66.32,66.32,0,1,1,103.46,0H182a71.65,71.65,0,1,0-116.82,0Z"/></g></g></svg>