<svg xmlns="http://www.w3.org/2000/svg" viewBox="0 0 82.53 82.44"><defs><style>.cls-1{fill:#002856;}</style></defs><g id="Capa_2" data-name="Capa 2"><g id="Portto"><path class="cls-1" d="M41.31,12.18,82.53,53.4l-29.05,29L42.36,71.32l1.69-1.69,9.08,9.08.35.35.35-.35,25-25,.35-.35-.35-.35L41.66,15.91l-.35-.35-.35.35L16.74,40.05l-1.69-1.68L41.31,12.18"/><path class="cls-1" d="M11.17,42.24l1.68,1.69L3.74,53.05l-.35.35.35.35,25,25,.35.35.34-.35L65.83,42.27l1.7,1.7L29.05,82.44,0,53.4Z"/><path class="cls-1" d="M41.31,0,76.4,35.09l-5,5-1.7-1.7,3-2.94.35-.35-.35-.35-31-31-.35-.35L41,3.73l-31,31-.35.35.35.35,30.23,30.3-1.69,1.69L6.21,35.09,41.31,0"/><path class="cls-1" d="M41.3,24.43,46,29.1,41.3,33.77,36.64,29.1l4.66-4.67"/></g></g></svg>