<svg xmlns="http://www.w3.org/2000/svg" viewBox="0 0 303.93 57.67"><defs><style>.cls-1{font-size:26.42px;font-family:FuturaPT-Book, Futura PT;letter-spacing:0.04em;}.cls-1,.cls-3{fill:#002856;}.cls-2{letter-spacing:-0.01em;}</style></defs><g id="Capa_2" data-name="Capa 2"><g id="Capa_1-2" data-name="Capa 1"><text class="cls-1" transform="translate(94.96 37.45)">Seguridad <tspan class="cls-2" x="124.59" y="0">2</tspan><tspan x="139.36" y="0">4/7</tspan></text><path class="cls-3" d="M36.53,0A36.52,36.52,0,0,0,6.75,57.67h3.41a33.81,33.81,0,1,1,52.74,0h3.41A36.52,36.52,0,0,0,36.53,0Z"/><path class="cls-3" d="M46,16.27c-1.46-.23-4.05.45-5.62-.34a22.85,22.85,0,0,0-3.72-1.35,22.55,22.55,0,0,0-3.71,1.35c-1.58.79-4.16.11-5.63.34S22.88,19,22.1,20.32l4.16,3.93s.34-2.25,2.36-2.47c1.47-.16,3.42,0,5.55-.07A4.11,4.11,0,0,1,34,20.65c0-1.86,1.16-3.37,2.59-3.37s2.59,1.51,2.59,3.37a4.59,4.59,0,0,1-.14,1.06c2.12.09,4.07-.09,5.54.07,2,.22,2.36,2.47,2.36,2.47l4.17-3.93C50.34,19,47.41,16.49,46,16.27Z"/><path class="cls-3" d="M45.84,29a11.21,11.21,0,0,0,0-3.6s1.12-1.13-9.23-1.13-9.22,1.13-9.22,1.13a11.21,11.21,0,0,0,0,3.6s-1,.11-.68,2.36A1.94,1.94,0,0,0,29.2,33a11.25,11.25,0,0,0,7.41,6.75A11.25,11.25,0,0,0,44,33a1.94,1.94,0,0,0,2.49-1.69C46.85,29.09,45.84,29,45.84,29Zm-9.23,9.68C29,35.44,28.85,27.29,28.85,27.29s.67-.79,2.78,0a20.43,20.43,0,0,0,5,.86,20.59,20.59,0,0,0,5-.86c2.1-.79,2.78,0,2.78,0S44.28,35.44,36.61,38.66Z"/><path class="cls-3" d="M31.44,38.21s2.25,3.94,4.16,4.95L34.36,57.67H23.78c-2.47,0-1.8-4.72-1.68-8.32s-.12-4.05,2.36-6S31.44,38.21,31.44,38.21Z"/><path class="cls-3" d="M51,49.35c-.11-3.6.11-4.05-2.36-6s-7-5.17-7-5.17-2.25,3.94-4.16,4.95l1.23,14.51H49.27C51.75,57.67,51.07,53,51,49.35Zm-7.09,2.81c-2.53,0-2-4.95-2-4.95h3.94S46.4,52.16,43.87,52.16Z"/></g></g></svg>