<?xml version="1.0" encoding="utf-8"?>
<!-- Generator: Adobe Illustrator 24.3.0, SVG Export Plug-In . SVG Version: 6.00 Build 0)  -->
<svg version="1.1" id="Layer_1" xmlns="http://www.w3.org/2000/svg" xmlns:xlink="http://www.w3.org/1999/xlink" x="0px" y="0px"
	 viewBox="0 0 44.3 36" style="enable-background:new 0 0 44.3 36;" xml:space="preserve">
<style type="text/css">
	.st0{fill:#FFFFFF;}
</style>
<g id="Capa_2_1_">
	<g id="Capa_1-2">
		<path class="st0" d="M39.1,5.7c1.9-1.1,3.3-2.9,4-5c-1.8,1.1-3.7,1.8-5.8,2.2C33.9-0.8,28.1-1,24.5,2.5c-1.8,1.7-2.9,4.1-2.9,6.6
			c0,0.7,0.1,1.4,0.2,2.1C14.5,10.8,7.7,7.3,3.1,1.7c-2.4,4.2-1.2,9.5,2.8,12.1c-1.4,0-2.9-0.4-4.1-1.1v0.1c0,4.3,3,8.1,7.3,8.9
			C8.3,21.9,7.5,22,6.7,22c-0.6,0-1.1-0.1-1.7-0.1c1.2,3.7,4.6,6.2,8.5,6.3c-3.2,2.5-7.2,3.9-11.3,3.9c-0.7,0-1.5,0-2.2-0.1
			c4.2,2.6,9,4,13.9,4c16.7,0,25.9-13.8,25.9-25.9c0-0.4,0-0.8,0-1.2c1.8-1.3,3.3-2.9,4.5-4.7C42.7,5,40.9,5.5,39.1,5.7z"/>
	</g>
</g>
</svg>
