<?xml version="1.0" encoding="utf-8"?>
<!-- Generator: Adobe Illustrator 24.2.3, SVG Export Plug-In . SVG Version: 6.00 Build 0)  -->
<svg version="1.1" id="Capa_1" xmlns="http://www.w3.org/2000/svg" xmlns:xlink="http://www.w3.org/1999/xlink" x="0px" y="0px"
	 viewBox="0 0 780 780" style="enable-background:new 0 0 780 780;" xml:space="preserve">
<style type="text/css">
	.st0{fill:#E69E6C;}
	.st1{fill:#FFFFFF;}
</style>
<g>
	<g>
		<path class="st0" d="M192.4,278.2c2.8-91,57.9-165.4,137.4-190.1c84-26.1,172.1,2.7,222.9,75.1c35.9,51.2,45.9,107.8,26.7,168.3
			c-20.5,64.3-55.3,121.3-92.9,176.6c-23.9,35.2-49.4,69.3-74.6,103.6c-11.4,15.6-30.4,16.4-41.6,1.5
			c-48.9-64.9-96.9-130.4-134.7-202.6c-17.9-34.3-34-69.5-40.7-108C193.3,292.9,192.9,283.1,192.4,278.2z M391.1,604.4
			c2.2-3.8,3-5.5,4.1-7.1c32.7-46.7,66.5-92.6,97.9-140.2c28.2-42.7,51.9-88,66.9-137.5c32.6-107.4-58.5-234.1-192.7-217.3
			C257,116.1,184.9,231.4,226.9,338.1C265.2,435.8,327.7,518.1,391.1,604.4z"/>
	</g>
	<g>
		<path class="st0" d="M393.8,701.4c-52.8-1.2-101.3-3.7-147.8-18.8c-18.6-6-37.3-14.7-53.1-26c-22.1-15.8-22.2-39.1-0.7-56.1
			c12.8-10.2,28.5-17.6,44-23.5c15.5-6,32.3-8.8,48.6-12.7c7.7-1.8,15.9-1.8,17.8,7.9s-5.6,12.1-13.4,14.2
			c-20.7,5.5-41.4,11-61.7,17.8c-7.9,2.6-15.2,8.1-21.7,13.5c-8.7,7.3-9,15.2,0.3,21.4c11.9,7.9,24.7,15.8,38.2,19.6
			c96.5,27.4,193.5,27.6,290.2,0.7c12.9-3.6,25.4-10.1,36.9-17.2c14.1-8.7,13.7-18.9,0-28.4C549,598.5,523.1,592.4,497,587
			c-8.4-1.8-20.5-1.1-18.1-14.3c2.6-14,14.3-9.6,22.8-7.1c23.2,6.7,46.6,13.1,68.8,22.3c17,7.1,33.1,18.6,33.3,40
			c0.1,21.9-16.4,32.6-33.5,41.2c-40.9,20.7-85.5,26.2-130.4,30.2C423.2,700.7,406.4,700.8,393.8,701.4z"/>
	</g>
	<path class="st1" d="M391.1,604.4c-63.4-86.3-125.9-168.6-164.3-266.3c-41.9-106.7,30.1-222,140.6-235.9
		c134.1-16.8,225.3,109.9,192.7,217.3c-15,49.5-38.8,94.7-66.9,137.5c-31.4,47.6-65.2,93.5-97.9,140.2
		C394.2,598.8,393.3,600.6,391.1,604.4z M390.5,362c46.8,0,83.3-36.6,83.9-84.1c0.5-45-38-82.8-84.3-82.8
		c-45.9,0.1-83.6,38-83.3,83.7C307.3,325.2,344.2,361.9,390.5,362z"/>
	<g>
		<path class="st0" d="M390.5,362c-46.3,0-83.2-36.8-83.6-83.2c-0.4-45.7,37.4-83.6,83.3-83.7c46.3-0.1,84.8,37.7,84.3,82.8
			C473.8,325.4,437.3,362,390.5,362z"/>
	</g>
</g>
</svg>
