<svg xmlns="http://www.w3.org/2000/svg" viewBox="0 0 300.91 57.67"><defs><style>.cls-1{font-size:26.42px;font-family:FuturaPT-Book, Futura PT;letter-spacing:0.04em;}.cls-1,.cls-3{fill:#002856;}.cls-2{letter-spacing:0.03em;}</style></defs><g id="Capa_2" data-name="Capa 2"><g id="Capa_1-2" data-name="Capa 1"><text class="cls-1" transform="translate(94.96 37.53)">Urbani<tspan class="cls-2" x="77.09" y="0">z</tspan><tspan x="90.06" y="0">ación</tspan></text><path class="cls-3" d="M36.53,0A36.52,36.52,0,0,0,6.75,57.67h3.41a33.81,33.81,0,1,1,52.74,0h3.41A36.52,36.52,0,0,0,36.53,0Z"/><path class="cls-3" d="M45.52,18.52H30.11L17.26,56H55.43Zm-8.4,35.57-1.14,0L36.26,45l1.14,0Zm.37-12-1.14,0,.28-9,1.14,0Zm.35-11.56-1.14,0,.28-9,1.14,0Z"/><rect class="cls-3" x="17.26" y="56.28" width="38.17" height="1.23"/><polygon class="cls-3" points="16.53 56.12 15.61 55.8 28.83 18.36 29.75 18.68 16.53 56.12"/><polygon class="cls-3" points="56.52 56.1 45.78 18.66 46.72 18.39 57.45 55.83 56.52 56.1"/></g></g></svg>