<svg xmlns="http://www.w3.org/2000/svg" viewBox="0 0 21.99 22"><defs><style>.cls-1{fill:#f4f1ec;fill-rule:evenodd;}</style></defs><g id="Capa_2" data-name="Capa 2"><g id="Capa_1-2" data-name="Capa 1"><path class="cls-1" d="M22,10.44A10.8,10.8,0,0,0,.41,10.25c0,.15,0,.31,0,.47A10.65,10.65,0,0,0,2,16.25L0,22l6-1.9a10.81,10.81,0,0,0,16-9.38ZM11.2,19.73a9,9,0,0,1-5-1.5L2.71,19.35,3.85,16a8.9,8.9,0,0,1-1.73-5.28,8.51,8.51,0,0,1,0-.88A9.09,9.09,0,0,1,20.25,10c0,.24,0,.47,0,.71A9.06,9.06,0,0,1,11.2,19.73Z"/><path class="cls-1" d="M16.15,12.88c-.27-.13-1.57-.77-1.81-.85s-.42-.14-.6.13-.69.85-.84,1-.31.2-.58.07A7.33,7.33,0,0,1,10.2,12a7.82,7.82,0,0,1-1.47-1.82c-.16-.26,0-.4.11-.54s.26-.3.4-.46L9.34,9a3.17,3.17,0,0,0,.16-.32.47.47,0,0,0,0-.46c-.06-.13-.59-1.42-.82-1.95s-.44-.43-.59-.43-.33,0-.51,0a1,1,0,0,0-.71.33,3,3,0,0,0-.92,2.2,3.37,3.37,0,0,0,.14.89A5.75,5.75,0,0,0,7,11.06a10.89,10.89,0,0,0,4.52,4c2.7,1,2.7.7,3.18.65a2.6,2.6,0,0,0,1.78-1.25,2.09,2.09,0,0,0,.16-1.25C16.59,13.08,16.41,13,16.15,12.88Z"/></g></g></svg>