<svg xmlns="http://www.w3.org/2000/svg" viewBox="0 0 90.66 72"><defs><style>.cls-1{fill:#002856;}</style></defs><g id="Capa_2" data-name="Capa 2"><g id="Capa_1-2" data-name="Capa 1"><path class="cls-1" d="M45.33,0A45.32,45.32,0,0,0,8.38,71.57H12.6a42,42,0,1,1,65.46,0h4.22A45.32,45.32,0,0,0,45.33,0Z"/><path class="cls-1" d="M56.48,23.62H37.37L21.42,70.09H68.78ZM46.07,67.76l-1.42,0L45,56.5l1.41,0Zm.45-14.85-1.41,0,.34-11.22,1.42,0ZM47,38.56l-1.41,0,.34-11.23,1.42.05Z"/><rect class="cls-1" x="21.42" y="70.48" width="47.36" height="1.52"/><polygon class="cls-1" points="20.52 70.29 19.37 69.89 35.78 23.42 36.92 23.82 20.52 70.29"/><polygon class="cls-1" points="70.14 70.25 56.81 23.79 57.98 23.46 71.3 69.92 70.14 70.25"/></g></g></svg>