<svg xmlns="http://www.w3.org/2000/svg" viewBox="0 0 91.2 72"><defs><style>.cls-1{fill:#002856;}</style></defs><g id="Capa_2" data-name="Capa 2"><g id="Capa_1-2" data-name="Capa 1"><path class="cls-1" d="M45.6,0A45.59,45.59,0,0,0,8.43,72h4.25a42.21,42.21,0,1,1,65.84,0h4.26A45.6,45.6,0,0,0,45.6,0Z"/><circle class="cls-1" cx="45.6" cy="65.13" r="4.28"/><path class="cls-1" d="M59.11,59.37a2.47,2.47,0,0,1-2-1c0-.05-4.35-5.6-11.2-5.6-7,0-11.9,5.66-12,5.72a2.47,2.47,0,0,1-3.77-3.2c.26-.31,6.45-7.46,15.72-7.46s14.92,7.26,15.15,7.57a2.47,2.47,0,0,1-.49,3.46A2.4,2.4,0,0,1,59.11,59.37Z"/><path class="cls-1" d="M22.54,47.85a2.47,2.47,0,0,1-1.68-4.28A39.8,39.8,0,0,1,46.16,34a35.1,35.1,0,0,1,24.29,9.67,2.47,2.47,0,0,1-3.58,3.4A30.7,30.7,0,0,0,46.16,39a35,35,0,0,0-21.93,8.24A2.49,2.49,0,0,1,22.54,47.85Z"/><path class="cls-1" d="M76.9,37.65a2.46,2.46,0,0,1-1.83-.81,41.85,41.85,0,0,0-28.7-11.71C28.56,25.13,16.14,36.84,16,37a2.47,2.47,0,0,1-3.43-3.56c.56-.54,13.92-13.21,33.78-13.21A46.11,46.11,0,0,1,78.72,33.51a2.48,2.48,0,0,1-1.82,4.14Z"/></g></g></svg>