<svg xmlns="http://www.w3.org/2000/svg" viewBox="0 0 91.2 72"><defs><style>.cls-1{fill:#002856;}</style></defs><g id="Capa_2" data-name="Capa 2"><g id="Capa_1-2" data-name="Capa 1"><path class="cls-1" d="M45.6,0A45.59,45.59,0,0,0,8.43,72h4.25a42.21,42.21,0,1,1,65.84,0h4.26A45.6,45.6,0,0,0,45.6,0Z"/><path class="cls-1" d="M61.25,72a9.88,9.88,0,0,1-9.11-5.55,10.8,10.8,0,0,1-.66-6.29,1.32,1.32,0,0,0-.4-1.3c-1.71-1.69-3.38-3.39-5.1-5.06-.46-.45-.47-.75,0-1.21q2.54-2.48,5-5c.44-.46.73-.41,1.15,0,1.67,1.71,3.38,3.39,5.06,5.09a1.49,1.49,0,0,0,1.3.44,17.23,17.23,0,0,1,4.65,0,9,9,0,0,1,6,4.66,8.6,8.6,0,0,1,1.19,5.06,18.86,18.86,0,0,1-.87,3.52c-.17.54-.82.54-1.36,0-1-1-2.06-2.06-3.09-3.09-.85-.84-1.68-1.7-2.55-2.52a2.39,2.39,0,0,0-2.57-.58,2.27,2.27,0,0,0-1.43,2.5,3.15,3.15,0,0,0,.84,1.52c1.74,1.82,3.55,3.58,5.33,5.37.63.63.69,1.19.14,1.49a3.9,3.9,0,0,1-1.14.46C62.73,71.76,61.82,71.9,61.25,72Z"/><path class="cls-1" d="M20.89,31.63c.21-.79.52-2.09.91-3.37.18-.59.79-.65,1.33-.15s1.17,1.17,1.76,1.76c1.29,1.28,2.57,2.58,3.88,3.84a2.35,2.35,0,1,0,3.31-3.31c-1.75-1.78-3.52-3.53-5.28-5.3-.2-.2-.5-.43-.52-.66s.09-.89.29-1A9.48,9.48,0,0,1,38.79,27.4,9,9,0,0,1,40,32.74c0,.67-.22,1.34-.22,2a1.44,1.44,0,0,0,.43.92q2.24,2.28,4.52,4.52c.45.43.51.69,0,1.17C43,43,41.34,44.71,39.67,46.42c-.41.43-.65.42-1.06,0-1.48-1.53-3-3-4.5-4.54a1.47,1.47,0,0,0-1.3-.43,17.21,17.21,0,0,1-4.65,0,9,9,0,0,1-6-4.58A10.84,10.84,0,0,1,20.89,31.63Z"/><path class="cls-1" d="M54.27,34.83A2,2,0,0,1,54,32.14c.74-1.13.31-2.29-.23-3.31a8.11,8.11,0,0,0-5-3.81c-1.08-.35-2.19-.57-3.28-.88a6,6,0,0,1-1-.52A5.78,5.78,0,0,1,46,23.08a23.88,23.88,0,0,1,4.48.13,17,17,0,0,1,7.25,3.45,25.68,25.68,0,0,1,7,6.9A8.15,8.15,0,0,1,66.1,37a5.53,5.53,0,0,0,1.08,2c0,.07.55,0,.74-.21,1.21-1,2.32-.47,2.63.63a2,2,0,0,1-.43,1.6c-1.12,1.26-2.34,2.44-3.57,3.59a1.54,1.54,0,0,1-2.57-.3,1.43,1.43,0,0,1,.35-1.89c.28-.3.34-.53,0-.78-1.06-.79-2.11-1.58-3.2-2.32a1.58,1.58,0,0,0-1-.23,2.15,2.15,0,0,1-2-.58c-.42-.44-.68-.27-1,.07q-4.26,4.28-8.54,8.53C47,48.73,45.32,50.33,43.72,52c-.45.47-.72.48-1.16,0-.82-1-1.73-1.85-2.64-2.8Z"/><path class="cls-1" d="M42.14,54.18a5.14,5.14,0,0,1-.55,1c-4.66,5.23-9.36,10.43-14,15.68A1.59,1.59,0,0,1,25,71c-1.19-1.3-2.48-2.51-3.73-3.76-.92-.93-.93-1.51,0-2.39,3.76-3.39,7.53-6.75,11.3-10.13,1.47-1.31,2.92-2.65,4.39-4a1.51,1.51,0,0,1,2.34,0c.76.71,1.5,1.44,2.19,2.22A4.8,4.8,0,0,1,42.14,54.18Z"/></g></g></svg>