<svg xmlns="http://www.w3.org/2000/svg" viewBox="0 0 91.2 72"><defs><style>.cls-1{fill:#002856;}</style></defs><g id="Capa_2" data-name="Capa 2"><g id="Capa_1-2" data-name="Capa 1"><path class="cls-1" d="M45.6,0A45.59,45.59,0,0,0,8.43,72h4.25a42.21,42.21,0,1,1,65.84,0h4.26A45.6,45.6,0,0,0,45.6,0Z"/><path class="cls-1" d="M57.37,20.31c-1.83-.28-5.06.56-7-.43a28.54,28.54,0,0,0-4.63-1.68,28.85,28.85,0,0,0-4.64,1.68c-2,1-5.2.15-7,.43s-5.48,3.37-6.46,5.05l5.19,4.92s.43-2.81,2.95-3.09c1.84-.21,4.28,0,6.92-.09a5.61,5.61,0,0,1-.17-1.32c0-2.32,1.44-4.21,3.23-4.21s3.23,1.89,3.23,4.21a5.13,5.13,0,0,1-.18,1.32c2.65.12,5.08-.12,6.92.09,2.53.28,3,3.09,3,3.09l5.2-4.92C62.85,23.68,59.19,20.59,57.37,20.31Z"/><path class="cls-1" d="M57.23,36.18a14.18,14.18,0,0,0,0-4.5s1.4-1.4-11.52-1.4-11.52,1.4-11.52,1.4a14.18,14.18,0,0,0,0,4.5s-1.27.14-.84,3a2.41,2.41,0,0,0,3.1,2.11,14.07,14.07,0,0,0,9.26,8.42A14.07,14.07,0,0,0,55,41.24a2.42,2.42,0,0,0,3.11-2.11C58.49,36.32,57.23,36.18,57.23,36.18ZM45.71,48.26c-9.57-4-9.7-14.19-9.7-14.19s.85-1,3.47,0a25.38,25.38,0,0,0,6.23,1.07,25.3,25.3,0,0,0,6.22-1.07c2.63-1,3.47,0,3.47,0S55.27,44.24,45.71,48.26Z"/><path class="cls-1" d="M39.25,47.7s2.8,4.91,5.19,6.18L42.9,72H29.69c-3.09,0-2.24-5.9-2.1-10.39s-.14-5.06,2.95-7.45S39.25,47.7,39.25,47.7Z"/><path class="cls-1" d="M63.62,61.6c-.14-4.49.14-5.05-2.95-7.44S52,47.7,52,47.7s-2.81,4.91-5.2,6.18L48.31,72h13.2C64.6,72,63.76,66.1,63.62,61.6Zm-8.85,3.52c-3.16,0-2.46-6.18-2.46-6.18h4.92S57.93,65.12,54.77,65.12Z"/></g></g></svg>