<svg xmlns="http://www.w3.org/2000/svg" viewBox="0 0 91.2 72"><defs><style>.cls-1{fill:#002856;}</style></defs><g id="Capa_2" data-name="Capa 2"><g id="Capa_1-2" data-name="Capa 1"><path class="cls-1" d="M45.6,0A45.59,45.59,0,0,0,8.43,72h4.25a42.21,42.21,0,1,1,65.84,0h4.26A45.6,45.6,0,0,0,45.6,0Z"/><path class="cls-1" d="M33.31,32.77a.07.07,0,0,0-.08,0l-.26.5a5.27,5.27,0,0,0,2.51,7.19,5.38,5.38,0,0,0,7-2.54l.18-.36a.07.07,0,0,0,0-.08Z"/><path class="cls-1" d="M64.3,30,32.17,13.55a2.59,2.59,0,0,0-3.47,1.13l-4.81,9.4A2.58,2.58,0,0,0,25,27.55L57.15,44a2.61,2.61,0,0,0,1.17.28,2.57,2.57,0,0,0,2.3-1.4l4.81-9.41A2.59,2.59,0,0,0,64.3,30Zm.24,3-4.81,9.4a1.58,1.58,0,0,1-2.12.69L25.47,26.66a1.57,1.57,0,0,1-.68-2.12l4.8-9.41A1.59,1.59,0,0,1,31,14.27a1.5,1.5,0,0,1,.71.18L63.85,30.86A1.6,1.6,0,0,1,64.54,33Z"/><rect class="cls-1" x="60.98" y="37.96" width="7.64" height="1.97" transform="translate(0.64 78.93) rotate(-62.94)"/><path class="cls-1" d="M67.59,36.84l-2.91,5.69A1.25,1.25,0,0,0,66.37,42l1.76-3.45A1.26,1.26,0,0,0,67.59,36.84Z"/><circle class="cls-1" cx="60.77" cy="19.82" r="2.06"/><path class="cls-1" d="M70.38,15a10.75,10.75,0,0,0-19.22,0,1.12,1.12,0,1,0,2,1,8.5,8.5,0,0,1,15.21,0,1.13,1.13,0,0,0,1,.62,1.16,1.16,0,0,0,.51-.12A1.14,1.14,0,0,0,70.38,15Z"/><path class="cls-1" d="M64.55,17.92a1.12,1.12,0,0,0,2-1,6.46,6.46,0,0,0-11.57,0,1.12,1.12,0,0,0,1,1.62,1.1,1.1,0,0,0,1-.62,4.24,4.24,0,0,1,7.57,0Z"/><path class="cls-1" d="M34.52,42.12a5.25,5.25,0,0,1-2.92-3.5l-7.94,4.8V35.77H20.71V62.93h2.95V54.87l13.2-12.3A4.94,4.94,0,0,1,34.52,42.12Z"/></g></g></svg>