<svg xmlns="http://www.w3.org/2000/svg" viewBox="0 0 91.2 72"><defs><style>.cls-1{fill:#002856;}</style></defs><g id="Capa_2" data-name="Capa 2"><g id="Capa_1-2" data-name="Capa 1"><path class="cls-1" d="M50.34,62.76c-2.32,0-4.64,0-7,0a2,2,0,0,1-2-1.15q-3-5.27-6.08-10.48a2,2,0,0,1,0-2.27A11.82,11.82,0,0,1,53.09,46a3.54,3.54,0,0,0,2.7,1c1.66-.06,3.33,0,5,0,1.89,0,2.86.87,2.85,2.44s-.89,2.25-2.77,2.27c-2.74,0-5.48,0-8.21,0-1.32,0-2.52.31-2.57,1.81s1.18,1.9,2.46,1.92c3.1,0,6.19,0,9.28.05a3.44,3.44,0,0,0,2.1-.83l11.18-8c1.63-1.15,3-1.11,3.92.12s.56,2.51-1.12,3.72c-4.63,3.33-9.23,6.7-13.92,9.95a13.07,13.07,0,0,1-7.57,2.27H50.34Z"/><path class="cls-1" d="M29.35,72a2,2,0,0,1-2-1.22q-4-6.94-8-13.88a1.93,1.93,0,0,1,.79-3c2.51-1.47,5.05-2.89,7.56-4.36a1.89,1.89,0,0,1,2.89.72c2.76,4.71,5.48,9.45,8.2,14.19a1.76,1.76,0,0,1-.58,2.64c-2.7,1.61-5.44,3.17-8.18,4.72A2.28,2.28,0,0,1,29.35,72Z"/><path class="cls-1" d="M71,27.35a7.26,7.26,0,0,0-10-10.07,7.21,7.21,0,0,0-2.69,9,.5.5,0,0,1-.12.65c-1.49,1.54-3,3.1-4.47,4.66l-4.43,4.62a1.61,1.61,0,0,0-.08,2.27,9.73,9.73,0,0,0,1.32,1.25c.85.61,1.58.76,3.07-1,.21-.26.23-.26-.67-1.12-.24-.24-.18-.35,0-.55.37-.36.72-.76,1.09-1.12s.53-.83.89-.81.61.47.88.76.32.23.52,0c.35-.4.74-.77,1.1-1.17s.81-.57.78-.93-.52-.57-.8-.85a.08.08,0,0,0,0,0c-.19-.13-.2-.25,0-.43.62-.62,1.22-1.26,1.82-1.9.16-.17.25-.19.44,0s.6.86.95.81.65-.59,1-.91a.55.55,0,0,0,.1-.11c.2-.28.41-.32.76-.18A7.25,7.25,0,0,0,71,27.35Zm-6.67-3.42a2.42,2.42,0,1,1,3.45-.05A2.43,2.43,0,0,1,64.29,23.93Z"/><path class="cls-1" d="M45.6,0A45.59,45.59,0,0,0,8.43,72h4.25a42.21,42.21,0,1,1,65.84,0h4.26A45.6,45.6,0,0,0,45.6,0Z"/></g></g></svg>