<svg xmlns="http://www.w3.org/2000/svg" viewBox="0 0 91.2 72"><defs><style>.cls-1{fill:#002856;}</style></defs><g id="Capa_2" data-name="Capa 2"><g id="Capa_1-2" data-name="Capa 1"><path class="cls-1" d="M45.6,0A45.59,45.59,0,0,0,8.43,72h4.25a42.21,42.21,0,1,1,65.84,0h4.26A45.6,45.6,0,0,0,45.6,0Z"/><path class="cls-1" d="M45.71,8.06c-2.42,0-20.65,23.82-20.65,35.23a20.65,20.65,0,0,0,41.3,0C66.36,31.88,48.25,8.06,45.71,8.06Zm-5,15.52a38.1,38.1,0,0,0-3.18,6.63,81.25,81.25,0,0,0-2.58,8.66c-.47,1.84-.9,3.7-1.46,5.52a3,3,0,0,1-2.8,2.29,1.15,1.15,0,0,1-1.2-.94A16.48,16.48,0,0,1,29.11,42a27.69,27.69,0,0,1,1.46-6.33,25.42,25.42,0,0,1,2.9-5.92,56.41,56.41,0,0,1,5.4-6.38,12.5,12.5,0,0,1,1.56-1.44c.39-.29.55-.2.61.28A2.18,2.18,0,0,1,40.68,23.58Z"/></g></g></svg>