<svg xmlns="http://www.w3.org/2000/svg" viewBox="0 0 397.97 80.14"><defs><style>.cls-1{fill:#002856;}</style></defs><g id="Capa_2" data-name="Capa 2"><g id="Capa_1-2" data-name="Capa 1"><path class="cls-1" d="M133.69,24.92H120.6l-3.68,8.66h-3.78l14.14-32.2,13.78,32.2h-3.78Zm-1.34-3.22L127.19,9.4l-5.25,12.3Z"/><path class="cls-1" d="M159.21,0h3.31V33.58h-3.31V30.91a8.08,8.08,0,0,1-6.55,3.23c-4.83,0-9.3-3.41-9.3-10.14s4.42-10,9.3-10a7.93,7.93,0,0,1,6.55,3.18ZM146.77,24c0,4.1,2.3,7.19,6.26,7.19s6.36-3.37,6.36-7.14c0-4.93-3.41-7.1-6.36-7.1C149.76,17,146.77,19.35,146.77,24Z"/><path class="cls-1" d="M168.79,14.46h3.31v2A5.58,5.58,0,0,1,176.85,14a5.72,5.72,0,0,1,5.2,3.09A6.4,6.4,0,0,1,187.81,14c5.67,0,6.22,4.75,6.22,7.47V33.58h-3.31V22c0-2.16-.28-5-3.41-5-3.83,0-4.24,3.69-4.24,6V33.58h-3.32V22.25c0-1.34.05-5.3-3.45-5.3-3.78,0-4.2,3.92-4.2,6.22V33.58h-3.31Z"/><path class="cls-1" d="M202,4.88a2.35,2.35,0,1,1-2.35,2.35A2.36,2.36,0,0,1,202,4.88Zm1.66,9.58V33.58h-3.32V14.46Z"/><path class="cls-1" d="M209.93,14.46h3.31v2.22A6.75,6.75,0,0,1,218.73,14a6.5,6.5,0,0,1,5.48,2.63c1,1.43,1.1,3,1.1,5.11V33.58H222V21.84a5.67,5.67,0,0,0-.88-3.51A3.77,3.77,0,0,0,218,17a4.18,4.18,0,0,0-3.37,1.48c-1.29,1.52-1.38,3.77-1.38,5.16v10h-3.31Z"/><path class="cls-1" d="M233.24,4.88a2.35,2.35,0,1,1-2.35,2.35A2.36,2.36,0,0,1,233.24,4.88Zm1.65,9.58V33.58h-3.31V14.46Z"/><path class="cls-1" d="M249,18.89A2.93,2.93,0,0,0,246.36,17a2.11,2.11,0,0,0-2.3,2.17c0,1.38.92,1.79,3.09,2.72,2.76,1.15,4,2,4.79,2.94a4.54,4.54,0,0,1,1,3.09c0,4-2.9,6.27-6.59,6.27a6.84,6.84,0,0,1-6.67-4.89l2.85-1.2c.37,1,1.48,3.14,3.87,3.14a3,3,0,0,0,3.13-3c0-1.8-1.29-2.4-3.08-3.18-2.31-1-3.78-1.75-4.66-2.81a4.18,4.18,0,0,1-.87-2.81c0-3.36,2.35-5.35,5.57-5.35a5.52,5.52,0,0,1,5.25,3.46Z"/><path class="cls-1" d="M260.78,17.51V33.58h-3.31V17.51h-2V14.46h2V7.56h3.31v6.9h3.32v3.05Z"/><path class="cls-1" d="M267.23,14.46h3.32v2.08A5.3,5.3,0,0,1,274.88,14a7,7,0,0,1,2.95.79l-1.57,3a3.38,3.38,0,0,0-1.93-.64,3.24,3.24,0,0,0-2.68,1.19c-.55.74-1.1,2-1.1,5.16V33.58h-3.32Z"/><path class="cls-1" d="M294.55,14.46h3.32V33.58h-3.32V30.91A8.07,8.07,0,0,1,288,34.14c-4.84,0-9.31-3.41-9.31-10.14s4.43-10,9.31-10a7.91,7.91,0,0,1,6.54,3.18ZM282.11,24c0,4.1,2.31,7.19,6.27,7.19s6.35-3.37,6.35-7.14c0-4.93-3.4-7.1-6.35-7.1C285.11,17,282.11,19.35,282.11,24Z"/><path class="cls-1" d="M319.1,19.81a7.72,7.72,0,0,0-6-2.86c-3.54,0-6.77,2.49-6.77,7.14s3.32,7.1,6.73,7.1a8.15,8.15,0,0,0,6.17-3v4a10.21,10.21,0,0,1-6.08,2c-5.94,0-10.23-4.24-10.23-10A9.88,9.88,0,0,1,313.16,14a10.07,10.07,0,0,1,5.94,1.85Z"/><path class="cls-1" d="M326,4.88a2.35,2.35,0,1,1-2.35,2.35A2.36,2.36,0,0,1,326,4.88Zm1.66,9.58V33.58h-3.32V14.46Z"/><path class="cls-1" d="M332.69,24.09a10.14,10.14,0,0,1,20.27,0,10.14,10.14,0,0,1-20.27,0Zm3.41,0c0,4.7,3.32,7.1,6.73,7.1s6.72-2.44,6.72-7.1S346.33,17,342.83,17,336.1,19.44,336.1,24.09Zm13-19.62-6.17,6.22-2.07-1.11,4.83-6.68Z"/><path class="cls-1" d="M358,14.46h3.32v2.22A6.7,6.7,0,0,1,366.83,14a6.49,6.49,0,0,1,5.48,2.63c1,1.43,1.11,3,1.11,5.11V33.58H370.1V21.84a5.6,5.6,0,0,0-.88-3.51A3.76,3.76,0,0,0,366.09,17a4.16,4.16,0,0,0-3.36,1.48c-1.29,1.52-1.38,3.77-1.38,5.16v10H358Z"/><path class="cls-1" d="M130.55,46h3.32V79.58h-3.32V76.91A8.05,8.05,0,0,1,124,80.14c-4.84,0-9.3-3.41-9.3-10.14s4.42-10,9.3-10a7.89,7.89,0,0,1,6.54,3.18ZM118.11,70c0,4.1,2.31,7.19,6.27,7.19s6.36-3.37,6.36-7.14c0-4.93-3.41-7.1-6.36-7.1C121.11,63,118.11,65.35,118.11,70Z"/><path class="cls-1" d="M157.09,74.7a11.83,11.83,0,0,1-2.35,3.09,9.32,9.32,0,0,1-6.36,2.35c-4.61,0-9.44-2.91-9.44-10,0-5.71,3.5-10.14,9.26-10.14a8.55,8.55,0,0,1,7.23,3.51,12.73,12.73,0,0,1,1.79,7.18H142.35c0,4,2.76,6.5,6.08,6.5a5.8,5.8,0,0,0,3.91-1.38,7.55,7.55,0,0,0,2-2.63Zm-3.27-6.77a5.73,5.73,0,0,0-5.62-5,5.81,5.81,0,0,0-5.62,5Z"/><path class="cls-1" d="M165.61,46V79.58h-3.32V46Z"/><path class="cls-1" d="M206.93,55.63a15.15,15.15,0,0,0-4-2.86,13,13,0,0,0-5.29-1.2c-7.1,0-12.35,5.72-12.35,12.81a12.29,12.29,0,0,0,12.39,12.53,12.76,12.76,0,0,0,5.71-1.43,13.66,13.66,0,0,0,3.55-2.58v4.24a16,16,0,0,1-9.26,3,15.53,15.53,0,0,1-15.89-15.81,15.62,15.62,0,0,1,16.08-16,14.46,14.46,0,0,1,9.07,3Z"/><path class="cls-1" d="M211.17,70.09a10.14,10.14,0,1,1,10.13,10A9.82,9.82,0,0,1,211.17,70.09Zm3.41,0c0,4.7,3.32,7.1,6.72,7.1s6.73-2.44,6.73-7.1S224.81,63,221.3,63,214.58,65.44,214.58,70.09Z"/><path class="cls-1" d="M236.51,60.46h3.31v2.22A6.75,6.75,0,0,1,245.31,60a6.5,6.5,0,0,1,5.48,2.63c1,1.43,1.1,3,1.1,5.11V79.58h-3.31V67.84a5.67,5.67,0,0,0-.88-3.51A3.77,3.77,0,0,0,244.57,63a4.18,4.18,0,0,0-3.37,1.48c-1.29,1.52-1.38,3.77-1.38,5.16v10h-3.31Z"/><path class="cls-1" d="M272.81,46h3.31V79.58h-3.31V76.91a8.07,8.07,0,0,1-6.54,3.23c-4.84,0-9.31-3.41-9.31-10.14s4.42-10,9.31-10a7.93,7.93,0,0,1,6.54,3.18ZM260.37,70c0,4.1,2.3,7.19,6.26,7.19S273,73.82,273,70.05c0-4.93-3.41-7.1-6.36-7.1C263.36,63,260.37,65.35,260.37,70Z"/><path class="cls-1" d="M281.19,70.09a10.14,10.14,0,1,1,10.13,10A9.82,9.82,0,0,1,281.19,70.09Zm3.41,0c0,4.7,3.32,7.1,6.72,7.1s6.73-2.44,6.73-7.1S294.83,63,291.32,63,284.6,65.44,284.6,70.09Z"/><path class="cls-1" d="M306.53,60.46h3.31v2A5.58,5.58,0,0,1,314.59,60a5.72,5.72,0,0,1,5.2,3.09A6.4,6.4,0,0,1,325.55,60c5.67,0,6.22,4.75,6.22,7.47V79.58h-3.32V68c0-2.16-.27-5-3.4-5-3.83,0-4.24,3.69-4.24,6V79.58h-3.32V68.25c0-1.34.05-5.3-3.45-5.3-3.78,0-4.2,3.92-4.2,6.22V79.58h-3.31Z"/><path class="cls-1" d="M339.74,50.88a2.35,2.35,0,1,1-2.35,2.35A2.36,2.36,0,0,1,339.74,50.88Zm1.66,9.58V79.58h-3.32V60.46Z"/><path class="cls-1" d="M347.66,60.46H351v2.22A6.72,6.72,0,0,1,356.46,60a6.49,6.49,0,0,1,5.48,2.63c1,1.43,1.11,3,1.11,5.11V79.58h-3.32V67.84a5.66,5.66,0,0,0-.87-3.51A3.78,3.78,0,0,0,355.73,63a4.17,4.17,0,0,0-3.37,1.48C351.07,66,351,68.2,351,69.59v10h-3.32Z"/><path class="cls-1" d="M371,50.88a2.35,2.35,0,1,1-2.35,2.35A2.36,2.36,0,0,1,371,50.88Zm1.66,9.58V79.58h-3.31V60.46Z"/><path class="cls-1" d="M377.7,70.09a10.14,10.14,0,1,1,10.13,10A9.82,9.82,0,0,1,377.7,70.09Zm3.41,0c0,4.7,3.32,7.1,6.72,7.1s6.73-2.44,6.73-7.1S391.34,63,387.83,63,381.11,65.44,381.11,70.09Z"/><path class="cls-1" d="M50.72,69.13c-2.34,0-4.68,0-7,0a2,2,0,0,1-2-1.16c-2-3.54-4-7.06-6.13-10.55a2,2,0,0,1,0-2.29,11.88,11.88,0,0,1,17.88-2.9,3.59,3.59,0,0,0,2.72,1c1.68-.07,3.36,0,5,0,1.91,0,2.88.87,2.87,2.45S63.2,58,61.31,58c-2.76,0-5.51,0-8.27,0-1.33,0-2.53.32-2.59,1.84s1.19,1.91,2.48,1.92c3.12,0,6.24,0,9.35,0A3.38,3.38,0,0,0,64.4,61l11.26-8c1.64-1.17,3-1.13,4,.11s.57,2.53-1.14,3.75c-4.66,3.36-9.29,6.75-14,10a13.07,13.07,0,0,1-7.62,2.28H50.72Z"/><path class="cls-1" d="M29.57,78.44a2,2,0,0,1-2-1.23q-4-7-8.09-14a2,2,0,0,1,.8-3c2.53-1.48,5.09-2.92,7.62-4.4a1.89,1.89,0,0,1,2.9.73c2.79,4.75,5.53,9.52,8.27,14.3a1.77,1.77,0,0,1-.59,2.65c-2.72,1.63-5.48,3.19-8.23,4.76A2.42,2.42,0,0,1,29.57,78.44Z"/><path class="cls-1" d="M71.48,33.46A7.32,7.32,0,0,0,61.37,23.31a7.26,7.26,0,0,0-2.7,9.07.51.51,0,0,1-.12.65c-1.51,1.56-3,3.13-4.51,4.69l-4.47,4.67a1.61,1.61,0,0,0-.07,2.28,8.79,8.79,0,0,0,1.33,1.26c.85.61,1.58.76,3.08-1,.22-.25.24-.26-.66-1.13-.25-.23-.19-.35,0-.55.38-.36.72-.76,1.1-1.13s.53-.83.9-.82.61.48.89.77.31.23.51,0c.36-.41.76-.78,1.12-1.18s.81-.57.78-.93-.52-.58-.8-.86l0,0c-.19-.14-.2-.25,0-.44.62-.62,1.23-1.26,1.83-1.9.16-.18.25-.2.44,0s.61.87,1,.81.65-.58,1-.9l.11-.11c.2-.29.41-.33.76-.19A7.29,7.29,0,0,0,71.48,33.46ZM64.77,30A2.44,2.44,0,1,1,68.24,30,2.46,2.46,0,0,1,64.77,30Z"/><path class="cls-1" d="M45.94,5.91A45.93,45.93,0,0,0,8.49,78.44h4.28a42.52,42.52,0,1,1,66.34,0h4.28A45.93,45.93,0,0,0,45.94,5.91Z"/></g></g></svg>