<svg xmlns="http://www.w3.org/2000/svg" viewBox="0 0 338.57 90.18"><defs><style>.cls-1{fill:#002856;}</style></defs><g id="Capa_2" data-name="Capa 2"><g id="Capa_1-2" data-name="Capa 1"><path class="cls-1" d="M45.73,6.66A45.72,45.72,0,0,0,8.45,78.86h4.27a42.33,42.33,0,1,1,66,0H83A45.72,45.72,0,0,0,45.73,6.66Z"/><path class="cls-1" d="M45.84,14.74c-2.43,0-20.71,23.89-20.71,35.33a20.71,20.71,0,0,0,41.41,0C66.54,38.63,48.39,14.74,45.84,14.74ZM40.79,30.3A38.28,38.28,0,0,0,37.61,37,81.65,81.65,0,0,0,35,45.63c-.47,1.85-.91,3.72-1.47,5.54a3,3,0,0,1-2.8,2.3,1.16,1.16,0,0,1-1.21-.94,16.05,16.05,0,0,1-.34-3.74,26.73,26.73,0,0,1,1.46-6.35,25.56,25.56,0,0,1,2.9-5.94A56.69,56.69,0,0,1,39,30.11a11.34,11.34,0,0,1,1.57-1.45c.38-.29.55-.2.61.27A2.14,2.14,0,0,1,40.79,30.3Z"/><path class="cls-1" d="M139.24,24.92H126.15l-3.68,8.66h-3.78l14.14-32.2,13.78,32.2h-3.78ZM137.9,21.7,132.74,9.4l-5.25,12.3Z"/><path class="cls-1" d="M153.43,25.61a6.5,6.5,0,0,0,.92,4.1,4.55,4.55,0,0,0,6.72,0,6.5,6.5,0,0,0,.92-4.1V14.46h3.32V26c0,2.35-.23,4.1-1.75,5.76a8.33,8.33,0,0,1-11.7,0c-1.52-1.66-1.75-3.41-1.75-5.76V14.46h3.32Z"/><path class="cls-1" d="M175,17.51V33.58h-3.31V17.51h-2V14.46h2V7.56H175v6.9h3.32v3.05Z"/><path class="cls-1" d="M180.24,24.09a10.14,10.14,0,0,1,20.27,0,10.14,10.14,0,0,1-20.27,0Zm3.4,0c0,4.7,3.32,7.1,6.73,7.1s6.73-2.44,6.73-7.1S193.87,17,190.37,17,183.64,19.44,183.64,24.09Z"/><path class="cls-1" d="M234.09,24.92H221l-3.68,8.66h-3.78l14.14-32.2,13.78,32.2h-3.78Zm-1.34-3.22L227.59,9.4l-5.25,12.3Z"/><path class="cls-1" d="M248.28,33.58H245V0h3.32V17.14A8.23,8.23,0,0,1,254.82,14c6,0,9.3,5,9.3,10.14s-3.36,10-9.16,10a8.11,8.11,0,0,1-6.68-3.23Zm12.43-9.44c0-4.7-3.17-7.19-6.26-7.19s-6.36,2.54-6.36,7.14c0,3.92,2.49,7.1,6.4,7.1S260.71,28,260.71,24.14Z"/><path class="cls-1" d="M283.84,14.46h3.32V33.58h-3.32V30.91a8.07,8.07,0,0,1-6.54,3.23c-4.84,0-9.31-3.41-9.31-10.14s4.43-10,9.31-10a7.93,7.93,0,0,1,6.54,3.18ZM271.4,24c0,4.1,2.31,7.19,6.27,7.19S284,27.82,284,24.05c0-4.93-3.4-7.1-6.35-7.1C274.4,17,271.4,19.35,271.4,24Z"/><path class="cls-1" d="M301.3,18.89A2.93,2.93,0,0,0,298.63,17a2.12,2.12,0,0,0-2.31,2.17c0,1.38.92,1.79,3.09,2.72,2.76,1.15,4,2,4.79,2.94a4.54,4.54,0,0,1,1,3.09c0,4-2.9,6.27-6.58,6.27A6.84,6.84,0,0,1,292,29.25l2.85-1.2c.37,1,1.48,3.14,3.87,3.14a3,3,0,0,0,3.13-3c0-1.8-1.28-2.4-3.08-3.18-2.3-1-3.78-1.75-4.65-2.81a4.14,4.14,0,0,1-.88-2.81c0-3.36,2.35-5.35,5.58-5.35A5.52,5.52,0,0,1,304,17.46Z"/><path class="cls-1" d="M313,17.51V33.58h-3.31V17.51h-2V14.46h2V7.56H313v6.9h3.32v3.05Z"/><path class="cls-1" d="M318.3,24.09a10.14,10.14,0,0,1,20.27,0,10.14,10.14,0,0,1-20.27,0Zm3.41,0c0,4.7,3.31,7.1,6.72,7.1s6.73-2.44,6.73-7.1S331.93,17,328.43,17,321.71,19.44,321.71,24.09Z"/><path class="cls-1" d="M136.1,46h3.32V79.58H136.1V76.91a8,8,0,0,1-6.54,3.23c-4.83,0-9.3-3.41-9.3-10.14s4.42-10,9.3-10a7.89,7.89,0,0,1,6.54,3.18ZM123.67,70c0,4.1,2.3,7.19,6.26,7.19s6.36-3.37,6.36-7.14c0-4.93-3.41-7.1-6.36-7.1C126.66,63,123.67,65.35,123.67,70Z"/><path class="cls-1" d="M162.64,74.7a11.41,11.41,0,0,1-2.35,3.09,9.32,9.32,0,0,1-6.36,2.35c-4.61,0-9.44-2.91-9.44-10,0-5.71,3.5-10.14,9.26-10.14A8.55,8.55,0,0,1,161,63.51a12.81,12.81,0,0,1,1.8,7.18H147.9c0,4,2.76,6.5,6.08,6.5a5.8,5.8,0,0,0,3.91-1.38,7.71,7.71,0,0,0,2-2.63Zm-3.27-6.77a5.73,5.73,0,0,0-5.62-5,5.81,5.81,0,0,0-5.62,5Z"/><path class="cls-1" d="M196.36,70.92H183.28l-3.69,8.66h-3.78L190,47.38l13.77,32.2H200ZM195,67.7l-5.16-12.3-5.25,12.3Z"/><path class="cls-1" d="M221.88,60.46h3.32V79.12c0,2.07,0,5-1.85,7.51a9.27,9.27,0,0,1-7.64,3.55,9.47,9.47,0,0,1-6.82-2.58,8.61,8.61,0,0,1-2.49-6.17h3.27a6,6,0,0,0,1.48,4,5.91,5.91,0,0,0,4.6,1.84,5.37,5.37,0,0,0,5.07-2.67,8.88,8.88,0,0,0,1.06-4.89V76.91a8.07,8.07,0,0,1-6.54,3.23,9.16,9.16,0,0,1-6.54-2.58A10.37,10.37,0,0,1,206,70a10,10,0,0,1,2.77-7.42A9.45,9.45,0,0,1,215.34,60a8,8,0,0,1,6.54,3.18Zm-10.5,4.29A7.25,7.25,0,0,0,209.44,70a7.34,7.34,0,0,0,2.17,5.62,5.78,5.78,0,0,0,4.1,1.57,5.66,5.66,0,0,0,4.19-1.62,7.73,7.73,0,0,0,2.16-5.52,7.58,7.58,0,0,0-2-5.39A6.14,6.14,0,0,0,215.71,63,5.92,5.92,0,0,0,211.38,64.75Z"/><path class="cls-1" d="M234.78,71.61a6.5,6.5,0,0,0,.92,4.1,4.57,4.57,0,0,0,6.73,0,6.5,6.5,0,0,0,.92-4.1V60.46h3.31V72c0,2.35-.23,4.1-1.75,5.76a8.33,8.33,0,0,1-11.7,0c-1.52-1.66-1.75-3.41-1.75-5.76V60.46h3.32Z"/><path class="cls-1" d="M267.58,60.46h3.31V79.58h-3.31V76.91A8.07,8.07,0,0,1,261,80.14c-4.84,0-9.31-3.41-9.31-10.14s4.42-10,9.31-10a7.93,7.93,0,0,1,6.54,3.18ZM255.14,70c0,4.1,2.3,7.19,6.26,7.19s6.36-3.37,6.36-7.14c0-4.93-3.41-7.1-6.36-7.1C258.13,63,255.14,65.35,255.14,70Z"/></g></g></svg>