<svg xmlns="http://www.w3.org/2000/svg" viewBox="0 0 371.16 72.21"><defs><style>.cls-1{fill:#002856;}</style></defs><g id="Capa_2" data-name="Capa 2"><g id="Capa_1-2" data-name="Capa 1"><path class="cls-1" d="M45.73,0A45.73,45.73,0,0,0,8.45,72.21h4.27a42.33,42.33,0,1,1,66,0H83A45.73,45.73,0,0,0,45.73,0Z"/><circle class="cls-1" cx="45.73" cy="65.32" r="4.29"/><path class="cls-1" d="M59.28,59.54a2.5,2.5,0,0,1-2-1s-4.36-5.61-11.23-5.61c-7,0-11.94,5.68-12,5.73a2.48,2.48,0,1,1-3.78-3.21c.26-.3,6.47-7.48,15.76-7.48s15,7.29,15.2,7.6a2.49,2.49,0,0,1-2,4Z"/><path class="cls-1" d="M22.61,48a2.48,2.48,0,0,1-1.69-4.29A39.94,39.94,0,0,1,46.3,34.11,35.33,35.33,0,0,1,70.66,43.8a2.48,2.48,0,0,1-3.6,3.41A30.83,30.83,0,0,0,46.3,39.06a35.26,35.26,0,0,0-22,8.26A2.46,2.46,0,0,1,22.61,48Z"/><path class="cls-1" d="M77.12,37.76A2.5,2.5,0,0,1,75.29,37,42,42,0,0,0,46.5,25.2c-17.86,0-30.31,11.74-30.43,11.86a2.48,2.48,0,1,1-3.44-3.57c.56-.54,14-13.24,33.87-13.24A46.21,46.21,0,0,1,79,33.61a2.48,2.48,0,0,1-.16,3.5A2.51,2.51,0,0,1,77.12,37.76Z"/><path class="cls-1" d="M139.81,25.8a15.36,15.36,0,0,0-4-2.85,13,13,0,0,0-5.29-1.2c-7.1,0-12.35,5.71-12.35,12.81a12.29,12.29,0,0,0,12.39,12.53,12.76,12.76,0,0,0,5.71-1.43,14.15,14.15,0,0,0,3.55-2.58v4.24a16,16,0,0,1-9.26,3,15.53,15.53,0,0,1-15.89-15.8,15.61,15.61,0,0,1,16.08-16,14.46,14.46,0,0,1,9.07,3Z"/><path class="cls-1" d="M159.9,30.64h3.31V49.76H159.9V47.09a8.07,8.07,0,0,1-6.54,3.22c-4.84,0-9.31-3.41-9.31-10.13s4.42-10,9.31-10a7.93,7.93,0,0,1,6.54,3.18Zm-12.44,9.54c0,4.1,2.3,7.18,6.26,7.18s6.36-3.36,6.36-7.14c0-4.93-3.41-7.09-6.36-7.09C150.45,33.13,147.46,35.52,147.46,40.18Z"/><path class="cls-1" d="M169.48,30.64h3.31v2.07a5.36,5.36,0,0,1,4.33-2.53,7.06,7.06,0,0,1,2.95.78l-1.56,3a3.41,3.41,0,0,0-1.94-.65,3.23,3.23,0,0,0-2.67,1.2c-.55.74-1.11,2-1.11,5.16V49.76h-3.31Z"/><path class="cls-1" d="M183.11,30.64h3.32v2.07a5.32,5.32,0,0,1,4.33-2.53,7.1,7.1,0,0,1,3,.78l-1.57,3a3.39,3.39,0,0,0-1.93-.65,3.21,3.21,0,0,0-2.67,1.2c-.56.74-1.11,2-1.11,5.16V49.76h-3.32Z"/><path class="cls-1" d="M198.41,21.06a2.35,2.35,0,1,1-2.35,2.35A2.36,2.36,0,0,1,198.41,21.06Zm1.66,9.58V49.76h-3.32V30.64Z"/><path class="cls-1" d="M223.28,44.88A11.22,11.22,0,0,1,220.93,48a9.25,9.25,0,0,1-6.35,2.35c-4.61,0-9.45-2.9-9.45-10,0-5.72,3.5-10.14,9.26-10.14a8.58,8.58,0,0,1,7.24,3.5,12.93,12.93,0,0,1,1.79,7.19H208.54c.05,4,2.77,6.49,6.08,6.49A5.83,5.83,0,0,0,218.54,46a7.64,7.64,0,0,0,2-2.62ZM220,38.1a5.72,5.72,0,0,0-5.62-5,5.81,5.81,0,0,0-5.62,5Z"/><path class="cls-1" d="M228.49,30.64h3.32v2.07a5.32,5.32,0,0,1,4.33-2.53,7,7,0,0,1,2.94.78l-1.56,3a3.41,3.41,0,0,0-1.94-.65,3.23,3.23,0,0,0-2.67,1.2c-.55.74-1.1,2-1.1,5.16V49.76h-3.32Z"/><path class="cls-1" d="M260.32,17A50.92,50.92,0,0,0,258,25a55,55,0,0,0-1.15,11.6,50.71,50.71,0,0,0,1.11,11.24,57.45,57.45,0,0,0,2.39,8.43l-2.9,1.34a64.85,64.85,0,0,1-3-10.41,59.45,59.45,0,0,1-1-10.69,54,54,0,0,1,1.29-12,77.71,77.71,0,0,1,2.72-8.84Z"/><path class="cls-1" d="M267.41,19l8.11,23,9.63-24.6,9.12,24.6,9-23H307l-12.9,32.34-9-24.6-9.67,24.6L263.64,19Z"/><path class="cls-1" d="M312.19,21.06a2.35,2.35,0,1,1-2.35,2.35A2.36,2.36,0,0,1,312.19,21.06Zm1.66,9.58V49.76h-3.32V30.64Z"/><path class="cls-1" d="M319.29,38.24h10.13v3.41H319.29Z"/><path class="cls-1" d="M349.69,22.26H339.1v9.07h10.22v3.23H339.1v15.2h-3.41V19h14Z"/><path class="cls-1" d="M356.51,21.06a2.35,2.35,0,1,1-2.35,2.35A2.36,2.36,0,0,1,356.51,21.06Zm1.66,9.58V49.76h-3.32V30.64Z"/><path class="cls-1" d="M367.15,15.67a77.71,77.71,0,0,1,2.72,8.84,54,54,0,0,1,1.29,12,59.45,59.45,0,0,1-1,10.69,64.85,64.85,0,0,1-3,10.41l-2.9-1.34a56.24,56.24,0,0,0,2.39-8.43,50.71,50.71,0,0,0,1.11-11.24A55,55,0,0,0,366.6,25a50.92,50.92,0,0,0-2.35-8Z"/></g></g></svg>