<svg xmlns="http://www.w3.org/2000/svg" viewBox="0 0 405.46 81.43"><defs><style>.cls-1{fill:#002856;}</style></defs><g id="Capa_2" data-name="Capa 2"><g id="Capa_1-2" data-name="Capa 1"><path class="cls-1" d="M45.73,7.26A45.72,45.72,0,0,0,8.45,79.46h4.27a42.33,42.33,0,1,1,66,0H83A45.72,45.72,0,0,0,45.73,7.26Z"/><path class="cls-1" d="M33.41,40.12a.06.06,0,0,0-.08,0l-.26.51a5.27,5.27,0,0,0,2.51,7.2,5.39,5.39,0,0,0,7-2.55l.18-.36s0-.06,0-.08Z"/><path class="cls-1" d="M64.49,37.31,32.26,20.85A2.59,2.59,0,0,0,28.78,22L24,31.41a2.59,2.59,0,0,0,1.13,3.48L57.31,51.35a2.62,2.62,0,0,0,1.18.28,2.59,2.59,0,0,0,2.31-1.41l4.81-9.43A2.59,2.59,0,0,0,64.49,37.31Zm.23,3L59.9,49.77a1.6,1.6,0,0,1-2.13.69L25.55,34a1.58,1.58,0,0,1-.69-2.13l4.81-9.43a1.6,1.6,0,0,1,1.42-.86,1.69,1.69,0,0,1,.72.17L64,38.21A1.58,1.58,0,0,1,64.72,40.34Z"/><rect class="cls-1" x="61.15" y="45.32" width="7.66" height="1.98" transform="translate(-5.82 83.11) rotate(-62.94)"/><path class="cls-1" d="M67.78,44.2l-2.92,5.71a1.27,1.27,0,0,0,1.7-.55l1.77-3.46A1.27,1.27,0,0,0,67.78,44.2Z"/><circle class="cls-1" cx="60.94" cy="27.13" r="2.07"/><path class="cls-1" d="M70.58,22.3a10.78,10.78,0,0,0-19.28,0,1.13,1.13,0,0,0,.5,1.51,1.12,1.12,0,0,0,1.51-.5,8.54,8.54,0,0,1,15.26,0,1.12,1.12,0,0,0,1,.62,1.19,1.19,0,0,0,.51-.12A1.13,1.13,0,0,0,70.58,22.3Z"/><path class="cls-1" d="M64.73,25.23a1.12,1.12,0,0,0,2-1,6.49,6.49,0,0,0-11.6,0,1.13,1.13,0,0,0,1,1.63,1.14,1.14,0,0,0,1-.62,4.24,4.24,0,0,1,7.58,0Z"/><path class="cls-1" d="M34.62,49.5A5.27,5.27,0,0,1,31.69,46l-8,4.81V43.12h-3V70.37h3V62.29L37,50A5.09,5.09,0,0,1,34.62,49.5Z"/><path class="cls-1" d="M145.78,9.63a15.15,15.15,0,0,0-4-2.86,13,13,0,0,0-5.3-1.2c-7.09,0-12.34,5.72-12.34,12.81a12.29,12.29,0,0,0,12.39,12.53,12.76,12.76,0,0,0,5.71-1.43,13.66,13.66,0,0,0,3.55-2.58v4.24a16,16,0,0,1-9.26,3,15.53,15.53,0,0,1-15.89-15.81,15.62,15.62,0,0,1,16.07-16,14.49,14.49,0,0,1,9.08,3Z"/><path class="cls-1" d="M152.87,4.88a2.35,2.35,0,1,1-2.35,2.35A2.36,2.36,0,0,1,152.87,4.88Zm1.66,9.58V33.58h-3.31V14.46Z"/><path class="cls-1" d="M160.8,14.46h3.31v2.08A5.34,5.34,0,0,1,168.44,14a6.92,6.92,0,0,1,2.95.79l-1.56,3a3.39,3.39,0,0,0-1.94-.64,3.23,3.23,0,0,0-2.67,1.19c-.55.74-1.11,2-1.11,5.16V33.58H160.8Z"/><path class="cls-1" d="M188.3,19.81a7.72,7.72,0,0,0-6-2.86c-3.55,0-6.77,2.49-6.77,7.14s3.32,7.1,6.72,7.1a8.15,8.15,0,0,0,6.18-3v4a10.25,10.25,0,0,1-6.08,2c-6,0-10.23-4.24-10.23-10A9.88,9.88,0,0,1,182.36,14a10.07,10.07,0,0,1,5.94,1.85Z"/><path class="cls-1" d="M196.82,25.61a6.5,6.5,0,0,0,.92,4.1,4.57,4.57,0,0,0,6.73,0,6.5,6.5,0,0,0,.92-4.1V14.46h3.32V26c0,2.35-.23,4.1-1.75,5.76a8.34,8.34,0,0,1-11.71,0c-1.51-1.66-1.75-3.41-1.75-5.76V14.46h3.32Z"/><path class="cls-1" d="M216.63,4.88a2.35,2.35,0,1,1-2.35,2.35A2.36,2.36,0,0,1,216.63,4.88Zm1.66,9.58V33.58H215V14.46Z"/><path class="cls-1" d="M228,17.51V33.58h-3.31V17.51h-2V14.46h2V7.56H228v6.9h3.32v3.05Z"/><path class="cls-1" d="M233.21,24.09a10.14,10.14,0,0,1,20.27,0,10.14,10.14,0,0,1-20.27,0Zm3.41,0c0,4.7,3.32,7.1,6.73,7.1s6.72-2.44,6.72-7.1S246.85,17,243.35,17,236.62,19.44,236.62,24.09Z"/><path class="cls-1" d="M284.26,19.81a7.74,7.74,0,0,0-6-2.86c-3.55,0-6.77,2.49-6.77,7.14s3.31,7.1,6.72,7.1a8.15,8.15,0,0,0,6.17-3v4a10.21,10.21,0,0,1-6.08,2c-5.94,0-10.22-4.24-10.22-10A9.88,9.88,0,0,1,278.31,14a10.13,10.13,0,0,1,5.95,1.85Z"/><path class="cls-1" d="M306.41,28.7a11.41,11.41,0,0,1-2.35,3.09,9.29,9.29,0,0,1-6.35,2.35c-4.61,0-9.45-2.91-9.45-10,0-5.71,3.5-10.14,9.26-10.14a8.55,8.55,0,0,1,7.23,3.51,12.81,12.81,0,0,1,1.8,7.18H291.67c.05,4,2.77,6.5,6.08,6.5a5.83,5.83,0,0,0,3.92-1.38,7.8,7.8,0,0,0,2-2.63Zm-3.27-6.77a5.72,5.72,0,0,0-5.62-5,5.81,5.81,0,0,0-5.62,5Z"/><path class="cls-1" d="M311.62,14.46h3.32v2.08A5.3,5.3,0,0,1,319.27,14a6.91,6.91,0,0,1,2.94.79l-1.56,3a3.39,3.39,0,0,0-1.94-.64A3.23,3.23,0,0,0,316,18.33c-.55.74-1.1,2-1.1,5.16V33.58h-3.32Z"/><path class="cls-1" d="M325.25,14.46h3.32v2.08A5.3,5.3,0,0,1,332.9,14a6.92,6.92,0,0,1,3,.79l-1.57,3a3.34,3.34,0,0,0-1.93-.64,3.2,3.2,0,0,0-2.67,1.19c-.56.74-1.11,2-1.11,5.16V33.58h-3.32Z"/><path class="cls-1" d="M352.57,14.46h3.32V33.58h-3.32V30.91A8.05,8.05,0,0,1,346,34.14c-4.84,0-9.3-3.41-9.3-10.14s4.42-10,9.3-10a7.89,7.89,0,0,1,6.54,3.18ZM340.13,24c0,4.1,2.31,7.19,6.27,7.19s6.36-3.37,6.36-7.14c0-4.93-3.41-7.1-6.36-7.1C343.13,17,340.13,19.35,340.13,24Z"/><path class="cls-1" d="M376.8,0h3.32V33.58H376.8V30.91a8.05,8.05,0,0,1-6.54,3.23c-4.84,0-9.3-3.41-9.3-10.14s4.42-10,9.3-10a7.89,7.89,0,0,1,6.54,3.18ZM364.37,24c0,4.1,2.3,7.19,6.26,7.19S377,27.82,377,24.05c0-4.93-3.41-7.1-6.36-7.1C367.36,17,364.37,19.35,364.37,24Z"/><path class="cls-1" d="M385.19,24.09a10.14,10.14,0,0,1,20.27,0,10.14,10.14,0,0,1-20.27,0Zm3.41,0c0,4.7,3.31,7.1,6.72,7.1s6.73-2.44,6.73-7.1S398.82,17,395.32,17,388.6,19.44,388.6,24.09Z"/><path class="cls-1" d="M136.1,46h3.32V79.58H136.1V76.91a8,8,0,0,1-6.54,3.23c-4.83,0-9.3-3.41-9.3-10.14s4.42-10,9.3-10a7.89,7.89,0,0,1,6.54,3.18ZM123.67,70c0,4.1,2.3,7.19,6.26,7.19s6.36-3.37,6.36-7.14c0-4.93-3.41-7.1-6.36-7.1C126.66,63,123.67,65.35,123.67,70Z"/><path class="cls-1" d="M162.64,74.7a11.41,11.41,0,0,1-2.35,3.09,9.32,9.32,0,0,1-6.36,2.35c-4.6,0-9.44-2.91-9.44-10,0-5.71,3.5-10.14,9.26-10.14A8.55,8.55,0,0,1,161,63.51a12.81,12.81,0,0,1,1.8,7.18H147.9c0,4,2.76,6.5,6.08,6.5a5.8,5.8,0,0,0,3.91-1.38,7.71,7.71,0,0,0,2-2.63Zm-3.27-6.77a5.72,5.72,0,0,0-5.62-5,5.81,5.81,0,0,0-5.62,5Z"/><path class="cls-1" d="M187,52.08v27.5h-3.41V52.08h-7.46V48.86h18.33v3.22Z"/><path class="cls-1" d="M197.93,75.44a2.3,2.3,0,1,1-2.31,2.3A2.34,2.34,0,0,1,197.93,75.44Z"/><path class="cls-1" d="M207.32,48.86,216,72.3l8.66-23.44h3.77L216,81.43,203.55,48.86Z"/><path class="cls-1" d="M231.19,75.44a2.3,2.3,0,1,1-2.31,2.3A2.34,2.34,0,0,1,231.19,75.44Z"/></g></g></svg>