<svg xmlns="http://www.w3.org/2000/svg" viewBox="0 0 470.04 80.64"><defs><style>.cls-1{fill:#002856;}</style></defs><g id="Capa_2" data-name="Capa 2"><g id="Capa_1-2" data-name="Capa 1"><polygon class="cls-1" points="44.07 20.75 27.94 55.82 46.61 55.82 46.61 79.97 63.52 44.77 44.07 44.77 44.07 20.75"/><path class="cls-1" d="M45.73,7.76A45.73,45.73,0,0,0,8.45,80h4.27a42.33,42.33,0,1,1,66,0H83A45.72,45.72,0,0,0,45.73,7.76Z"/><path class="cls-1" d="M125.69,3.36V34.09h-3.4V3.36Z"/><path class="cls-1" d="M132.79,15h3.31v2.21a6.77,6.77,0,0,1,5.49-2.67,6.48,6.48,0,0,1,5.48,2.63c1,1.42,1.1,3,1.1,5.11V34.09h-3.31V22.34a5.64,5.64,0,0,0-.88-3.5,3.74,3.74,0,0,0-3.13-1.38,4.17,4.17,0,0,0-3.36,1.47c-1.29,1.52-1.39,3.78-1.39,5.16v10h-3.31Z"/><path class="cls-1" d="M157.85,18V34.09h-3.32V18h-1.84V15h1.84V6.63c0-1.75.14-4,1.84-5.39A6,6,0,0,1,160.2,0a6.68,6.68,0,0,1,2.35.41V3.64a6,6,0,0,0-2.17-.42,2.33,2.33,0,0,0-2.12,1A5.79,5.79,0,0,0,157.85,7v8h4.7v3Z"/><path class="cls-1" d="M165.49,15h3.32V17a5.32,5.32,0,0,1,4.33-2.53,7.1,7.1,0,0,1,3,.78l-1.57,3a3.36,3.36,0,0,0-1.93-.65,3.21,3.21,0,0,0-2.67,1.2c-.56.74-1.11,2-1.11,5.16V34.09h-3.32Z"/><path class="cls-1" d="M192.81,15h3.32V34.09h-3.32V31.42a8,8,0,0,1-6.54,3.22c-4.84,0-9.31-3.41-9.31-10.13s4.43-10,9.31-10a7.89,7.89,0,0,1,6.54,3.18Zm-12.44,9.54c0,4.1,2.31,7.18,6.27,7.18S193,28.33,193,24.55c0-4.93-3.41-7.09-6.36-7.09C183.37,17.46,180.37,19.85,180.37,24.51Z"/><path class="cls-1" d="M219.35,29.21A11.62,11.62,0,0,1,217,32.29a9.27,9.27,0,0,1-6.36,2.35c-4.61,0-9.44-2.9-9.44-10,0-5.72,3.5-10.14,9.26-10.14a8.54,8.54,0,0,1,7.23,3.5,12.84,12.84,0,0,1,1.79,7.19H204.61c0,4,2.76,6.49,6.08,6.49a5.8,5.8,0,0,0,3.91-1.38,7.52,7.52,0,0,0,2-2.62Zm-3.27-6.78a5.73,5.73,0,0,0-5.62-5,5.8,5.8,0,0,0-5.62,5Z"/><path class="cls-1" d="M232.43,19.39a2.94,2.94,0,0,0-2.67-1.93,2.11,2.11,0,0,0-2.31,2.16c0,1.39.93,1.8,3.09,2.72,2.76,1.15,4.05,2,4.79,2.95a4.52,4.52,0,0,1,1,3.09c0,4-2.9,6.26-6.58,6.26a6.83,6.83,0,0,1-6.68-4.88l2.85-1.2c.37,1,1.48,3.13,3.87,3.13a3,3,0,0,0,3.14-3c0-1.79-1.3-2.39-3.09-3.18-2.31-1-3.78-1.75-4.65-2.81a4.14,4.14,0,0,1-.88-2.81c0-3.36,2.35-5.34,5.57-5.34A5.51,5.51,0,0,1,235.15,18Z"/><path class="cls-1" d="M244.18,18V34.09h-3.32V18h-2V15h2V8.06h3.32V15h3.31v3Z"/><path class="cls-1" d="M250.63,15h3.31V17a5.32,5.32,0,0,1,4.33-2.53,7.06,7.06,0,0,1,3,.78l-1.57,3a3.39,3.39,0,0,0-1.93-.65,3.21,3.21,0,0,0-2.67,1.2c-.56.74-1.11,2-1.11,5.16V34.09h-3.31Z"/><path class="cls-1" d="M267.58,26.12a6.51,6.51,0,0,0,.92,4.1,4.57,4.57,0,0,0,6.72,0,6.51,6.51,0,0,0,.92-4.1V15h3.32V26.49c0,2.35-.23,4.1-1.75,5.76a8.35,8.35,0,0,1-11.7,0c-1.52-1.66-1.75-3.41-1.75-5.76V15h3.32Z"/><path class="cls-1" d="M300.7,20.31a7.72,7.72,0,0,0-6-2.85c-3.55,0-6.77,2.49-6.77,7.14s3.31,7.09,6.72,7.09a8.16,8.16,0,0,0,6.18-3v4a10.24,10.24,0,0,1-6.08,2c-5.95,0-10.23-4.24-10.23-10a9.88,9.88,0,0,1,10.23-10.14,10.15,10.15,0,0,1,5.94,1.84Z"/><path class="cls-1" d="M309.31,18V34.09H306V18h-2V15h2V8.06h3.31V15h3.32v3Z"/><path class="cls-1" d="M319.08,26.12a6.51,6.51,0,0,0,.92,4.1,4.59,4.59,0,0,0,6.73,0,6.51,6.51,0,0,0,.92-4.1V15H331V26.49c0,2.35-.23,4.1-1.75,5.76a8.35,8.35,0,0,1-11.7,0c-1.52-1.66-1.75-3.41-1.75-5.76V15h3.32Z"/><path class="cls-1" d="M337.23,15h3.31V17a5.36,5.36,0,0,1,4.34-2.53,7.05,7.05,0,0,1,2.94.78l-1.56,3a3.41,3.41,0,0,0-1.94-.65,3.23,3.23,0,0,0-2.67,1.2c-.55.74-1.11,2-1.11,5.16V34.09h-3.31Z"/><path class="cls-1" d="M364.54,15h3.32V34.09h-3.32V31.42A8,8,0,0,1,358,34.64c-4.83,0-9.3-3.41-9.3-10.13s4.42-10,9.3-10a7.89,7.89,0,0,1,6.54,3.18Zm-12.43,9.54c0,4.1,2.3,7.18,6.26,7.18s6.36-3.36,6.36-7.14c0-4.93-3.41-7.09-6.36-7.09C355.1,17.46,352.11,19.85,352.11,24.51Z"/><path class="cls-1" d="M138.22,52.59H125.69v9.12h12.17v3.22H125.69V76.86h12.53v3.23H122.29V49.36h15.93Z"/><path class="cls-1" d="M145.59,46.51V80.09h-3.31V46.51Z"/><path class="cls-1" d="M167.43,75.21a11.22,11.22,0,0,1-2.35,3.08,9.27,9.27,0,0,1-6.36,2.35c-4.6,0-9.44-2.9-9.44-10,0-5.72,3.5-10.14,9.26-10.14a8.54,8.54,0,0,1,7.23,3.5,12.85,12.85,0,0,1,1.8,7.19H152.69c0,4,2.76,6.49,6.08,6.49a5.8,5.8,0,0,0,3.91-1.38,7.68,7.68,0,0,0,2-2.62Zm-3.27-6.78a5.72,5.72,0,0,0-5.62-5,5.81,5.81,0,0,0-5.62,5ZM164.21,51,158,57.19,156,56.09l4.83-6.68Z"/><path class="cls-1" d="M186.22,66.31a7.7,7.7,0,0,0-6-2.85c-3.55,0-6.78,2.49-6.78,7.14s3.32,7.09,6.73,7.09a8.14,8.14,0,0,0,6.17-3v4a10.19,10.19,0,0,1-6.08,2c-5.94,0-10.23-4.24-10.23-10a9.88,9.88,0,0,1,10.23-10.14,10.15,10.15,0,0,1,5.94,1.84Z"/><path class="cls-1" d="M193.46,64V80.09h-3.32V64h-2V61h2V54.06h3.32V61h3.31v3Z"/><path class="cls-1" d="M198.52,61h3.32V63a5.32,5.32,0,0,1,4.33-2.53,7.1,7.1,0,0,1,3,.78l-1.57,3a3.36,3.36,0,0,0-1.93-.65,3.21,3.21,0,0,0-2.67,1.2c-.56.74-1.11,2-1.11,5.16V80.09h-3.32Z"/><path class="cls-1" d="M212.44,51.39a2.35,2.35,0,1,1-2.35,2.35A2.36,2.36,0,0,1,212.44,51.39ZM214.09,61V80.09h-3.31V61Z"/><path class="cls-1" d="M234,66.31a7.72,7.72,0,0,0-6-2.85c-3.55,0-6.77,2.49-6.77,7.14s3.31,7.09,6.72,7.09a8.16,8.16,0,0,0,6.18-3v4a10.24,10.24,0,0,1-6.08,2c-5.95,0-10.23-4.24-10.23-10A9.88,9.88,0,0,1,228,60.51,10.15,10.15,0,0,1,234,62.35Z"/><path class="cls-1" d="M252.42,61h3.32V80.09h-3.32V77.42a8,8,0,0,1-6.54,3.22c-4.84,0-9.31-3.41-9.31-10.13s4.43-10,9.31-10a7.89,7.89,0,0,1,6.54,3.18ZM240,70.51c0,4.1,2.31,7.18,6.27,7.18s6.36-3.36,6.36-7.14c0-4.93-3.41-7.09-6.36-7.09C243,63.46,240,65.85,240,70.51Z"/><path class="cls-1" d="M284.53,55.44a7.45,7.45,0,0,0-1.8-2.3,5.52,5.52,0,0,0-3.45-1.06c-3,0-5.16,1.89-5.16,4.75a3.23,3.23,0,0,0,1.15,2.67,9.91,9.91,0,0,0,3.22,1.93l2.95,1.29a14.85,14.85,0,0,1,4.75,2.9,7.44,7.44,0,0,1,2.21,5.58c0,5.66-4.19,9.44-9.72,9.44A9.13,9.13,0,0,1,272,78.15a11.17,11.17,0,0,1-2.86-5.43l3.32-.92a7.27,7.27,0,0,0,1.84,3.91,6.29,6.29,0,0,0,10.6-4.37,4.61,4.61,0,0,0-1.52-3.6,13.61,13.61,0,0,0-3.69-2.12l-2.76-1.29a13.4,13.4,0,0,1-4.1-2.53,6.37,6.37,0,0,1-2.12-5c0-4.75,3.64-7.92,8.61-7.92a8.28,8.28,0,0,1,4.93,1.38,9.22,9.22,0,0,1,3,3.41Z"/><path class="cls-1" d="M295.77,72.12a6.51,6.51,0,0,0,.92,4.1,4.59,4.59,0,0,0,6.73,0,6.51,6.51,0,0,0,.92-4.1V61h3.31V72.49c0,2.35-.23,4.1-1.75,5.76a8.35,8.35,0,0,1-11.7,0c-1.52-1.66-1.75-3.41-1.75-5.76V61h3.32Z"/><path class="cls-1" d="M315.85,80.09h-3.31V46.51h3.31V63.64a8.22,8.22,0,0,1,6.54-3.13c6,0,9.31,5,9.31,10.14s-3.36,10-9.17,10a8.13,8.13,0,0,1-6.68-3.22Zm12.44-9.44c0-4.7-3.18-7.19-6.26-7.19s-6.36,2.53-6.36,7.14c0,3.91,2.49,7.09,6.4,7.09S328.29,74.47,328.29,70.65Z"/><path class="cls-1" d="M338.79,64V80.09h-3.31V64h-2V61h2V54.06h3.31V61h3.32v3Z"/><path class="cls-1" d="M360.81,75.21a11.22,11.22,0,0,1-2.35,3.08,9.25,9.25,0,0,1-6.35,2.35c-4.61,0-9.45-2.9-9.45-10,0-5.72,3.51-10.14,9.26-10.14a8.56,8.56,0,0,1,7.24,3.5A12.93,12.93,0,0,1,361,71.2H346.07c.05,4,2.77,6.49,6.08,6.49a5.83,5.83,0,0,0,3.92-1.38,7.52,7.52,0,0,0,2-2.62Zm-3.27-6.78a5.72,5.72,0,0,0-5.62-5,5.81,5.81,0,0,0-5.62,5Z"/><path class="cls-1" d="M364.64,61H368V63a5.32,5.32,0,0,1,4.33-2.53,7.05,7.05,0,0,1,2.94.78l-1.56,3a3.41,3.41,0,0,0-1.94-.65,3.23,3.23,0,0,0-2.67,1.2c-.55.74-1.1,2-1.1,5.16V80.09h-3.32Z"/><path class="cls-1" d="M376.89,61h3.32V63a5.32,5.32,0,0,1,4.33-2.53,7.1,7.1,0,0,1,2.95.78l-1.57,3a3.41,3.41,0,0,0-1.93-.65,3.24,3.24,0,0,0-2.68,1.2c-.55.74-1.1,2-1.1,5.16V80.09h-3.32Z"/><path class="cls-1" d="M402.83,61h3.31V80.09h-3.31V77.42a8.07,8.07,0,0,1-6.54,3.22c-4.84,0-9.31-3.41-9.31-10.13s4.42-10,9.31-10a7.93,7.93,0,0,1,6.54,3.18Zm-12.44,9.54c0,4.1,2.3,7.18,6.26,7.18S403,74.33,403,70.55c0-4.93-3.41-7.09-6.36-7.09C393.38,63.46,390.39,65.85,390.39,70.51ZM402.83,51l-6.18,6.21-2.07-1.1,4.84-6.68Z"/><path class="cls-1" d="M411,61h3.31v2.21a6.77,6.77,0,0,1,5.49-2.67,6.48,6.48,0,0,1,5.48,2.63c1,1.42,1.1,3,1.1,5.11V80.09H423.1V68.34a5.64,5.64,0,0,0-.88-3.5,3.74,3.74,0,0,0-3.13-1.38,4.2,4.2,0,0,0-3.37,1.47c-1.28,1.52-1.38,3.78-1.38,5.16v10H411Z"/><path class="cls-1" d="M448.25,75.21a11.22,11.22,0,0,1-2.35,3.08,9.27,9.27,0,0,1-6.36,2.35c-4.6,0-9.44-2.9-9.44-10,0-5.72,3.5-10.14,9.26-10.14a8.54,8.54,0,0,1,7.23,3.5,12.85,12.85,0,0,1,1.8,7.19H433.51c0,4,2.76,6.49,6.08,6.49a5.8,5.8,0,0,0,3.91-1.38,7.52,7.52,0,0,0,2-2.62ZM445,68.43a5.72,5.72,0,0,0-5.62-5,5.81,5.81,0,0,0-5.62,5Z"/><path class="cls-1" d="M466.72,61H470V80.09h-3.32V77.42a8,8,0,0,1-6.54,3.22c-4.84,0-9.31-3.41-9.31-10.13s4.43-10,9.31-10a7.89,7.89,0,0,1,6.54,3.18Zm-12.44,9.54c0,4.1,2.31,7.18,6.27,7.18s6.35-3.36,6.35-7.14c0-4.93-3.4-7.09-6.35-7.09C457.28,63.46,454.28,65.85,454.28,70.51Z"/></g></g></svg>