<svg xmlns="http://www.w3.org/2000/svg" viewBox="0 0 384.22 72.21"><defs><style>.cls-1{fill:#002856;}</style></defs><g id="Capa_2" data-name="Capa 2"><g id="Capa_1-2" data-name="Capa 1"><path class="cls-1" d="M45.73,0A45.73,45.73,0,0,0,8.45,72.21h4.27a42.33,42.33,0,1,1,66,0H83A45.73,45.73,0,0,0,45.73,0Z"/><path class="cls-1" d="M61.42,72.21a9.91,9.91,0,0,1-9.13-5.57,10.78,10.78,0,0,1-.66-6.31A1.35,1.35,0,0,0,51.22,59c-1.7-1.68-3.38-3.4-5.1-5.07-.47-.45-.48-.75,0-1.21q2.55-2.48,5-5c.45-.46.74-.41,1.16,0,1.68,1.71,3.39,3.39,5.07,5.1a1.48,1.48,0,0,0,1.31.44,16.9,16.9,0,0,1,4.66,0,9,9,0,0,1,6,4.67A8.61,8.61,0,0,1,70.54,63a19,19,0,0,1-.87,3.53c-.17.55-.83.54-1.36,0-1-1-2.07-2.06-3.11-3.09-.85-.85-1.68-1.71-2.55-2.54a2.43,2.43,0,0,0-2.58-.58,2.26,2.26,0,0,0-1.43,2.51,3.07,3.07,0,0,0,.84,1.52C61.23,66.24,63,68,64.82,69.79c.64.64.7,1.2.15,1.5a4.42,4.42,0,0,1-1.15.47C62.91,72,62,72.1,61.42,72.21Z"/><path class="cls-1" d="M21,31.72c.21-.79.52-2.1.91-3.38.18-.59.79-.65,1.33-.15S24.37,29.36,25,30c1.29,1.29,2.57,2.59,3.88,3.86a2.33,2.33,0,0,0,3.87-.5,2.3,2.3,0,0,0-.55-2.82c-1.75-1.79-3.53-3.55-5.3-5.32-.2-.2-.5-.43-.51-.66s.08-.89.28-1a9.79,9.79,0,0,1,5.91-.67,9.63,9.63,0,0,1,6.35,4.61,9.07,9.07,0,0,1,1.22,5.36c0,.67-.23,1.34-.23,2a1.5,1.5,0,0,0,.44.93q2.23,2.29,4.53,4.53c.44.44.51.7,0,1.18-1.73,1.66-3.41,3.36-5.08,5.08-.42.42-.66.42-1.07,0-1.49-1.53-3-3-4.51-4.55a1.46,1.46,0,0,0-1.31-.43,17.71,17.71,0,0,1-4.66,0,9,9,0,0,1-6-4.59A10.93,10.93,0,0,1,21,31.72Z"/><path class="cls-1" d="M54.43,34.93a2,2,0,0,1-.33-2.7c.75-1.13.32-2.3-.23-3.32a8.15,8.15,0,0,0-5-3.82c-1.08-.35-2.2-.57-3.29-.88a6.51,6.51,0,0,1-1-.52,5.59,5.59,0,0,1,1.54-.54,24.87,24.87,0,0,1,4.49.12,17.24,17.24,0,0,1,7.28,3.47,25.75,25.75,0,0,1,7,6.91,8.39,8.39,0,0,1,1.35,3.44,5.53,5.53,0,0,0,1.08,2c0,.07.56,0,.74-.21,1.22-1,2.33-.47,2.64.63a2,2,0,0,1-.43,1.6c-1.13,1.27-2.35,2.45-3.58,3.61a1.54,1.54,0,0,1-2.57-.3,1.42,1.42,0,0,1,.35-1.9c.27-.3.33-.53,0-.78-1.06-.79-2.11-1.59-3.2-2.33a1.6,1.6,0,0,0-1-.22,2.15,2.15,0,0,1-2-.59c-.42-.44-.68-.27-1,.07l-8.56,8.56c-1.62,1.62-3.26,3.22-4.86,4.86-.46.47-.72.48-1.17,0-.82-1-1.74-1.86-2.65-2.81Z"/><path class="cls-1" d="M42.26,54.34a5,5,0,0,1-.55,1c-4.68,5.25-9.39,10.46-14,15.73a1.59,1.59,0,0,1-2.56.08c-1.19-1.3-2.49-2.51-3.74-3.76-.93-.94-.94-1.52,0-2.4,3.77-3.4,7.56-6.78,11.33-10.16,1.47-1.32,2.93-2.66,4.41-4a1.51,1.51,0,0,1,2.35,0c.75.71,1.5,1.44,2.19,2.22A4.7,4.7,0,0,1,42.26,54.34Z"/><path class="cls-1" d="M121.23,49.33l5.11-32.43,11.79,25.93,12-26L155,49.33h-3.5L148.54,28,138.09,50.62,127.77,28l-3,21.38Z"/><path class="cls-1" d="M175.86,30.21h3.32V49.33h-3.32V46.65a8.07,8.07,0,0,1-6.54,3.23c-4.84,0-9.31-3.41-9.31-10.14s4.43-10,9.31-10a7.91,7.91,0,0,1,6.54,3.18Zm-12.44,9.53c0,4.1,2.31,7.19,6.27,7.19S176,43.57,176,39.79c0-4.93-3.4-7.09-6.35-7.09C166.42,32.7,163.42,35.09,163.42,39.74Z"/><path class="cls-1" d="M185.44,30.21h3.32v2.21a6.75,6.75,0,0,1,5.48-2.67,6.48,6.48,0,0,1,5.48,2.62c1,1.43,1.11,3,1.11,5.12V49.33h-3.32V37.58a5.63,5.63,0,0,0-.87-3.5,3.76,3.76,0,0,0-3.14-1.38,4.18,4.18,0,0,0-3.36,1.47c-1.29,1.52-1.38,3.78-1.38,5.16v10h-3.32Z"/><path class="cls-1" d="M210.5,33.25V49.33h-3.31V33.25h-2v-3h2V23.3h3.31v6.91h3.32v3Z"/><path class="cls-1" d="M233.9,44.44a11.41,11.41,0,0,1-2.35,3.09,9.25,9.25,0,0,1-6.35,2.35c-4.61,0-9.45-2.9-9.45-10,0-5.71,3.5-10.13,9.26-10.13a8.56,8.56,0,0,1,7.24,3.5A12.9,12.9,0,0,1,234,40.44H219.16c.05,4,2.77,6.49,6.08,6.49a5.83,5.83,0,0,0,3.92-1.38,7.55,7.55,0,0,0,2-2.63Zm-3.27-6.77a5.72,5.72,0,0,0-5.62-5,5.81,5.81,0,0,0-5.62,5Z"/><path class="cls-1" d="M239.11,30.21h3.32v2.21a6.75,6.75,0,0,1,5.48-2.67,6.48,6.48,0,0,1,5.48,2.62c1,1.43,1.11,3,1.11,5.12V49.33h-3.32V37.58a5.57,5.57,0,0,0-.88-3.5,3.73,3.73,0,0,0-3.13-1.38,4.18,4.18,0,0,0-3.36,1.47c-1.29,1.52-1.38,3.78-1.38,5.16v10h-3.32Z"/><path class="cls-1" d="M262.42,20.63A2.35,2.35,0,1,1,260.07,23,2.36,2.36,0,0,1,262.42,20.63Zm1.66,9.58V49.33h-3.32V30.21Z"/><path class="cls-1" d="M270.34,30.21h3.32v2a5.55,5.55,0,0,1,4.75-2.49,5.73,5.73,0,0,1,5.2,3.08,6.38,6.38,0,0,1,5.76-3.08c5.67,0,6.22,4.74,6.22,7.46V49.33h-3.32V37.72c0-2.17-.28-5-3.41-5-3.82,0-4.24,3.68-4.24,6V49.33h-3.31V38c0-1.33,0-5.29-3.46-5.29-3.77,0-4.19,3.91-4.19,6.22V49.33h-3.32Z"/><path class="cls-1" d="M303.56,20.63A2.35,2.35,0,1,1,301.21,23,2.36,2.36,0,0,1,303.56,20.63Zm1.66,9.58V49.33H301.9V30.21Z"/><path class="cls-1" d="M328.43,44.44a11.41,11.41,0,0,1-2.35,3.09,9.25,9.25,0,0,1-6.35,2.35c-4.61,0-9.45-2.9-9.45-10,0-5.71,3.51-10.13,9.26-10.13a8.56,8.56,0,0,1,7.24,3.5,12.82,12.82,0,0,1,1.79,7.19H313.69c.05,4,2.77,6.49,6.08,6.49a5.83,5.83,0,0,0,3.92-1.38,7.68,7.68,0,0,0,2-2.63Zm-3.27-6.77a5.72,5.72,0,0,0-5.62-5,5.81,5.81,0,0,0-5.62,5Z"/><path class="cls-1" d="M333.64,30.21H337v2.21a6.75,6.75,0,0,1,5.48-2.67,6.48,6.48,0,0,1,5.48,2.62c1,1.43,1.11,3,1.11,5.12V49.33h-3.32V37.58a5.57,5.57,0,0,0-.88-3.5,3.73,3.73,0,0,0-3.13-1.38,4.18,4.18,0,0,0-3.36,1.47C337.05,35.69,337,38,337,39.33v10h-3.32Z"/><path class="cls-1" d="M358.7,33.25V49.33h-3.32V33.25h-2v-3h2V23.3h3.32v6.91H362v3Z"/><path class="cls-1" d="M364,39.84a10.14,10.14,0,0,1,20.27,0,10.14,10.14,0,0,1-20.27,0Zm3.41,0c0,4.7,3.32,7.09,6.73,7.09s6.72-2.44,6.72-7.09-3.22-7.14-6.72-7.14S367.36,35.18,367.36,39.84Z"/></g></g></svg>