<svg xmlns="http://www.w3.org/2000/svg" viewBox="0 0 413.63 72.21"><defs><style>.cls-1{fill:#002856;}</style></defs><g id="Capa_2" data-name="Capa 2"><g id="Capa_1-2" data-name="Capa 1"><path class="cls-1" d="M45.73,0A45.73,45.73,0,0,0,8.45,72.21h4.27a42.33,42.33,0,1,1,66,0H83A45.73,45.73,0,0,0,45.73,0Z"/><path class="cls-1" d="M57.53,20.36c-1.83-.28-5.07.57-7-.42a29.71,29.71,0,0,0-4.65-1.69,29.33,29.33,0,0,0-4.65,1.69c-2,1-5.21.14-7,.42s-5.5,3.38-6.49,5.08l5.22,4.93s.42-2.82,3-3.1c1.84-.21,4.28,0,6.93-.09a5.68,5.68,0,0,1-.17-1.32c0-2.34,1.45-4.23,3.24-4.23s3.24,1.89,3.24,4.23a5.19,5.19,0,0,1-.18,1.32c2.66.12,5.1-.12,6.94.09,2.54.28,3,3.1,3,3.1L64,25.44C63,23.74,59.36,20.65,57.53,20.36Z"/><path class="cls-1" d="M57.39,36.28a14.24,14.24,0,0,0,0-4.51s1.41-1.4-11.55-1.4-11.55,1.4-11.55,1.4a13.91,13.91,0,0,0,0,4.51s-1.27.14-.85,3a2.42,2.42,0,0,0,3.12,2.11,14.11,14.11,0,0,0,9.28,8.46,14.13,14.13,0,0,0,9.28-8.46,2.42,2.42,0,0,0,3.11-2.11C58.66,36.42,57.39,36.28,57.39,36.28ZM45.84,48.4c-9.6-4-9.72-14.23-9.72-14.23s.84-1,3.48,0a25.37,25.37,0,0,0,6.24,1.07,25.45,25.45,0,0,0,6.24-1.07c2.63-1,3.48,0,3.48,0S55.43,44.36,45.84,48.4Z"/><path class="cls-1" d="M39.36,47.83s2.81,4.93,5.21,6.2L43,72.21H29.78c-3.1,0-2.26-5.92-2.12-10.43s-.14-5.07,3-7.47S39.36,47.83,39.36,47.83Z"/><path class="cls-1" d="M63.8,61.78c-.14-4.51.14-5.07-3-7.47s-8.73-6.48-8.73-6.48-2.82,4.93-5.22,6.2l1.55,18.18H61.69C64.79,72.21,63.94,66.29,63.8,61.78ZM54.92,65.3c-3.17,0-2.46-6.2-2.46-6.2h4.93S58.09,65.3,54.92,65.3Z"/><path class="cls-1" d="M130,25.11a7.28,7.28,0,0,0-1.79-2.3,5.55,5.55,0,0,0-3.46-1.06c-3,0-5.16,1.89-5.16,4.75a3.26,3.26,0,0,0,1.15,2.67A10.06,10.06,0,0,0,124,31.1L127,32.39a15.09,15.09,0,0,1,4.74,2.9,7.4,7.4,0,0,1,2.21,5.58c0,5.66-4.19,9.44-9.72,9.44a9.15,9.15,0,0,1-6.68-2.49,11.07,11.07,0,0,1-2.85-5.43l3.32-.92a7.2,7.2,0,0,0,1.84,3.91A6.28,6.28,0,0,0,130.41,41a4.58,4.58,0,0,0-1.52-3.6,13.38,13.38,0,0,0-3.68-2.12L122.44,34a13.63,13.63,0,0,1-4.1-2.53,6.4,6.4,0,0,1-2.12-5c0-4.75,3.64-7.92,8.62-7.92a8.35,8.35,0,0,1,4.93,1.38,9.28,9.28,0,0,1,3,3.41Z"/><path class="cls-1" d="M156.3,44.88A11.22,11.22,0,0,1,154,48a9.25,9.25,0,0,1-6.35,2.35c-4.61,0-9.45-2.9-9.45-10,0-5.72,3.5-10.14,9.26-10.14a8.54,8.54,0,0,1,7.23,3.5,12.85,12.85,0,0,1,1.8,7.19H141.56c.05,4,2.77,6.49,6.08,6.49A5.83,5.83,0,0,0,151.56,46a7.77,7.77,0,0,0,2-2.62ZM153,38.1a5.72,5.72,0,0,0-5.62-5,5.81,5.81,0,0,0-5.62,5Z"/><path class="cls-1" d="M176.16,30.64h3.31V49.3c0,2.07,0,5-1.84,7.51A9.31,9.31,0,0,1,170,60.35a9.45,9.45,0,0,1-6.81-2.58,8.61,8.61,0,0,1-2.49-6.17H164A5.68,5.68,0,0,0,170,57.41a5.36,5.36,0,0,0,5.07-2.68,8.85,8.85,0,0,0,1.06-4.88V47.09a8.07,8.07,0,0,1-6.54,3.22,9.12,9.12,0,0,1-6.54-2.58,10.3,10.3,0,0,1-2.77-7.55,10,10,0,0,1,2.77-7.42,9.4,9.4,0,0,1,6.54-2.58,8,8,0,0,1,6.54,3.18Zm-10.51,4.29a7.26,7.26,0,0,0-1.93,5.25,7.38,7.38,0,0,0,2.16,5.62,5.77,5.77,0,0,0,4.1,1.56,5.66,5.66,0,0,0,4.2-1.61,7.74,7.74,0,0,0,2.16-5.53,7.56,7.56,0,0,0-2-5.39,6.1,6.1,0,0,0-4.33-1.7A5.92,5.92,0,0,0,165.65,34.93Z"/><path class="cls-1" d="M189.06,41.79a6.51,6.51,0,0,0,.92,4.1,4.57,4.57,0,0,0,6.72,0,6.51,6.51,0,0,0,.92-4.1V30.64h3.32V42.16c0,2.35-.23,4.1-1.75,5.76a8.35,8.35,0,0,1-11.7,0c-1.52-1.66-1.75-3.41-1.75-5.76V30.64h3.32Z"/><path class="cls-1" d="M207.21,30.64h3.31v2.07a5.32,5.32,0,0,1,4.33-2.53,7.06,7.06,0,0,1,3,.78l-1.57,3a3.36,3.36,0,0,0-1.93-.65,3.21,3.21,0,0,0-2.67,1.2c-.55.74-1.11,2-1.11,5.16V49.76h-3.31Z"/><path class="cls-1" d="M222.5,21.06a2.35,2.35,0,1,1-2.35,2.35A2.36,2.36,0,0,1,222.5,21.06Zm1.66,9.58V49.76h-3.32V30.64Z"/><path class="cls-1" d="M245.07,16.18h3.32V49.76h-3.32V47.09a8,8,0,0,1-6.54,3.22c-4.84,0-9.3-3.41-9.3-10.13s4.42-10,9.3-10a7.89,7.89,0,0,1,6.54,3.18Zm-12.44,24c0,4.1,2.31,7.18,6.27,7.18s6.36-3.36,6.36-7.14c0-4.93-3.41-7.09-6.36-7.09C235.63,33.13,232.63,35.52,232.63,40.18Z"/><path class="cls-1" d="M269.3,30.64h3.32V49.76H269.3V47.09a8,8,0,0,1-6.54,3.22c-4.84,0-9.3-3.41-9.3-10.13s4.42-10,9.3-10a7.89,7.89,0,0,1,6.54,3.18Zm-12.43,9.54c0,4.1,2.3,7.18,6.26,7.18s6.36-3.36,6.36-7.14c0-4.93-3.41-7.09-6.36-7.09C259.86,33.13,256.87,35.52,256.87,40.18Z"/><path class="cls-1" d="M293.53,16.18h3.32V49.76h-3.32V47.09A8,8,0,0,1,287,50.31c-4.83,0-9.3-3.41-9.3-10.13s4.42-10,9.3-10a7.89,7.89,0,0,1,6.54,3.18Zm-12.43,24c0,4.1,2.3,7.18,6.26,7.18s6.36-3.36,6.36-7.14c0-4.93-3.41-7.09-6.36-7.09C284.09,33.13,281.1,35.52,281.1,40.18Z"/><path class="cls-1" d="M313,49.76l11.19-12.95c.79-.92,2.86-3.36,3.6-4.46a8,8,0,0,0,1.7-4.7,5.82,5.82,0,0,0-6.13-6,5.91,5.91,0,0,0-5.11,2.72,6.74,6.74,0,0,0-1,3.64h-3.41a9.78,9.78,0,0,1,2.3-6.36,9.1,9.1,0,0,1,7.28-3.13c5.44,0,9.49,3.87,9.49,9.16,0,2.08-.6,4-2.44,6.59-1.29,1.8-3,3.69-4.19,5.11l-6.41,7.24h13v3.13Z"/><path class="cls-1" d="M354.66,40.82h3.78V44h-3.78v5.81h-3.41V44H335.5l19.16-26.62Zm-3.41,0V27.23l-9.72,13.59Z"/><path class="cls-1" d="M384.42,14.79l2.67,1.39-23.67,42.7-2.68-1.29Z"/><path class="cls-1" d="M407.87,22.17H391.06V19h22.57L393.08,50.5l-2.67-1.8Z"/></g></g></svg>