<svg xmlns="http://www.w3.org/2000/svg" viewBox="0 0 352.82 72.64"><defs><style>.cls-1{fill:#002856;}</style></defs><g id="Capa_2" data-name="Capa 2"><g id="Capa_1-2" data-name="Capa 1"><path class="cls-1" d="M45.73,0A45.73,45.73,0,0,0,8.45,72.21h4.27a42.33,42.33,0,1,1,66,0H83A45.73,45.73,0,0,0,45.73,0Z"/><path class="cls-1" d="M57,23.83H37.7L21.61,70.71H69.39ZM46.48,68.36l-1.43,0L45.4,57l1.42,0Zm.46-15-1.43,0L45.86,42l1.42,0Zm.44-14.47-1.43,0,.35-11.32,1.43,0Z"/><rect class="cls-1" x="21.61" y="71.1" width="47.78" height="1.54"/><polygon class="cls-1" points="20.7 70.91 19.54 70.51 36.1 23.63 37.25 24.04 20.7 70.91"/><polygon class="cls-1" points="70.76 70.88 57.32 24 58.49 23.67 71.93 70.54 70.76 70.88"/><path class="cls-1" d="M119.73,38.09c0,2.58,0,5.39,2.44,7.46a8.2,8.2,0,0,0,10.13,0c2.44-2.07,2.44-4.88,2.44-7.46V19.25h3.41V39c0,2.58-.27,5.07-1.93,7.37a11.8,11.8,0,0,1-18,0c-1.66-2.3-1.93-4.79-1.93-7.37V19.25h3.41Z"/><path class="cls-1" d="M145.25,30.86h3.31v2.07a5.33,5.33,0,0,1,4.33-2.53,7.06,7.06,0,0,1,3,.78l-1.56,3a3.47,3.47,0,0,0-1.94-.64,3.21,3.21,0,0,0-2.67,1.2c-.55.73-1.11,2-1.11,5.16V50h-3.31Z"/><path class="cls-1" d="M162.2,50h-3.32V16.39h3.32V33.53a8.22,8.22,0,0,1,6.54-3.13c6,0,9.31,5,9.31,10.13s-3.37,10-9.17,10a8.1,8.1,0,0,1-6.68-3.23Zm12.44-9.44c0-4.7-3.18-7.18-6.27-7.18S162,35.88,162,40.49c0,3.91,2.48,7.09,6.4,7.09S174.64,44.35,174.64,40.53Z"/><path class="cls-1" d="M197.76,30.86h3.32V50h-3.32V47.3a8.05,8.05,0,0,1-6.54,3.23c-4.84,0-9.3-3.41-9.3-10.14s4.42-10,9.3-10a7.87,7.87,0,0,1,6.54,3.18Zm-12.43,9.53c0,4.1,2.3,7.19,6.26,7.19S198,44.22,198,40.44c0-4.93-3.41-7.09-6.36-7.09C188.32,33.35,185.33,35.74,185.33,40.39Z"/><path class="cls-1" d="M207.34,30.86h3.32v2.21a6.75,6.75,0,0,1,5.48-2.67A6.48,6.48,0,0,1,221.62,33c1,1.43,1.11,3,1.11,5.12V50h-3.32V38.23a5.63,5.63,0,0,0-.87-3.5,3.76,3.76,0,0,0-3.13-1.38A4.19,4.19,0,0,0,212,34.82c-1.29,1.52-1.38,3.78-1.38,5.16V50h-3.32Z"/><path class="cls-1" d="M230.65,21.28a2.35,2.35,0,1,1-2.35,2.34A2.36,2.36,0,0,1,230.65,21.28Zm1.66,9.58V50H229V30.86Z"/><path class="cls-1" d="M242.45,46.93h13.26v3h-19.9L249.63,33.9H238.49v-3h17.78Z"/><path class="cls-1" d="M274,30.86h3.31V50H274V47.3a8.07,8.07,0,0,1-6.54,3.23c-4.84,0-9.31-3.41-9.31-10.14s4.42-10,9.31-10A7.9,7.9,0,0,1,274,33.58Zm-12.44,9.53c0,4.1,2.3,7.19,6.26,7.19s6.36-3.36,6.36-7.14c0-4.93-3.41-7.09-6.36-7.09C264.51,33.35,261.52,35.74,261.52,40.39Z"/><path class="cls-1" d="M298.51,36.2a7.7,7.7,0,0,0-6-2.85c-3.55,0-6.77,2.48-6.77,7.14s3.32,7.09,6.73,7.09a8.17,8.17,0,0,0,6.17-3v4a10.22,10.22,0,0,1-6.08,2c-5.95,0-10.23-4.24-10.23-10A9.87,9.87,0,0,1,292.57,30.4a10.08,10.08,0,0,1,5.94,1.84Z"/><path class="cls-1" d="M305.37,21.28A2.35,2.35,0,1,1,303,23.62,2.36,2.36,0,0,1,305.37,21.28ZM307,30.86V50h-3.31V30.86Z"/><path class="cls-1" d="M312.1,40.49a10.14,10.14,0,0,1,20.27,0,10.14,10.14,0,0,1-20.27,0Zm3.41,0c0,4.69,3.32,7.09,6.72,7.09S329,45.14,329,40.49s-3.22-7.14-6.73-7.14S315.51,35.83,315.51,40.49Zm13-19.63-6.17,6.22L320.25,26l4.84-6.68Z"/><path class="cls-1" d="M337.44,30.86h3.31v2.21a6.77,6.77,0,0,1,5.49-2.67A6.5,6.5,0,0,1,351.72,33c1,1.43,1.1,3,1.1,5.12V50h-3.31V38.23a5.64,5.64,0,0,0-.88-3.5,3.74,3.74,0,0,0-3.13-1.38,4.2,4.2,0,0,0-3.37,1.47c-1.29,1.52-1.38,3.78-1.38,5.16V50h-3.31Z"/></g></g></svg>